<?xml version="1.0" encoding="UTF-8" standalone="no"?>
<!-- Created with Inkscape (http://www.inkscape.org/) -->

<svg
   xmlns:dc="http://purl.org/dc/elements/1.1/"
   xmlns:cc="http://creativecommons.org/ns#"
   xmlns:rdf="http://www.w3.org/1999/02/22-rdf-syntax-ns#"
   xmlns:svg="http://www.w3.org/2000/svg"
   xmlns="http://www.w3.org/2000/svg"
   xmlns:sodipodi="http://sodipodi.sourceforge.net/DTD/sodipodi-0.dtd"
   xmlns:inkscape="http://www.inkscape.org/namespaces/inkscape"
   width="200"
   height="369.03"
   id="svg2"
   version="1.1"
   inkscape:version="0.92.2 5c3e80d, 2017-08-06"
   sodipodi:docname="muscle-16.svg">
  <defs
     id="defs4" />
  <sodipodi:namedview
     id="base"
     pagecolor="#ffffff"
     bordercolor="#666666"
     borderopacity="1.0"
     inkscape:pageopacity="0"
     inkscape:pageshadow="2"
     inkscape:zoom="0.98994949"
     inkscape:cx="100.89643"
     inkscape:cy="229.45423"
     inkscape:document-units="px"
     inkscape:current-layer="layer1"
     showgrid="false"
     fit-margin-top="0"
     fit-margin-left="0"
     fit-margin-right="0"
     fit-margin-bottom="0"
     inkscape:window-width="1440"
     inkscape:window-height="790"
     inkscape:window-x="0"
     inkscape:window-y="1"
     inkscape:window-maximized="1" />
  <metadata
     id="metadata7">
    <rdf:RDF>
      <cc:Work
         rdf:about="">
        <dc:format>image/svg+xml</dc:format>
        <dc:type
           rdf:resource="http://purl.org/dc/dcmitype/StillImage" />
        <dc:title></dc:title>
      </cc:Work>
    </rdf:RDF>
  </metadata>
  <g
     inkscape:label="Ebene 1"
     inkscape:groupmode="layer"
     id="layer1"
     transform="translate(-54.28571,-335.71492)">
    <path
       style="fill:#fc0000;stroke:none;stroke-width:1px;stroke-linecap:butt;stroke-linejoin:miter;stroke-opacity:1;fill-opacity:1;opacity:0.669"
       d="m 153.63985,370.67347 c -0.54063,0.99798 -1.04395,2.0171 -1.62188,2.99395 -0.0429,0.0725 -0.0842,-0.25254 0,-0.25254 0.0842,0 0,0.16836 0,0.25254 0,0.33684 0,0.16824 0,0.50508 0,0.0842 0.0842,0.25254 0,0.25254 -0.0842,0 0,-0.33672 0,-0.25254 0,0.16836 0,0.33672 0,0.50507 0,0.0842 -0.0842,-0.25253 0,-0.25253 0.0842,0 0.0377,0.17724 0,0.25253 -0.0532,0.10648 -0.13349,0.25254 -0.25254,0.25254 -0.0842,0 -0.0842,-0.25254 0,-0.25254 0.0842,0 0,0.16836 0,0.25254 0,0.0842 0,0.16836 0,0.25254 0,0.0842 0.0842,0.25254 0,0.25254 -0.0842,0 -0.0842,-0.25254 0,-0.25254 0.0842,0 0,0.16836 0,0.25254 0,0.0842 0.0595,0.19301 0,0.25254 -0.0595,0.0595 -0.19301,-0.0595 -0.25254,0 -0.16842,0.16842 0.16842,0.33665 0,0.50507 -0.0595,0.0595 -0.16836,0 -0.25254,0 0,0.0842 0.0595,0.19302 0,0.25254 -0.0595,0.0595 -0.25253,-0.0842 -0.25253,0 0,0.11905 0.19929,0.14606 0.25253,0.25254 0.0377,0.0753 0,0.16836 0,0.25254 0,0.0842 0.0842,0.25254 0,0.25254 -0.11904,0 -0.13349,-0.25254 -0.25253,-0.25254 -0.0842,0 0,0.16836 0,0.25254 0,0.0842 0,0.16835 0,0.25253 0,0.0842 0.0842,0.25254 0,0.25254 -1.14963,0 0.3397,-0.59224 -0.25254,0 -0.0595,0.0595 -0.25254,-0.0842 -0.25254,0 0,0.11905 0.13349,0.25254 0.25254,0.25254 0.0842,0 0,-0.33672 0,-0.25254 0,0.16836 0.11905,0.38603 0,0.50508 -0.0842,0.0842 -0.13349,-0.25254 -0.25254,-0.25254 -0.0842,0 0,0.16836 0,0.25254 0,0.0842 0,0.16836 0,0.25254 0,0.0842 0.0842,0.25253 0,0.25253 -0.0842,0 0.0842,-0.25253 0,-0.25253 -0.44308,0 -0.16548,0.58349 -0.25254,0.75761 -0.0532,0.10648 -0.1993,0.14606 -0.25254,0.25254 -0.0753,0.15058 0.11905,0.38603 0,0.50508 -0.0595,0.0595 -0.19301,-0.0595 -0.25253,0 -0.12627,0.12626 0.12626,0.63134 0,0.75761 -0.0595,0.0595 -0.25254,-0.0842 -0.25254,0 0,0.11905 0.1993,0.14606 0.25254,0.25254 0.0377,0.0753 0.0842,0.25254 0,0.25254 -0.0842,0 0,-0.33672 0,-0.25254 0,0.16836 0,0.33672 0,0.50507 0,0.0842 -0.0842,-0.25253 0,-0.25253 0.0842,0 0,0.16836 0,0.25253 0,0.0842 0.0842,0.25254 0,0.25254 -0.0842,0 -0.0842,-0.25254 0,-0.25254 0.0842,0 0,0.16836 0,0.25254 0,0.0842 0,0.16836 0,0.25254 0,0.0842 0.0842,0.25254 0,0.25254 -0.11905,0 -0.1335,-0.25254 -0.25254,-0.25254 -0.0842,0 0.0595,0.19302 0,0.25254 -0.0595,0.0595 -0.25254,-0.0842 -0.25254,0 0,0.11905 0.13349,0.25254 0.25254,0.25254 0.0842,0 -0.0842,-0.25254 0,-0.25254 0.0842,0 0,0.16836 0,0.25254 0,0.0842 0.0595,0.19301 0,0.25254 -0.15093,0.15092 -0.50508,-0.27297 -0.50508,0.25253 0,0.0842 0.19302,-0.0595 0.25254,0 0.0595,0.0595 0.0595,0.19302 0,0.25254 -0.0595,0.0595 -0.19302,-0.0595 -0.25254,0 -0.0371,0.0371 0.0297,0.75762 0,0.75762 -0.0842,0 -0.0842,-0.25254 0,-0.25254 0.0842,0 0,0.16836 0,0.25254 0,0.0842 0.0595,0.19301 0,0.25253 -0.0595,0.0595 -0.19301,-0.0595 -0.25254,0 -0.0371,0.0371 0.0297,0.75762 0,0.75762 -0.0842,0 0,-0.33672 0,-0.25254 0,0.16836 0,0.33672 0,0.50508 0,0.0842 0,-0.33672 0,-0.25254 0,1.67513 0.11905,-0.11905 -0.25254,0.25254 -0.11904,0.11904 0.0753,0.35449 0,0.50507 -0.0376,0.0753 -0.25253,0.0842 -0.25253,0 0,-0.0842 0.19301,-0.0595 0.25253,0 0.008,0.008 0,0.69637 0,0.75762 0,0.0842 0.0842,0.25254 0,0.25254 -0.0842,0 0.0595,-0.19302 0,-0.25254 -0.0595,-0.0595 -0.21489,-0.0753 -0.25253,0 -0.0753,0.15058 0,0.33671 0,0.50507 0,0.0842 0.0842,-0.25253 0,-0.25253 -0.11905,0 -0.25254,0.13349 -0.25254,0.25253 0,0.0842 0.19301,-0.0595 0.25254,0 0.0595,0.0595 0.0842,0.25254 0,0.25254 -0.0842,0 0,-0.33672 0,-0.25254 0,0.16836 0,0.33672 0,0.50508 0,0.0842 0,-0.33672 0,-0.25254 0,0.16836 0.11904,0.38603 0,0.50508 -0.0842,0.0842 -0.13349,-0.25254 -0.25254,-0.25254 -0.0842,0 0,0.16836 0,0.25254 0,0.0842 0,0.16836 0,0.25254 0,0.84179 0,-0.58926 0,0.25253 0,0.0842 0.0842,0.25254 0,0.25254 -0.0842,0 0.0595,-0.19301 0,-0.25254 -0.15093,-0.15092 -0.50508,0.15392 -0.50508,0.25254 0,0.11905 0.1993,0.14606 0.25254,0.25254 0.0377,0.0753 0,0.16836 0,0.25254 0,0.0842 0.0842,0.25254 0,0.25254 -0.0842,0 0,-0.33672 0,-0.25254 0,0.16836 0.11905,0.38603 0,0.50507 -0.0842,0.0842 -0.13349,-0.25253 -0.25254,-0.25253 -0.0842,0 0,0.16836 0,0.25253 0,0.35211 0.16303,0.92064 -0.50507,0.25254 -0.0595,-0.0595 0.21489,-0.0753 0.25253,0 0.0753,0.15059 0,0.33672 0,0.50508 0,0.0842 0.0842,0.25254 0,0.25254 -0.11904,0 -0.14605,-0.30578 -0.25253,-0.25254 -0.16836,0.0842 -0.25254,0.31684 -0.25254,0.50508 0,0.11904 0.16836,-0.33672 0.25254,-0.25254 0.11904,0.11904 0,0.33671 0,0.50507 0,0.0842 0,-0.33671 0,-0.25253 0,0.40008 0.15058,0.75761 -0.50508,0.75761 -0.11905,0 0.16836,-0.33672 0.25254,-0.25254 0.11905,0.11905 0,0.33672 0,0.50508 0,0.0842 0.0842,0.25254 0,0.25254 -0.18823,0 -0.37198,-0.38564 -0.50508,-0.25254 -0.1331,0.1331 0.11944,0.37198 0.25254,0.50507 0.0595,0.0595 0,-0.33671 0,-0.25253 0,0.0986 0.11905,0.75761 -0.25254,0.75761 -0.11905,0 -0.25254,-0.37159 -0.25254,-0.25254 0.10196,1.75419 0.33672,0.16836 0.25254,0.25254 -0.1331,0.1331 -0.11944,0.37198 -0.25254,0.50508 -0.0595,0.0595 -0.25254,-0.0842 -0.25254,0 0,0.11904 0.1335,0.25253 0.25254,0.25253 0.0842,0 0,-0.33671 0,-0.25253 0,0.16836 0,0.33671 0,0.50507 0,0.0842 0,-0.33671 0,-0.25254 0,1.65553 0,-0.89791 0,0.75762 0,0.0842 0.0595,-0.31206 0,-0.25254 -0.1331,0.1331 -0.0842,0.4209 -0.25254,0.50508 -0.10647,0.0532 -0.33671,-0.16836 -0.25253,-0.25254 0.0842,-0.0842 0.1993,0.14606 0.25253,0.25254 0.0377,0.0753 0.0842,0.25254 0,0.25254 -0.0842,0 -0.0842,-0.25254 0,-0.25254 0.0842,0 0,0.16836 0,0.25254 0,0.0842 0.0842,0.25253 0,0.25253 -0.0842,0 -0.0842,-0.25253 0,-0.25253 0.0842,0 0,0.16835 0,0.25253 0,0.0842 0,0.16836 0,0.25254 0,0.0842 0.0842,0.25254 0,0.25254 -0.0842,0 0.0595,-0.19301 0,-0.25254 -0.0595,-0.0595 -0.21489,-0.0753 -0.25253,0 -0.0753,0.15059 0.11904,0.38603 0,0.50508 -0.0842,0.0842 -0.25254,-0.37159 -0.25254,-0.25254 0,0.18823 0.11944,0.37198 0.25254,0.50508 0.0595,0.0595 0,-0.33672 0,-0.25254 0,1.65553 0,-0.89792 0,0.75761 0,0.0842 0.0595,0.19302 0,0.25254 -0.0595,0.0595 -0.19302,-0.0595 -0.25254,0 -0.0595,0.0595 0.0842,0.25254 0,0.25254 -0.11905,0 -0.25254,-0.37159 -0.25254,-0.25254 0,0.18823 0.11944,0.37198 0.25254,0.50508 0.0595,0.0595 0,-0.33672 0,-0.25254 0,1.65553 0,-0.89791 0,0.75761 0,0.0842 -0.0842,-0.25253 0,-0.25253 0.0842,0 0,0.16835 0,0.25253 0,0.0842 0,0.16836 0,0.25254 0,0.0842 0.0842,0.25254 0,0.25254 -0.0842,0 0,-0.33672 0,-0.25254 0,0.16836 0,0.33672 0,0.50508 0,0.0842 -0.0842,-0.25254 0,-0.25254 0.0842,0 0,0.16836 0,0.25254 0,0.0842 0.0842,0.25254 0,0.25254 -0.0842,0 -0.0842,-0.25254 0,-0.25254 0.0842,0 0,0.16836 0,0.25254 0,0.0842 0,0.16835 0,0.25253 0,0.8418 0,-0.58925 0,0.25254 0,0.0842 0.0842,0.25254 0,0.25254 -0.0842,0 -0.0842,-0.25254 0,-0.25254 0.0842,0 0,0.16836 0,0.25254 0,0.0842 0.0842,0.25254 0,0.25254 -0.0842,0 -0.0842,-0.25254 0,-0.25254 0.0842,0 0,0.16836 0,0.25254 0,0.0842 0.0842,0.25254 0,0.25254 -0.0842,0 -0.0842,-0.25254 0,-0.25254 0.0842,0 0,0.16836 0,0.25254 0,0.0842 0.0842,0.25253 0,0.25253 -0.0842,0 -0.0842,-0.25253 0,-0.25253 0.0842,0 0,0.16836 0,0.25253 0,0.0842 0.0842,0.25254 0,0.25254 -0.0842,0 -0.0842,-0.25254 0,-0.25254 0.0842,0 0,0.16836 0,0.25254 0,0.0842 0,0.16836 0,0.25254 0,0.0842 0.0842,0.25254 0,0.25254 -0.0842,0 -0.0842,-0.25254 0,-0.25254 0.0842,0 0,0.16836 0,0.25254 0,0.0842 0,0.16836 0,0.25254 0,0.0842 -0.0842,0.25254 0,0.25254 0.11905,0 0.13349,-0.25254 0.25254,-0.25254 0.0842,0 0,0.16836 0,0.25254 0,0.0842 0.0842,0.25253 0,0.25253 -0.0842,0 0,-0.33671 0,-0.25253 0,0.16835 0,0.33671 0,0.50507 0,0.0842 -0.0595,-0.19301 0,-0.25254 0.0595,-0.0595 0.25253,-0.0842 0.25253,0 0,0.11905 -0.19929,0.14606 -0.25253,0.25254 -0.0376,0.0753 -0.0842,0.25254 0,0.25254 0.11904,0 0.16836,-0.33672 0.25253,-0.25254 0.16836,1.43105 -0.0842,0.25254 0,0.25254 0.0842,0 0,0.16836 0,0.25254 0,0.0842 -0.0842,0.25254 0,0.25254 0.11905,0 0.25254,-0.37159 0.25254,-0.25254 0,0.18823 -0.11944,0.37197 -0.25254,0.50507 -0.11223,0.11224 0.0281,-0.70149 0.25254,-0.25253 0.0753,0.15058 0,0.33671 0,0.50507 0,0.0842 0,-0.33672 0,-0.25254 0,0.16836 -0.11904,0.38603 0,0.50508 0.0842,0.0842 0.25254,-0.13349 0.25254,-0.25254 0,-0.0842 -0.21489,-0.0753 -0.25254,0 -0.0753,0.15059 0,0.33672 0,0.50508 0,0.0842 0,-0.33672 0,-0.25254 0,0.16836 -0.11904,0.38603 0,0.50508 0.0842,0.0842 0.13349,-0.25254 0.25254,-0.25254 0.0842,0 0,0.16836 0,0.25254 0,0.0842 0.0842,0.25253 0,0.25253 -0.22066,0 0.25254,-0.83756 0.25254,0 0,0.0842 -0.19301,-0.0595 -0.25254,0 -0.0595,0.0595 -0.0842,0.25254 0,0.25254 0.11905,0 0.13349,-0.25254 0.25254,-0.25254 0.33672,0 0.33672,0.50508 0,0.50508 -0.0842,0 -0.0595,-0.19301 0,-0.25254 0.0595,-0.0595 0.17725,-0.0376 0.25254,0 0.10648,0.0532 0.25254,0.13349 0.25254,0.25254 0,0.11905 -0.16836,0.33672 -0.25254,0.25254 -0.0842,-0.0842 0.13349,-0.25254 0.25254,-0.25254 0.11904,0 0.25253,0.13349 0.25253,0.25254 0,0.11905 -0.16835,0.33672 -0.25253,0.25254 -0.21344,-0.21344 0.50507,-0.32228 0.50507,-0.25254 0,0.11905 -0.25254,0.13349 -0.25254,0.25254 0,0.33671 0.50508,0.33671 0.50508,0 0,-0.0842 -0.19301,-0.0595 -0.25254,0 -0.15092,0.15092 0.15392,0.50507 0.25254,0.50507 0.0842,0 -0.0595,-0.19301 0,-0.25253 0.0595,-0.0595 0.19301,-0.0595 0.25254,0 0.11905,0.11904 -0.16836,0.50507 0,0.50507 0.83756,0 0,-0.4732 0,-0.25254 0,0.2381 0.67343,0.33672 0.50507,0.50508 -0.0842,0.0842 -0.25253,-0.13349 -0.25253,-0.25254 0,-0.18823 0.50507,0.0643 0.50507,0.25254 0,0.11905 -0.13349,0.25254 -0.25254,0.25254 -0.0842,0 -0.0595,-0.19302 0,-0.25254 0.0595,-0.0595 0.16836,0 0.25254,0 0.0842,0 0.25254,-0.0842 0.25254,0 0,0.0842 -0.21489,-0.0753 -0.25254,0 -0.0753,0.15058 0,0.33672 0,0.50508 0,0.0842 -0.0595,-0.19302 0,-0.25254 0.0595,-0.0595 0.16836,0 0.25254,0 0.0842,0 0.25254,-0.0842 0.25254,0 0,0.0842 -0.21489,-0.0753 -0.25254,0 -0.0753,0.15058 0,0.33672 0,0.50507 0,0.0842 -0.0595,-0.19301 0,-0.25253 0.0595,-0.0595 0.16836,0 0.25254,0 0.31099,0 0.58037,-0.0753 0,0.50507 -0.11224,0.11224 0.0281,-0.70149 0.25254,-0.25254 0.0753,0.15059 0,0.33672 0,0.50508 0,0.0842 0,-0.33672 0,-0.25254 0,0.16836 -0.11905,0.38603 0,0.50508 0.0842,0.0842 0.25254,-0.13349 0.25254,-0.25254 0,-0.0842 -0.19302,-0.0595 -0.25254,0 -0.11905,0.11905 0.16836,0.50508 0,0.50508 -0.16836,0 0.0842,-0.58926 0.25254,-0.25254 0.0753,0.15058 0,0.33672 0,0.50508 0,0.0842 0,-0.33672 0,-0.25254 0,0.16836 -0.11905,0.38603 0,0.50507 0.0842,0.0842 0.25253,-0.13349 0.25253,-0.25253 0,-0.0842 -0.21489,-0.0753 -0.25253,0 -0.0753,0.15058 0,0.33671 0,0.50507 0,0.0842 0,-0.33672 0,-0.25254 0,1.65553 0,-0.89791 0,0.75762 0,0.0842 0,-0.33672 0,-0.25254 0,0.16836 0,0.33672 0,0.50508 0,0.0842 -0.0842,-0.25254 0,-0.25254 0.125,0 0.50253,0.50507 0.25253,0.50507 -0.0842,0 -0.0842,-0.25253 0,-0.25253 0.0842,0 0,0.16835 0,0.25253 0,0.0842 0.0842,0.25254 0,0.25254 -0.0842,0 -0.0842,-0.25254 0,-0.25254 0.0842,0 0,0.16836 0,0.25254 0,0.0842 0.0842,0.25254 0,0.25254 -0.0842,0 0,-0.33672 0,-0.25254 0,0.16836 0,0.33672 0,0.50508 0,0.0842 -0.0842,-0.25254 0,-0.25254 0.11905,0 0.25254,0.13349 0.25254,0.25254 0,0.0842 -0.19301,-0.0595 -0.25254,0 -0.11904,0.11905 0.16836,0.50507 0,0.50507 -0.0842,0 0,-0.33671 0,-0.25253 0,0.16836 0,0.33671 0,0.50507 0,0.0842 0,-0.33671 0,-0.25254 0,1.65553 0,-0.89791 0,0.75762 0,0.0842 0,-0.33672 0,-0.25254 0,1.65553 0,-0.89791 0,0.75762 0,0.0842 -0.0842,-0.25254 0,-0.25254 0.0842,0 0,0.16836 0,0.25254 0,0.0842 0.0842,0.25253 0,0.25253 -0.0842,0 0,-0.33671 0,-0.25253 0,0.16835 0,0.33671 0,0.50507 0,0.0842 0,-0.33672 0,-0.25254 0,0.16836 0,0.33672 0,0.50508 0,0.0842 0,-0.33672 0,-0.25254 0,0.16836 -0.11904,0.38603 0,0.50508 0.0842,0.0842 0.16836,-0.33672 0.25254,-0.25254 0.11905,0.11905 0,0.33672 0,0.50508 0,0.0842 0,-0.33672 0,-0.25254 0,0.25254 0,0.50507 0,0.75761 0,0.0842 0,-0.33672 0,-0.25254 0,0.16836 0,0.33672 0,0.50508 0,0.0842 -0.0842,-0.25254 0,-0.25254 0.0842,0 -0.0595,0.19302 0,0.25254 0.0595,0.0595 0.25254,-0.0842 0.25254,0 0,0.0986 -0.4732,0.28442 -0.25254,0.50508 0.4209,0.42089 0.25254,-0.92598 0.25254,0.50507 0,0.0842 -0.0842,-0.25254 0,-0.25254 0.11905,0 0.25254,0.1335 0.25254,0.25254 0,0.0842 -0.19302,-0.0595 -0.25254,0 -0.0595,0.0595 0,0.16836 0,0.25254 0,0.0842 0,0.16836 0,0.25254 0,0.16836 0,0.33672 0,0.50508 0,0.0842 0,-0.33672 0,-0.25254 0,0.16836 0,0.33671 0,0.50507 0,0.0842 -0.0842,-0.25253 0,-0.25253 0.0842,0 -0.0595,0.19301 0,0.25253 0.0595,0.0595 0.21489,-0.0753 0.25254,0 0.10534,0.2107 -0.11759,0.89257 0,1.01016 0.0842,0.0842 0.25254,-0.37159 0.25254,-0.25254 0,0.18823 -0.11944,0.37197 -0.25254,0.50507 -0.0595,0.0595 0,-0.33671 0,-0.25253 0,1.65552 0,-0.89792 0,0.75761 0,0.0842 -0.0842,-0.25254 0,-0.25254 0.16836,0 -0.11905,0.38603 0,0.50508 0.0595,0.0595 0.19301,-0.0595 0.25254,0 0.0595,0.0595 0,0.16836 0,0.25254 0,1.65552 0,-0.89792 0,0.75761 0,0.0842 -0.0842,-0.25254 0,-0.25254 0.16835,0 -0.16836,0.50508 0,0.50508 0.11904,0 0.25253,-0.37159 0.25253,-0.25254 0,0.18823 -0.19301,0.32651 -0.25253,0.50508 -0.0475,0.14248 0,0.59167 0,0.75761 0,0.4209 0,0.8418 0,1.26269 0,0.0842 0,-0.33671 0,-0.25254 0,0.16836 0,0.33672 0,0.50508 0,0.0842 0,-0.33672 0,-0.25254 0,0.16836 0,0.33672 0,0.50508 0,0.0842 0,-0.33672 0,-0.25254 0,1.65553 0,-0.89791 0,0.75762 0,0.0842 0,-0.33672 0,-0.25254 0,0.16836 0,0.33671 0,0.50507 0,0.0842 0,-0.33671 0,-0.25253 0,0.16835 0,0.33671 0,0.50507 0,0.0842 0.0595,-0.19301 0,-0.25254 -0.0595,-0.0595 -0.2149,-0.0753 -0.25254,0 -0.0753,0.15059 0.11905,0.38603 0,0.50508 -0.0842,0.0842 -0.25254,-0.13349 -0.25254,-0.25254 0,-0.0842 0.21489,-0.0753 0.25254,0 0.0753,0.15059 0,0.33672 0,0.50508 0,0.0842 0,-0.33672 0,-0.25254 0,0.16836 0,0.33672 0,0.50508 0,0.0842 0.0842,-0.25254 0,-0.25254 -0.5255,0 -0.10162,0.35415 -0.25254,0.50507 -0.0595,0.0595 -0.25254,-0.0842 -0.25254,0 0,0.0986 0.4732,0.28442 0.25254,0.50508 -0.0595,0.0595 -0.19301,-0.0595 -0.25254,0 -0.0595,0.0595 0.0266,0.17268 0,0.25254 -0.0595,0.17857 -0.25254,0.31684 -0.25254,0.50507 0,0.11905 0.16836,-0.33671 0.25254,-0.25253 0.11905,0.11904 0,0.33671 0,0.50507 0,0.0842 0,-0.33671 0,-0.25254 0,0.16836 0,0.33672 0,0.50508 0,0.0842 -0.0842,-0.25254 0,-0.25254 0.0842,0 0,0.16836 0,0.25254 0,0.16836 0,0.33672 0,0.50508 0,0.50507 0,1.01015 0,1.51523 0,0.0842 0,-0.33672 0,-0.25254 0,2.7766 0,5.21569 0,7.82868 0,0.0842 0.0842,-0.25254 0,-0.25254 -0.11905,0 -0.1993,0.14606 -0.25254,0.25254 -0.0376,0.0753 0,0.16836 0,0.25254 0,0.16836 0,0.33672 0,0.50507 0,0.0842 -0.0842,-0.25253 0,-0.25253 0.0842,0 0,0.16835 0,0.25253 0,0.0842 0,0.16836 0,0.25254 0,0.0842 0.0595,0.19302 0,0.25254 -0.0595,0.0595 -0.25253,-0.0842 -0.25253,0 0,0.11905 0.19929,0.14606 0.25253,0.25254 0.0377,0.0753 0,0.16836 0,0.25254 0,0.0842 0.0595,0.19301 0,0.25253 -0.0595,0.0595 -0.21489,-0.0753 -0.25253,0 -0.0753,0.15059 0,0.33672 0,0.50508 0,0.26017 0.0373,1.69323 0,1.76777 -0.0532,0.10648 -0.25254,0.13349 -0.25254,0.25254 0,0.0842 0.19301,-0.0595 0.25254,0 0.0595,0.0595 0,0.16835 0,0.25253 0,0.25254 0,0.50508 0,0.75762 0,0.0842 0,-0.33672 0,-0.25254 0,1.71695 0,5.07174 0,7.57614 0,1.58356 0,2.37988 0,3.283 0,0.179 -0.0326,1.44994 0,1.51523 0.0532,0.10648 0.19929,0.14606 0.25253,0.25254 0.0753,0.15058 -0.0753,0.35449 0,0.50507 0.0532,0.10648 0.25254,0.13349 0.25254,0.25254 0,0.0842 -0.19301,-0.0595 -0.25254,0 -0.0595,0.0595 0.0842,0.25254 0,0.25254 -0.0842,0 -0.0842,-0.25254 0,-0.25254 0.0443,0 -0.046,0.9182 0,1.01015 0.0532,0.10648 0.13349,0.25254 0.25254,0.25254 0.11905,0 0.25254,-0.37158 0.25254,-0.25254 0,0.18824 -0.25254,0.31685 -0.25254,0.50508 0,0.11905 0.14606,0.1993 0.25254,0.25254 0.0753,0.0376 0.25254,-0.0842 0.25254,0 0,0.11905 -0.1993,0.14606 -0.25254,0.25254 -0.0376,0.0753 0,0.16836 0,0.25253 0,0.15093 -0.0595,0.50508 0.25254,0.50508 0.0842,0 0,-0.33672 0,-0.25254 0,0.58926 0,1.17851 0,1.76777 0,0.95403 0,-1.12239 0,0.50508 0,0.0842 -0.0842,-0.25254 0,-0.25254 0.0842,0 0,0.16836 0,0.25254 0,0.0842 0,0.16836 0,0.25253 0,0.0842 0,0.16836 0,0.25254 0,0.0842 0.0842,0.25254 0,0.25254 -0.0842,0 0,-0.33672 0,-0.25254 0,0.16836 -0.0753,0.35449 0,0.50508 0.0377,0.0753 0.25254,-0.0842 0.25254,0 0,0.11905 -0.1993,0.14606 -0.25254,0.25254 -0.0376,0.0753 0,0.16836 0,0.25254 0,0.0842 0,0.16835 0,0.25253 0,0.0842 0.0842,0.25254 0,0.25254 -0.0842,0 -0.0595,-0.19301 0,-0.25254 0.0595,-0.0595 0.19301,-0.0595 0.25254,0 0.008,0.008 0,0.69637 0,0.75762 0,0.25254 0,0.50507 0,0.75761 0,0.0842 -0.0595,0.19302 0,0.25254 0.0595,0.0595 0.25253,-0.0842 0.25253,0 0,0.36326 -0.60914,0.75761 -0.25253,0.75761 0.11904,0 0.16835,-0.33671 0.25253,-0.25253 0.0602,0.0602 0,0.84698 0,1.01015 0,0.0842 -0.0595,0.19301 0,0.25254 0.0595,0.0595 0.25254,-0.0842 0.25254,0 0,0.83756 -0.4732,0 -0.25254,0 0.0842,0 0,0.16836 0,0.25254 0,0.0842 0,0.16835 0,0.25253 0,0.0842 0,0.16836 0,0.25254 0,0.0842 0.0842,0.25254 0,0.25254 -0.0842,0 0,-0.33672 0,-0.25254 0,0.16836 0,0.33672 0,0.50508 0,0.0842 -0.0842,-0.25254 0,-0.25254 0.11905,0 0.1993,0.14606 0.25254,0.25254 0.0332,0.0664 0,0.87809 0,1.01015 0,0.95403 0,-1.12239 0,0.50508 0,0.0842 -0.0842,-0.25254 0,-0.25254 0.11905,0 0.25254,0.13349 0.25254,0.25254 0,0.11904 -0.13349,0.25253 -0.25254,0.25253 -0.0842,0 0,-0.33671 0,-0.25253 0,0.16836 0,0.33671 0,0.50507 0,0.0842 -0.0842,-0.25254 0,-0.25254 0.0842,0 0,0.16836 0,0.25254 0,0.0842 0.0842,0.25254 0,0.25254 -0.0842,0 0,-0.33672 0,-0.25254 0,0.50508 0,1.01016 0,1.51523 0,0.0842 0.0842,0.25254 0,0.25254 -0.0842,0 0,-0.33672 0,-0.25254 0,1.37449 -0.19947,-0.59842 0.25254,0.75762 0.0532,0.15972 -0.11905,0.38602 0,0.50507 0.0595,0.0595 0.25254,-0.0842 0.25254,0 0,0.11905 -0.13349,0.25254 -0.25254,0.25254 -0.0842,0 0,-0.33672 0,-0.25254 0,0.16836 0,0.33672 0,0.50508 0,0.0842 -0.0842,-0.25254 0,-0.25254 0.0842,0 0,0.16836 0,0.25254 0,0.0842 0,0.16836 0,0.25254 0,0.0842 0.0842,0.25253 0,0.25253 -0.0842,0 -0.0595,-0.31206 0,-0.25253 0.1331,0.1331 0.11944,0.37197 0.25254,0.50507 0.0595,0.0595 -0.0595,-0.31206 0,-0.25254 0.1331,0.1331 0.25254,0.31685 0.25254,0.50508 0,0.11905 -0.13349,-0.25254 -0.25254,-0.25254 -0.0842,0 0,0.16836 0,0.25254 0,0.16836 0,0.33672 0,0.50508 0,0.0842 0,0.16836 0,0.25254 0,0.0842 0.0842,0.25253 0,0.25253 -0.0842,0 0,-0.33671 0,-0.25253 0,0.16835 0,0.33671 0,0.50507 0,0.0842 0.0842,0.25254 0,0.25254 -0.0842,0 -0.0842,-0.25254 0,-0.25254 0.0842,0 0,0.16836 0,0.25254 0,0.0842 0.0842,0.25254 0,0.25254 -0.0842,0 0,-0.33672 0,-0.25254 0,0.16836 0,0.33672 0,0.50508 0,0.0842 -0.0842,-0.25254 0,-0.25254 0.0842,0 0,0.16836 0,0.25254 0,0.0842 0,0.16836 0,0.25253 0,0.16836 0,0.33672 0,0.50508 0,0.0842 0.0842,0.25254 0,0.25254 -0.0842,0 0,-0.33672 0,-0.25254 0,0.16836 0,0.33672 0,0.50508 0,0.0842 0,-0.33672 0,-0.25254 0,0.16836 0,0.33672 0,0.50508 0,0.0842 0,-0.33672 0,-0.25254 0,1.14962 0.11905,0.0144 -0.25254,0.75761 -0.0753,0.15059 0.16836,0.50508 0,0.50508 -0.0842,0 0,-0.33672 0,-0.25254 0,1.62747 0,-0.44896 0,0.50508 0,0.0842 0,0.16835 0,0.25253 0,0.0842 0.0842,0.25254 0,0.25254 -0.0842,0 -0.0842,-0.25254 0,-0.25254 0.0842,0 0,0.16836 0,0.25254 0,0.0842 0,0.16836 0,0.25254 0,0.0842 0.0842,0.25254 0,0.25254 -0.0842,0 0,-0.33672 0,-0.25254 0,0.16836 0,0.33672 0,0.50508 0,0.0842 0,-0.33672 0,-0.25254 0,0.16836 0,0.33672 0,0.50507 0,0.0842 0,-0.33671 0,-0.25253 0,1.65552 0,-0.89792 0,0.75761 0,0.0842 0,-0.33672 0,-0.25254 0,0.58926 0,1.17851 0,1.76777 0,0.25254 0,0.50508 0,0.75761 0,0.0842 -0.0842,0.25254 0,0.25254 0.11905,0 0.16836,-0.33672 0.25254,-0.25254 0.16836,1.43105 -0.0842,0.25254 0,0.25254 0.0842,0 0,0.16836 0,0.25254 0,0.0842 0.0842,0.25254 0,0.25254 -0.0842,0 -0.0842,-0.25254 0,-0.25254 0.0842,0 0,0.16836 0,0.25254 0,0.25254 0,0.50507 0,0.75761 0,0.90614 0,1.0911 0,1.51523 0,0.0842 0,-0.33672 0,-0.25254 0,1.26303 0,0.34297 0,1.26269 0,0.0842 0,-0.33671 0,-0.25253 0,0.16835 0,0.33671 0,0.50507 0,0.0842 0.0842,0.25254 0,0.25254 -0.0842,0 0,-0.33672 0,-0.25254 0,0.16836 0,0.33672 0,0.50508 0,0.0842 0,-0.33672 0,-0.25254 0,0.16836 0,0.33672 0,0.50508 0,0.0842 0.0842,0.25254 0,0.25254 -0.0842,0 0,-0.33672 0,-0.25254 0,0.42089 0,0.84179 0,1.26269 0,0.75761 0,1.51523 0,2.27284 0,0.33672 0,0.67344 0,1.01015 0,0.0842 0.0842,0.25254 0,0.25254 -0.0842,0 0,-0.33672 0,-0.25254 0,0.16836 0,0.33672 0,0.50508 0,0.0842 -0.0842,-0.25254 0,-0.25254 0.0842,0 0,0.16836 0,0.25254 0,0.0842 0.0842,0.25254 0,0.25254 -0.0842,0 -0.0842,-0.25254 0,-0.25254 0.0842,0 0,0.16836 0,0.25254 0,0.0842 0.0842,0.25254 0,0.25254 -0.0842,0 -0.0842,-0.25254 0,-0.25254 0.0842,0 0,0.16836 0,0.25254 0,0.0842 0.0842,0.25253 0,0.25253 -0.0842,0 -0.0842,-0.25253 0,-0.25253 0.0842,0 0,0.16835 0,0.25253 0,0.0842 0.0842,0.25254 0,0.25254 -0.0842,0 0,-0.33672 0,-0.25254 0,0.25254 0,0.50508 0,0.75762 0,0.25254 0.11294,0.53174 0,0.75761 -0.0532,0.10648 -0.16836,-0.33671 -0.25254,-0.25254 -0.25254,0.25254 0.12627,0.50508 0,0.75762 -0.0532,0.10648 -0.16836,0.33672 -0.25254,0.25254 -0.0842,-0.0842 0.16836,-0.33672 0.25254,-0.25254 0.11905,0.11905 0,0.33672 0,0.50508 0,0.0842 0.0842,0.25253 0,0.25253 -0.11905,0 -0.16836,-0.33671 -0.25254,-0.25253 -0.11905,0.11904 0,0.33671 0,0.50507 0,0.0842 0,-0.33672 0,-0.25254 0,0.16836 0,0.33672 0,0.50508 0,0.0842 -0.0842,-0.25254 0,-0.25254 0.0842,0 0,0.16836 0,0.25254 0,0.0842 0.0842,0.25254 0,0.25254 -0.0842,0 0.0595,-0.31206 0,-0.25254 -0.1331,0.1331 -0.25254,0.31685 -0.25254,0.50508 0,0.0842 0.19302,-0.0595 0.25254,0 0.0595,0.0595 0,0.16835 0,0.25253 0,0.0842 0.0842,0.25254 0,0.25254 -0.11905,0 -0.13349,-0.25254 -0.25254,-0.25254 -0.16835,0 0.16836,0.50508 0,0.50508 -0.0842,0 0,-0.33672 0,-0.25254 0,0.16836 0,0.33672 0,0.50508 0,0.0842 0,-0.33672 0,-0.25254 0,0.16836 0,0.33672 0,0.50508 0,0.0842 0,-0.33672 0,-0.25254 0,1.65553 0,-0.89791 0,0.75761 0,0.0842 0,-0.33671 0,-0.25254 0,0.8418 0,1.68359 0,2.52539 0,1.65552 0,-0.89792 0,0.75761 0,0.0842 -0.0842,-0.25254 0,-0.25254 0.0842,0 0,0.16836 0,0.25254 0,0.0842 0,0.16836 0,0.25254 0,0.0842 0,0.16836 0,0.25254 0,0.0842 0.0842,0.25254 0,0.25254 -0.0842,0 -0.0595,-0.31207 0,-0.25254 0.1331,0.1331 0.11944,0.37197 0.25254,0.50507 0.0595,0.0595 0,-0.33671 0,-0.25253 0,0.16835 0,0.33671 0,0.50507 0,0.0842 0,-0.33672 0,-0.25254 0,0.25254 0,0.50508 0,0.75762 0,0.97838 0,1.30665 0,1.76776 0,0.0842 -0.0842,-0.25253 0,-0.25253 0.0842,0 0,0.16836 0,0.25253 0,0.0842 0,0.16836 0,0.25254 0,0.0842 0.0842,0.25254 0,0.25254 -0.0842,0 0,-0.33672 0,-0.25254 0,0.16836 0,0.33672 0,0.50508 0,0.0842 0,-0.33672 0,-0.25254 0,1.65553 0,-0.89791 0,0.75762 0,0.0842 -0.0842,-0.25254 0,-0.25254 0.0842,0 0,0.16836 0,0.25254 0,0.0842 0.0842,0.25253 0,0.25253 -0.0842,0 -0.0842,-0.25253 0,-0.25253 0.0842,0 -0.0376,0.17724 0,0.25253 0.0532,0.10648 0.14606,0.1993 0.25254,0.25254 0.20733,0.10367 0.81217,-0.30709 0,0.50508 -0.0595,0.0595 0,-0.33672 0,-0.25254 0,0.16836 0,0.33672 0,0.50508 0,0.0842 -0.0595,-0.31207 0,-0.25254 0.1331,0.1331 0.11944,0.37197 0.25254,0.50507 0.0595,0.0595 -0.0842,-0.25253 0,-0.25253 0.0842,0 0,0.16835 0,0.25253 0,0.0842 0.0842,0.25254 0,0.25254 -0.12978,0 0.25254,-1.31342 0.25254,0.25254 0,0.11905 -0.16836,-0.33672 -0.25254,-0.25254 -0.11905,0.11905 0,0.33672 0,0.50508 0,0.0842 -0.0595,-0.31206 0,-0.25254 0.1331,0.1331 0.11944,0.37198 0.25254,0.50508 0.0595,0.0595 -0.0842,-0.25254 0,-0.25254 0.0842,0 -0.0377,0.17724 0,0.25254 0.0532,0.10648 0.33671,0.16836 0.25253,0.25253 -0.0842,0.0842 -0.13349,-0.25253 -0.25253,-0.25253 -0.0842,0 0,0.16836 0,0.25253 0,0.0842 -0.0842,0.25254 0,0.25254 0.11904,0 0.13349,-0.25254 0.25253,-0.25254 0.0842,0 -0.0377,0.17725 0,0.25254 0.0532,0.10648 0.33672,0.16836 0.25254,0.25254 -0.0842,0.0842 -0.13349,-0.25254 -0.25254,-0.25254 -0.0842,0 -0.0595,0.19302 0,0.25254 0.1331,0.1331 0.31685,0.25254 0.50508,0.25254 0.11905,0 -0.16836,-0.33672 -0.25254,-0.25254 -0.11904,0.11905 0,0.33672 0,0.50508 0,0.0842 -0.0842,-0.25254 0,-0.25254 0.0842,0 -0.0753,0.21489 0,0.25254 0.15059,0.0753 0.33672,0 0.50508,0 0.0842,0 -0.21489,-0.0753 -0.25254,0 -0.0753,0.15058 0,0.33671 0,0.50507 0,0.0842 0,-0.33671 0,-0.25253 0,1.67512 -0.11905,-0.11905 0.25254,0.25253 0.11905,0.11905 0,0.33672 0,0.50508 0,0.0842 -0.0595,-0.31206 0,-0.25254 0.1331,0.1331 0.25254,0.31685 0.25254,0.50508 0,0.11905 -0.16836,-0.33672 -0.25254,-0.25254 -0.11905,0.11905 0,0.33672 0,0.50508 0,0.0842 -0.0842,-0.25254 0,-0.25254 0.18823,0 0.44077,0.50507 0.25254,0.50507 -0.33672,0 0.25254,-0.58925 0.25254,-0.25253 0,0.11904 -0.1993,0.14605 -0.25254,0.25253 -0.0376,0.0753 0.0842,0.25254 0,0.25254 -0.0842,0 -0.0842,-0.25254 0,-0.25254 0.0842,0 0,0.16836 0,0.25254 0,0.0842 0.0842,0.25254 0,0.25254 -0.0842,0 0,-0.33672 0,-0.25254 0,1.65553 0,-0.89791 0,0.75762 0,0.0697 -0.0595,-0.93619 0.25254,0 0.0532,0.15972 0,0.33671 0,0.50507 0,0.0842 -0.0595,-0.19301 0,-0.25254 0.0595,-0.0595 0.25253,-0.0842 0.25253,0 0,0.11905 -0.19929,0.14606 -0.25253,0.25254 -0.0377,0.0753 0.0842,0.25254 0,0.25254 -0.0842,0 -0.0842,-0.25254 0,-0.25254 0.0842,0 0,0.16836 0,0.25254 0,0.0842 0.0842,0.25254 0,0.25254 -0.0842,0 0,-0.33672 0,-0.25254 0,0.16836 0,0.33672 0,0.50508 0,0.0842 0,-0.33672 0,-0.25254 0,1.65553 0,-0.89791 0,0.75761 0,0.0842 -0.0595,-0.19301 0,-0.25253 0.0595,-0.0595 0.21489,-0.0753 0.25253,0 0.0753,0.15058 0,0.33671 0,0.50507 0,0.0842 -0.0595,-0.19301 0,-0.25254 0.0595,-0.0595 0.25254,-0.0842 0.25254,0 0,0.0842 -0.19301,-0.0595 -0.25254,0 -0.0595,0.0595 0,0.16836 0,0.25254 0,0.0842 -0.0842,0.25254 0,0.25254 0.18823,0 0.37198,-0.11944 0.50508,-0.25254 0.0595,-0.0595 -0.33672,0 -0.25254,0 1.65553,0 -0.89791,0 0.75762,0 0.0842,0 -0.33672,0 -0.25254,0 0.16836,0 0.38603,0.11905 0.50507,0 0.0842,-0.0842 -0.30577,-0.14606 -0.25253,-0.25254 0.45776,-0.91552 0.73544,0 0.25253,0 -0.0842,0 -0.0595,-0.19301 0,-0.25253 0.1331,-0.1331 0.31685,-0.25254 0.50508,-0.25254 0.11905,0 -0.13349,0.25254 -0.25254,0.25254 -0.18823,0 0.0643,-0.50508 0.25254,-0.50508 0.11905,0 0.33672,0.16836 0.25254,0.25254 -0.0842,0.0842 -0.1993,-0.14606 -0.25254,-0.25254 -0.0376,-0.0753 0,-0.16836 0,-0.25254 0,-0.0842 0,-0.16836 0,-0.25254 0,-0.0842 -0.0842,-0.25254 0,-0.25254 0.0842,0 0.0842,0.25254 0,0.25254 -0.0842,0 -0.0376,-0.17724 0,-0.25254 0.0532,-0.10647 0.1993,-0.14605 0.25254,-0.25253 0.0376,-0.0753 -0.0595,-0.19302 0,-0.25254 0.0595,-0.0595 0.25254,0.0842 0.25254,0 0,-0.11905 -0.1993,-0.14606 -0.25254,-0.25254 -0.0376,-0.0753 0,-0.16836 0,-0.25254 0,-0.0842 -0.0842,-0.25254 0,-0.25254 0.0842,0 0,0.33672 0,0.25254 0,-0.42089 0,-0.84179 0,-1.26269 0,-0.0842 0,-0.16836 0,-0.25254 0,-0.0842 -0.0376,-0.17724 0,-0.25253 0.0702,-0.14032 0.50508,-0.42365 0.50508,-0.50508 0,-0.11905 -0.1993,-0.14606 -0.25254,-0.25254 -0.0376,-0.0753 0,-0.16836 0,-0.25254 0,-0.0842 -0.0595,-0.19301 0,-0.25254 0.15092,-0.15092 0.50507,0.27297 0.50507,-0.25253 0,-0.0842 -0.19301,0.0595 -0.25253,0 -0.008,-0.008 0,-0.69637 0,-0.75762 0,-0.0842 -0.0842,-0.25254 0,-0.25254 0.0842,0 -0.0595,0.31207 0,0.25254 0.13309,-0.1331 0.11943,-0.37197 0.25253,-0.50507 0.0595,-0.0595 0,0.33671 0,0.25253 0,-0.16835 -0.0753,-0.35449 0,-0.50507 0.0376,-0.0753 0.25254,-0.0842 0.25254,0 0,0.0842 -0.19301,0.0595 -0.25254,0 -0.008,-0.008 0,-0.69637 0,-0.75762 0,-0.0842 -0.0595,-0.19301 0,-0.25253 0.0595,-0.0595 0.19302,0.0595 0.25254,0 0.0595,-0.0595 -0.0842,-0.25254 0,-0.25254 0.0842,0 -0.0842,0.25254 0,0.25254 0.11905,0 0.25254,-0.1335 0.25254,-0.25254 0,-0.11905 -0.1993,-0.14606 -0.25254,-0.25254 -0.0384,-0.0769 0,-0.64388 0,-0.75762 0,-0.0842 -0.0842,-0.25253 0,-0.25253 0.0842,0 0,0.33671 0,0.25253 0,-0.16835 -0.0753,-0.35449 0,-0.50507 0.0377,-0.0753 0.19302,0.0595 0.25254,0 0.0102,-0.0102 0,-0.91741 0,-1.01015 0,-0.0842 -0.0376,-0.17725 0,-0.25254 0.0532,-0.10648 0.25254,-0.13349 0.25254,-0.25254 0,-0.0842 -0.19302,0.0595 -0.25254,0 -0.0595,-0.0595 0,-0.16836 0,-0.25254 0,-0.0842 0,-0.16836 0,-0.25254 0,-0.75761 0,-1.51523 0,-2.27284 0,-1.40703 0,-2.13168 0,-3.03046 0,-0.11907 0.0114,-1.25124 0,-1.26269 -0.0595,-0.0595 -0.19301,0.0595 -0.25254,0 -0.0595,-0.0595 0,-0.16836 0,-0.25254 0,-0.50507 0,-1.01015 0,-1.51523 0,-0.0842 0,0.33672 0,0.25254 0,-0.16836 0,-0.33671 0,-0.50507 0,-0.0842 0,0.33671 0,0.25253 0,-0.16835 0,-0.33671 0,-0.50507 0,-0.0842 0,0.33672 0,0.25254 0,-0.16836 0,-0.33672 0,-0.50508 0,-0.0842 0,0.33672 0,0.25254 0,-0.16836 0,-0.33672 0,-0.50508 0,-0.0842 0,0.33672 0,0.25254 0,-0.75617 0,-0.63937 0,-1.26269 0,-0.25254 0,-0.50508 0,-0.75761 0,-0.0842 0,0.33671 0,0.25253 0,-1.26302 0,-0.34296 0,-1.26269 0,-0.0842 0,0.33672 0,0.25254 0,-0.16836 0,-0.33672 0,-0.50508 0,-0.0842 0,0.33672 0,0.25254 0,-0.55474 0,-0.96049 0,-1.51523 0,-0.0842 0.0842,0.25254 0,0.25254 -0.0842,0 0.0595,-0.19301 0,-0.25254 -0.0595,-0.0595 -0.25254,0.0842 -0.25254,0 0,-0.11904 0.1993,-0.14605 0.25254,-0.25253 0.0753,-0.15059 -0.16836,-0.50508 0,-0.50508 0.0842,0 0,0.33672 0,0.25254 0,-0.16836 0,-0.33672 0,-0.50508 0,-0.0842 0.0842,0.25254 0,0.25254 -0.0842,0 0,-0.16836 0,-0.25254 0,-0.4209 0,-0.84179 0,-1.26269 0,-0.57054 0.0377,0.11294 -0.25254,-0.75761 -0.0266,-0.0799 0,-0.16836 0,-0.25254 0,-0.16836 0,-0.33672 0,-0.50508 0,-0.0842 0,0.33672 0,0.25254 0,-0.16836 0,-0.33672 0,-0.50508 0,-0.0842 0,0.33672 0,0.25254 0,-0.16836 0,-0.33672 0,-0.50507 0,-0.0842 0.0842,0.25253 0,0.25253 -0.0842,0 0,-0.16836 0,-0.25253 0,-0.16836 0,-0.33672 0,-0.50508 0,-0.0842 0,0.33672 0,0.25254 0,-0.16836 0,-0.33672 0,-0.50508 0,-0.0842 -0.0842,-0.25254 0,-0.25254 0.0842,0 0.0842,0.25254 0,0.25254 -0.0842,0 0,-0.16836 0,-0.25254 0,-0.0842 0,-0.16836 0,-0.25254 0,-0.0842 -0.0842,-0.25253 0,-0.25253 0.0842,0 0.0842,0.25253 0,0.25253 -0.0842,0 0,-0.16835 0,-0.25253 0,-0.0842 -0.0842,-0.25254 0,-0.25254 0.0842,0 0.0842,0.25254 0,0.25254 -0.0842,0 0,-0.16836 0,-0.25254 0,-0.0842 -0.0842,-0.25254 0,-0.25254 0.0842,0 0.0842,0.25254 0,0.25254 -0.0842,0 0,-0.16836 0,-0.25254 0,-0.0842 -0.0842,-0.25254 0,-0.25254 0.0842,0 0,0.33672 0,0.25254 0,-0.16836 0,-0.33672 0,-0.50508 0,-0.0842 0,0.33672 0,0.25254 0,-1.65553 0,0.89792 0,-0.75761 0,-0.0842 0,0.33672 0,0.25254 0,-3.43979 0,-5.02372 0,-6.566 0,-0.25253 0,-0.50507 0,-0.75761 0,-0.0842 -0.0842,-0.25254 0,-0.25254 0.0842,0 0,0.33672 0,0.25254 0,-0.25254 0,-0.50508 0,-0.75761 0,-0.0842 -0.0842,-0.25254 0,-0.25254 0.0842,0 0,0.33672 0,0.25254 0,-0.59457 0,-0.38954 0,-1.2627 0,-0.75761 0,-1.51522 0,-2.27284 0,-0.16836 0,-0.33672 0,-0.50507 0,-0.0842 -0.0842,-0.25254 0,-0.25254 0.0842,0 0,0.33671 0,0.25254 0,-0.16836 0,-0.33672 0,-0.50508 0,-0.0842 0,0.33672 0,0.25254 0,-0.06 -0.0283,-0.95355 0,-1.01016 0.0532,-0.10647 0.1993,-0.14605 0.25254,-0.25253 0.0332,-0.0664 0,-0.8781 0,-1.01016 0,-0.40577 0,-1.45924 0,-2.52538 0,-0.0842 0,-0.16836 0,-0.25254 0,-0.0842 -0.0842,-0.25253 0,-0.25253 0.0842,0 0,0.33671 0,0.25253 0,-0.16835 0,-0.33671 0,-0.50507 0,-0.0842 -0.0842,-0.25254 0,-0.25254 0.0842,0 0.0842,0.25254 0,0.25254 -0.0842,0 0,-0.16836 0,-0.25254 0,-0.0842 -0.0842,-0.25254 0,-0.25254 0.0842,0 0.0842,0.25254 0,0.25254 -0.0842,0 0,-0.16836 0,-0.25254 0,-0.33672 0,-0.67343 0,-1.01015 0,-0.0174 0,-1.09853 0,-1.26269 0,-0.0842 0.0842,0.25254 0,0.25254 -0.0842,0 0,-0.16836 0,-0.25254 0,-0.0842 0,-0.16836 0,-0.25254 0,-0.33672 0,-0.67343 0,-1.01015 0,-0.0842 0,-0.16836 0,-0.25254 0,-0.0842 -0.0595,-0.19301 0,-0.25254 0.11905,-0.11905 0.50508,0.16836 0.50508,0 0,-0.11905 -0.1993,-0.14606 -0.25254,-0.25254 -0.0376,-0.0753 0,-0.16836 0,-0.25253 0,-0.0842 -0.0595,-0.19302 0,-0.25254 0.15092,-0.15093 0.50508,0.27296 0.50508,-0.25254 0,-0.0842 -0.19302,0.0595 -0.25254,0 -0.0595,-0.0595 0,-0.16836 0,-0.25254 0,-0.0842 -0.0376,-0.17724 0,-0.25254 0.0532,-0.10648 0.14606,-0.1993 0.25254,-0.25254 0.0753,-0.0376 0.25253,0.0842 0.25253,0 0,-0.11904 -0.19929,-0.14605 -0.25253,-0.25253 -0.0376,-0.0753 0,-0.16836 0,-0.25254 0,-0.26126 -0.0595,-0.34905 0.25253,-0.50508 0.0753,-0.0376 0.25254,-0.0842 0.25254,0 0,0.0842 -0.19301,0.0595 -0.25254,0 -0.0252,-0.0252 -0.0252,-0.73236 0,-0.75761 0.67344,0 -0.0842,0.0842 0.25254,-0.25254 0.0595,-0.0595 0.25254,0.0842 0.25254,0 0,-0.11905 -0.1993,-0.14606 -0.25254,-0.25254 -0.0283,-0.0566 0,-0.95014 0,-1.01015 0,-0.0842 -0.0595,0.19301 0,0.25254 0.0595,0.0595 0.21489,0.0753 0.25254,0 0.0753,-0.15059 -0.11905,-0.38603 0,-0.50508 0.45436,-0.45435 0.27097,0.79448 0,0.25254 -0.71552,-1.43105 0.35776,-0.25254 0,-0.25254 -0.0842,0 0,-0.16836 0,-0.25254 0,-0.0842 -0.0595,-0.19301 0,-0.25254 0.0595,-0.0595 0.21489,0.0753 0.25254,0 0.0753,-0.15058 -0.11905,-0.38602 0,-0.50507 0.0842,-0.0842 0.25254,0.13349 0.25254,0.25254 0,0.0842 -0.2149,0.0753 -0.25254,0 -0.0753,-0.15059 0,-0.33672 0,-0.50508 0,-0.0842 0,0.33672 0,0.25254 0,-1.65553 0,0.89791 0,-0.75762 0,-0.0842 0,0.33672 0,0.25254 0,-0.16836 -0.11905,-0.38603 0,-0.50507 0.0842,-0.0842 0.13349,0.25253 0.25254,0.25253 0.0842,0 0,-0.16835 0,-0.25253 0,-0.25254 0,-0.50508 0,-0.75762 0,-0.0842 0,0.33672 0,0.25254 0,-0.16836 0,-0.33672 0,-0.50508 0,-0.0842 0,0.33672 0,0.25254 0,-0.16836 0,-0.33672 0,-0.50507 0,-0.0842 0,0.33671 0,0.25253 0,-0.16836 0,-0.33671 0,-0.50507 0,-0.0842 0,0.33671 0,0.25254 0,-1.40835 0,-3.70406 0,-6.06092 0,-0.0842 0,0.33672 0,0.25254 0,-0.25254 0,-0.50508 0,-0.75762 0,-0.0842 0,0.33672 0,0.25254 0,-1.27411 0,-1.02476 0,-2.52538 0,-0.0842 0,0.33672 0,0.25254 0,-0.67344 0,-1.34687 0,-2.02031 0,-1.65552 0,0.89792 0,-0.75761 0,-0.0842 0.0842,0.25254 0,0.25254 -0.16836,0 0.11904,-0.38603 0,-0.50508 -0.11905,-0.11905 -0.50508,0.16836 -0.50508,0 0,-0.11905 0.13349,-0.25254 0.25254,-0.25254 0.0842,0 0,0.33672 0,0.25254 0,-1.09433 0,-2.18866 0,-3.283 0,-0.0842 0,0.33672 0,0.25254 0,-0.16836 0,-0.33671 0,-0.50507 0,-0.0842 -0.0842,-0.25254 0,-0.25254 0.0842,0 0,0.33672 0,0.25254 0,-0.16836 0,-0.33672 0,-0.50508 0,-0.0842 -0.0842,-0.25254 0,-0.25254 0.0842,0 0.0595,0.31206 0,0.25254 -0.1331,-0.1331 -0.11944,-0.37198 -0.25254,-0.50508 -0.0595,-0.0595 0,0.33672 0,0.25254 0,-0.16836 0,-0.33672 0,-0.50507 0,-0.0842 0,0.33671 0,0.25253 0,-1.65552 0,0.89792 0,-0.75761 0,-0.0842 -0.0842,-0.25254 0,-0.25254 0.0842,0 0,0.33672 0,0.25254 0,-0.16836 0.11905,-0.38603 0,-0.50508 -0.0842,-0.0842 -0.16836,0.33672 -0.25254,0.25254 -0.0842,-0.0842 0.1993,-0.14606 0.25254,-0.25254 0.0376,-0.0753 0.0376,-0.17724 0,-0.25253 -0.41878,-0.83757 -0.17708,0 -0.25254,0 -0.0842,0 0,-0.16836 0,-0.25254 0,-0.0842 -0.0842,-0.25254 0,-0.25254 0.0842,0 0.0842,0.25254 0,0.25254 -0.0842,0 0.0376,-0.17725 0,-0.25254 -0.0532,-0.10648 -0.1993,-0.14606 -0.25254,-0.25254 -0.0376,-0.0753 0,-0.16836 0,-0.25254 0,-0.0842 -0.0842,-0.25254 0,-0.25254 0.0842,0 0,0.33672 0,0.25254 0,-0.16836 0,-0.33671 0,-0.50507 0,-0.0842 0.0842,0.25253 0,0.25253 -0.0842,0 0,-0.16835 0,-0.25253 0,-0.0842 0,-0.16836 0,-0.25254 0,-0.95403 0,1.12239 0,-0.50508 0,-0.0842 0,0.33672 0,0.25254 0,-1.75112 0,-2.13717 0,-5.3033 0,-0.25254 0,-0.50508 0,-0.75762 0,-0.0842 0.0376,-0.17724 0,-0.25253 -0.0532,-0.10648 -0.25253,-0.13349 -0.25253,-0.25254 0,-1.04502 0.77804,0.81889 0.25253,-0.75762 -0.31206,-0.93618 -0.25253,0.0697 -0.25253,0 0,-0.25253 0,-0.50507 0,-0.75761 0,-0.0842 -0.0842,-0.25254 0,-0.25254 0.0842,0 0,0.33672 0,0.25254 0,-0.16836 0,-0.33672 0,-0.50508 0,-0.0842 0.0376,-0.17724 0,-0.25253 -0.0532,-0.10648 -0.1993,-0.14606 -0.25254,-0.25254 -0.0376,-0.0753 0,-0.16836 0,-0.25254 0,-0.0842 0,-0.16836 0,-0.25254 0,-0.84179 0,0.58926 0,-0.25254 0,-0.0842 0,-0.16836 0,-0.25254 0,-0.0842 -0.0842,-0.25253 0,-0.25253 0.0842,0 0.0842,0.25253 0,0.25253 -0.0842,0 0,-0.16835 0,-0.25253 0,-0.16836 0,-0.33672 0,-0.50508 0,-0.0842 0,-0.16836 0,-0.25254 0,-0.0842 0.0595,-0.19301 0,-0.25254 -0.0595,-0.0595 -0.21489,0.0753 -0.25254,0 -0.0395,-0.079 0,-1.35874 0,-1.51522 0,-0.0842 0.0376,-0.17725 0,-0.25254 -0.0532,-0.10648 -0.25254,-0.13349 -0.25254,-0.25254 0,-0.0842 0.19302,0.0595 0.25254,0 0.0595,-0.0595 0.0595,-0.19302 0,-0.25254 -0.0595,-0.0595 -0.19301,0.0595 -0.25254,0 -0.0595,-0.0595 0,-0.16836 0,-0.25254 0,-0.0842 0,-0.16836 0,-0.25254 0,-0.75761 0,-1.51522 0,-2.27284 0,-0.0842 0,-0.16836 0,-0.25254 0,-0.0842 -0.0595,-0.19301 0,-0.25254 0.0595,-0.0595 0.19302,0.0595 0.25254,0 0.0595,-0.0595 0,-0.16835 0,-0.25253 0,-0.0842 0,-0.16836 0,-0.25254 0,-0.67344 0,-1.34687 0,-2.02031 0,-0.11373 -0.0384,-0.68075 0,-0.75761 0.0532,-0.10648 0.1993,-0.14606 0.25254,-0.25254 0.0501,-0.10013 -0.0516,-0.70599 0,-0.75761 0.31099,-0.311 0.50507,0.77069 0.50507,-0.50508 0,-0.0842 -0.19301,0.0595 -0.25253,0 -0.0595,-0.0595 0,-0.16836 0,-0.25254 0,-0.0842 -0.0595,-0.19301 0,-0.25254 0.0595,-0.0595 0.19301,0.0595 0.25253,0 0.11905,-0.11904 -0.11904,-0.38602 0,-0.50507 0.0595,-0.0595 0.19302,0.0595 0.25254,0 0.0595,-0.0595 0,-0.16836 0,-0.25254 0.0842,0 0.19302,0.0595 0.25254,0 0.11905,-0.11905 -0.11905,-0.38603 0,-0.50508 0.0595,-0.0595 0.21489,0.0753 0.25254,0 0.11905,-1.55009 -0.0595,-0.19301 0,-0.25253 0.1331,-0.1331 0.11944,-0.37198 0.25254,-0.50508 0.0595,-0.0595 -0.0595,0.31206 0,0.25254 0.1331,-0.1331 0.0842,-0.4209 0.25253,-0.50508 0.10648,-0.0532 0.25254,0.13349 0.25254,0.25254 0,0.0842 -0.21489,0.0753 -0.25254,0 -0.0753,-0.15059 0,-0.33672 0,-0.50508 0,-0.0842 -0.0595,0.19302 0,0.25254 0.11905,0.11905 0.50508,-0.16836 0.50508,0 0,0.0842 -0.21489,0.0753 -0.25254,0 -0.0753,-0.15058 0,-0.33672 0,-0.50508 0,-0.16835 -0.0842,1.43105 0.50508,0.25254 0.0842,-0.16836 -0.11944,-0.37197 -0.25254,-0.50507 -0.0561,-0.0561 0.0281,1.20657 0.50508,0.25253 0.0842,-0.16835 -0.11944,-0.37197 -0.25254,-0.50507 -0.0595,-0.0595 -0.0595,0.31206 0,0.25254 0.1331,-0.1331 0.0842,-0.4209 0.25254,-0.50508 0.10648,-0.0532 0.25254,0.13349 0.25254,0.25254 0,0.0842 -0.2149,0.0753 -0.25254,0 -0.0753,-0.15059 0,-0.33672 0,-0.50508 0,-0.0842 -0.0595,0.19302 0,0.25254 0.11904,0.11905 0.50507,-0.16836 0.50507,0 0,0.0842 -0.21489,0.0753 -0.25253,0 -0.0753,-0.15058 0,-0.33672 0,-0.50508 0,-0.0842 0,0.33672 0,0.25254 0,-0.40008 -0.15059,-0.9082 0.50507,-0.25254 0.0595,0.0595 -0.21489,0.0753 -0.25254,0 -0.0753,-0.15058 -0.11904,-0.38602 0,-0.50507 0.0842,-0.0842 0.13349,0.25254 0.25254,0.25254 0.16836,0 -0.16836,-0.50508 0,-0.50508 0.0842,0 -0.0842,0.25254 0,0.25254 0.11905,0 0.1993,-0.14606 0.25254,-0.25254 0.0376,-0.0753 -0.0842,-0.25254 0,-0.25254 0.0842,0 0.0842,0.25254 0,0.25254 -0.0842,0 0,-0.16836 0,-0.25254 0,-0.0842 -0.0842,-0.25254 0,-0.25254 0.11905,0 0.16836,0.33672 0.25254,0.25254 0.11905,-0.11905 0,-0.33672 0,-0.50507 0,-0.0842 0.0842,0.25253 0,0.25253 -0.0842,0 -0.0595,-0.19301 0,-0.25253 0.0595,-0.0595 0.21489,0.0753 0.25254,0 0.0753,-0.15059 0,-0.33672 0,-0.50508 0,-0.0842 0,0.33672 0,0.25254 0,-0.16836 0,-0.33672 0,-0.50508 0,-0.0842 -0.0842,0.25254 0,0.25254 0.11904,0 0.14605,-0.1993 0.25253,-0.25254 0.0753,-0.0376 0.25254,0.0842 0.25254,0 0,-0.18823 -0.11944,-0.37198 -0.25254,-0.50508 -0.0595,-0.0595 -0.0842,0.25254 0,0.25254 0.31207,0 0.25254,-0.35415 0.25254,-0.50507 0,-0.40009 -0.0753,-0.68233 0.25254,-1.01016 0.0595,-0.0595 0,0.33672 0,0.25254 0,-0.16836 0,-0.33672 0,-0.50507 0,-0.0842 0,0.33671 0,0.25253 0,-0.16836 0,-0.33671 0,-0.50507 0,-0.0842 -0.0595,0.31206 0,0.25254 0.1331,-0.1331 0.11944,-0.37198 0.25254,-0.50508 0.0595,-0.0595 0.0842,0.25254 0,0.25254 -0.0842,0 0,-0.16836 0,-0.25254 0,-0.16317 0.0602,-0.94996 0,-1.01015 -0.0842,-0.0842 -0.13349,0.25253 -0.25254,0.25253 -0.0842,0 0,-0.16835 0,-0.25253 0,-0.0842 0,-0.16836 0,-0.25254 0,-0.0842 -0.0842,-0.25254 0,-0.25254 0.0842,0 0,0.33672 0,0.25254 0,-0.16836 0,-0.33672 0,-0.50508 0,-0.0842 0,0.33672 0,0.25254 0,-1.65553 0,0.89791 0,-0.75761 0,-0.0842 0,0.33671 0,0.25253 0,-0.16835 0,-0.33671 0,-0.50507 0,-0.0842 0.0842,0.25254 0,0.25254 -0.0842,0 0.0376,-0.17725 0,-0.25254 -0.0532,-0.10648 -0.13349,-0.25254 -0.25254,-0.25254 -0.0842,0 0,0.33672 0,0.25254 0,-0.16836 0,-0.33672 0,-0.50508 0,-0.0842 0.0842,0.25254 0,0.25254 -0.0842,0 0,-0.16836 0,-0.25254 0,-0.0842 -0.0842,-0.25254 0,-0.25254 0.0842,0 0,0.33672 0,0.25254 0,-1.65553 0,0.89791 0,-0.75761 0,-0.0842 0.0595,0.31206 0,0.25254 -0.1331,-0.1331 -0.25254,-0.31685 -0.25254,-0.50508 0,-0.11905 0.16836,0.33672 0.25254,0.25254 0.11905,-0.11905 0.11905,-0.38603 0,-0.50508 -0.0842,-0.0842 -0.16836,0.33672 -0.25254,0.25254 -0.11904,-0.11905 0,-0.33672 0,-0.50508 0,-0.0842 0,-0.16836 0,-0.25254 0,-0.0842 -0.0842,-0.25253 0,-0.25253 0.0842,0 0.0595,0.31206 0,0.25253 -0.13309,-0.13309 -0.11943,-0.37197 -0.25253,-0.50507 -0.0595,-0.0595 0,0.33672 0,0.25254 0,-0.16836 0,-0.33672 0,-0.50508 0,-0.0842 0,0.33672 0,0.25254 0,-1.65553 0,0.89791 0,-0.75762 0,-0.0842 0.0842,0.25254 0,0.25254 -0.0842,0 0,-0.16836 0,-0.25254 0,-0.0842 -0.0842,-0.25253 0,-0.25253 0.0842,0 0,0.33671 0,0.25253 0,-1.65552 0,0.89792 0,-0.75761 0,-0.0842 0.0842,0.25254 0,0.25254 -0.0842,0 0,-0.16836 0,-0.25254 0,-0.0842 -0.0842,-0.25254 0,-0.25254 0.0842,0 0.0595,0.31206 0,0.25254 -0.1331,-0.1331 -0.11944,-0.37198 -0.25254,-0.50508 -0.0595,-0.0595 0,0.33672 0,0.25254 0,-0.16836 0,-0.33672 0,-0.50507 0,-0.0842 0.0842,0.25253 0,0.25253 -0.0842,0 0,-0.16836 0,-0.25253 0,-0.0842 -0.0842,-0.25254 0,-0.25254 0.0842,0 0.0842,0.25254 0,0.25254 -0.0842,0 0.0376,-0.17725 0,-0.25254 -0.0532,-0.10648 -0.13349,-0.25254 -0.25254,-0.25254 -0.0842,0 0.0842,0.25254 0,0.25254 -0.0842,0 0,-0.16836 0,-0.25254 0,-0.0842 0,-0.16836 0,-0.25254 0,-0.0842 0.0842,-0.25254 0,-0.25254 -0.11905,0 -0.13349,0.25254 -0.25254,0.25254 -0.0297,0 0.0371,-0.72048 0,-0.75761 -0.0595,-0.0595 -0.19301,0.0595 -0.25254,0 -0.0595,-0.0595 0.0595,-0.19302 0,-0.25254 -0.0595,-0.0595 -0.25253,0.0842 -0.25253,0 0,-0.0842 0.19301,0.0595 0.25253,0 0.0595,-0.0595 -0.0842,-0.25254 0,-0.25254 0.0842,0 0.0595,0.31206 0,0.25254 -0.1331,-0.1331 -0.11944,-0.37198 -0.25253,-0.50508 -0.0595,-0.0595 0,0.33672 0,0.25254 0,-1.65553 0,0.89791 0,-0.75761 0,-0.0842 0.0842,0.25253 0,0.25253 -0.0842,0 0.0376,-0.17724 0,-0.25253 -0.0532,-0.10648 -0.1335,-0.25254 -0.25254,-0.25254 -0.0842,0 0.0842,0.25254 0,0.25254 -0.0842,0 0,-0.16836 0,-0.25254 0,-0.0842 0,-0.16836 0,-0.25254 0,-0.0842 0.0842,-0.25254 0,-0.25254 -0.11905,0 -0.13349,0.25254 -0.25254,0.25254 -0.16836,0 0.0753,-0.35449 0,-0.50508 -0.0532,-0.10648 -0.1993,-0.14606 -0.25254,-0.25254 -0.0376,-0.0753 0,-0.16835 0,-0.25253 0,-0.0842 -0.0842,-0.25254 0,-0.25254 0.0842,0 0,0.33672 0,0.25254 0,-0.25254 0,-0.50508 0,-0.75762 0,-0.0613 0.008,-0.74949 0,-0.75761 -0.0595,-0.0595 -0.19301,0.0595 -0.25254,0 -0.0608,-0.0608 0.0608,-0.94939 0,-1.01015 -0.11904,-0.11905 -0.50507,0.16835 -0.50507,0 0,-0.11905 0.1993,-0.14606 0.25253,-0.25254 0.0376,-0.0753 0,-0.16836 0,-0.25254 0,-0.0842 0.0376,-0.17725 0,-0.25254 -0.0532,-0.10648 -0.19929,-0.14606 -0.25253,-0.25254 -0.0872,-0.17443 0.0886,-1.17404 0,-1.26269 -0.0595,-0.0595 -0.19302,0.0595 -0.25254,0 -0.0595,-0.0595 0.0376,-0.17724 0,-0.25254 -0.0532,-0.10648 -0.25254,-0.13349 -0.25254,-0.25253 0,-0.0842 0.19301,0.0595 0.25254,0 0.0252,-0.0252 0.0252,-0.73236 0,-0.75762 -0.11905,-0.11905 -0.50508,0.16836 -0.50508,0 0,-0.11905 0.21489,-0.1396 0.25254,-0.25254 0.0532,-0.15972 0,-0.33671 0,-0.50507 0,-0.0842 0.0595,0.19301 0,0.25254 -0.0595,0.0595 -0.19301,0.0595 -0.25254,0 -0.11905,-0.11905 0.11905,-0.38603 0,-0.50508 -0.0595,-0.0595 -0.19301,0.0595 -0.25254,0 -0.0595,-0.0595 0,-0.16836 0,-0.25254 0,-0.16836 0,-0.33672 0,-0.50508 0,-0.33671 0.0842,0.92598 -0.25253,0.25254 -0.71553,-1.43105 0.35776,-0.25254 0,-0.25254 -0.0842,0 0.0753,-0.21489 0,-0.25253 -0.15059,-0.0753 -0.33672,0 -0.50508,0 -0.0842,0 0.19301,0.0595 0.25254,0 0.0595,-0.0595 0,-0.16836 0,-0.25254 0,-0.0842 0.0376,-0.17725 0,-0.25254 -0.0532,-0.10648 -0.14606,-0.1993 -0.25254,-0.25254 -0.0753,-0.0376 -0.25254,0.0842 -0.25254,0 0,-0.18823 0.11944,-0.37197 0.25254,-0.50507 0.0595,-0.0595 0,0.33671 0,0.25253 0,-0.16835 0,-0.33671 0,-0.50507 0,-0.0842 0.0595,0.31206 0,0.25254 -0.1331,-0.1331 -0.11944,-0.37198 -0.25254,-0.50508 -0.0595,-0.0595 0.0595,0.19301 0,0.25254 -0.0595,0.0595 -0.25254,0.0842 -0.25254,0 0,-0.18823 0.11944,-0.37198 0.25254,-0.50508 0.0595,-0.0595 0.0842,0.25254 0,0.25254 -0.0842,0 0.0377,-0.17725 0,-0.25254 -0.0532,-0.10648 -0.21489,-0.1396 -0.25254,-0.25254 -0.0532,-0.15972 0,-0.33671 0,-0.50507 0,-0.0842 0,0.33671 0,0.25254 0,-0.16836 0.11905,-0.38603 0,-0.50508 -0.0842,-0.0842 -0.14606,0.30578 -0.25253,0.25254 -0.16836,-0.0842 -0.25254,-0.31685 -0.25254,-0.50508 0,-0.11905 0.16836,0.33672 0.25254,0.25254 0.11904,-0.11905 0,-0.33672 0,-0.50508 0,-0.0842 0.0842,0.25254 0,0.25254 -0.0842,0 0.0595,-0.19301 0,-0.25254 -0.11905,-0.11905 -0.50508,0.16836 -0.50508,0 0,-0.0842 0.19301,0.0595 0.25254,0 0.0595,-0.0595 0,-0.16836 0,-0.25254 0,-0.31099 0.0376,-0.46743 -0.25254,-0.75761 -0.0595,-0.0595 0,0.33672 0,0.25254 0,-0.16836 0,-0.33672 0,-0.50508 0,-0.0842 0,0.33672 0,0.25254 0,-0.40009 0.15058,-0.9082 -0.50508,-0.25254 -0.0595,0.0595 0.21489,0.0753 0.25254,0 0.0753,-0.15058 0,-0.33672 0,-0.50507 0,-0.0842 0,0.33671 0,0.25253 0,-0.16836 0,-0.33671 0,-0.50507 0,-0.0842 0.0595,0.31206 0,0.25254 -0.1331,-0.1331 -0.0842,-0.4209 -0.25254,-0.50508 -0.10648,-0.0532 -0.25254,0.13349 -0.25254,0.25254 0,0.0842 0.2149,0.0753 0.25254,0 0.0753,-0.15059 0,-0.33672 0,-0.50508 0,-0.0842 0.0753,0.29019 0,0.25254 -0.21296,-0.10648 -0.33671,-0.33672 -0.50507,-0.50508 -0.0842,-0.0842 0.13349,0.25254 0.25253,0.25254 0.0842,0 0,-0.16836 0,-0.25254 0,-0.0842 0.0595,-0.19301 0,-0.25254 -0.11904,-0.11904 -0.50507,0.16836 -0.50507,0 0,-0.18823 0.11944,-0.37197 0.25254,-0.50507 0.0595,-0.0595 0,0.33672 0,0.25254 0,-0.16836 0,-0.33672 0,-0.50508 0,-0.0842 0.0595,0.19301 0,0.25254 -0.0595,0.0595 -0.19302,0.0595 -0.25254,0 -0.1331,-0.1331 -0.25254,-0.31685 -0.25254,-0.50508 0,-0.11905 0.13349,0.25254 0.25254,0.25254 0.0842,0 0,-0.16836 0,-0.25254 0,-0.0842 0.0595,-0.19301 0,-0.25254 -0.11905,-0.11904 -0.50508,0.16836 -0.50508,0 0,-0.18823 0.11944,-0.37197 0.25254,-0.50507 0.0126,-0.0126 0.0716,0.60184 -0.25254,0.25254 -0.26555,-0.28618 -0.43397,-0.6491 -0.65096,-0.97365 z"
       id="path10984"
       inkscape:connector-curvature="0" />
  </g>
</svg>
