<?xml version="1.0" encoding="UTF-8" standalone="no"?>
<!-- Created with Inkscape (http://www.inkscape.org/) -->

<svg
   xmlns:dc="http://purl.org/dc/elements/1.1/"
   xmlns:cc="http://creativecommons.org/ns#"
   xmlns:rdf="http://www.w3.org/1999/02/22-rdf-syntax-ns#"
   xmlns:svg="http://www.w3.org/2000/svg"
   xmlns="http://www.w3.org/2000/svg"
   xmlns:sodipodi="http://sodipodi.sourceforge.net/DTD/sodipodi-0.dtd"
   xmlns:inkscape="http://www.inkscape.org/namespaces/inkscape"
   width="200"
   height="369.03"
   id="svg2"
   version="1.1"
   inkscape:version="0.92.2 5c3e80d, 2017-08-06"
   sodipodi:docname="lateral_deltoid.svg">
  <defs
     id="defs4" />
  <sodipodi:namedview
     id="base"
     pagecolor="#ffffff"
     bordercolor="#666666"
     borderopacity="1.0"
     inkscape:pageopacity="0"
     inkscape:pageshadow="2"
     inkscape:zoom="0.7"
     inkscape:cx="102.42754"
     inkscape:cy="169.41323"
     inkscape:document-units="px"
     inkscape:current-layer="layer1"
     showgrid="false"
     fit-margin-top="0"
     fit-margin-left="0"
     fit-margin-right="0"
     fit-margin-bottom="0"
     inkscape:window-width="1440"
     inkscape:window-height="790"
     inkscape:window-x="0"
     inkscape:window-y="1"
     inkscape:window-maximized="1" />
  <metadata
     id="metadata7">
    <rdf:RDF>
      <cc:Work
         rdf:about="">
        <dc:format>image/svg+xml</dc:format>
        <dc:type
           rdf:resource="http://purl.org/dc/dcmitype/StillImage" />
        <dc:title></dc:title>
      </cc:Work>
    </rdf:RDF>
  </metadata>
  <g
     inkscape:label="Ebene 1"
     inkscape:groupmode="layer"
     id="layer1"
     transform="translate(-54.28571,-335.71492)">
    <path
       style="fill:#fc0000;stroke:none;stroke-width:1px;stroke-linecap:butt;stroke-linejoin:miter;stroke-opacity:1;fill-opacity:1;opacity:0.542"
       d="m 211.60714,434.03063 c 0,-0.47619 0,-0.95238 0,-1.42857 0,-0.11905 -0.0376,-0.2442 0,-0.35714 0.19741,-0.59225 0.19501,0 0.17857,0 -0.0595,0 -0.0421,-0.13648 0,-0.17857 0.0421,-0.0421 0.17857,0.0595 0.17857,0 0,-0.0842 -0.0944,-0.17857 -0.17857,-0.17857 -0.0595,0 0.0595,0.17857 0,0.17857 -0.0595,0 0,-0.11905 0,-0.17857 0,-0.0595 -0.0595,-0.17858 0,-0.17858 0.0595,0 0.0595,0.17858 0,0.17858 -0.0595,0 0,-0.11905 0,-0.17858 0,-0.0595 -0.0595,-0.17857 0,-0.17857 0.0595,0 0,0.2381 0,0.17857 0,-0.11904 0,-0.23809 0,-0.35714 0,-0.0595 0.0595,0.17857 0,0.17857 -0.0595,0 0,-0.11905 0,-0.17857 0,-0.0595 -0.0595,-0.17857 0,-0.17857 0.0595,0 0,0.23809 0,0.17857 0,-0.11905 0,-0.23809 0,-0.35714 0,-0.0595 0,0.23809 0,0.17857 0,-1.17064 0,0.63492 0,-0.53571 0,-0.0595 0.0595,0.17857 0,0.17857 -0.0595,0 0,-0.11905 0,-0.17857 0,-0.0595 0,-0.11905 0,-0.17858 0,-0.0595 -0.0595,-0.17857 0,-0.17857 0.0595,0 0,0.2381 0,0.17857 0,-0.11904 0,-0.23809 0,-0.35714 0,-0.11905 0,-0.23809 0,-0.35714 0,-0.0595 0,0.23809 0,0.17857 0,-0.11905 0,-0.2381 0,-0.35714 0,-0.0595 -0.0595,-0.17857 0,-0.17857 0.0595,0 0.0595,0.17857 0,0.17857 -0.0595,0 0,-0.11905 0,-0.17857 0,-0.0595 -0.0595,-0.17858 0,-0.17858 0.0595,0 0,0.2381 0,0.17858 0,-0.11905 0,-0.2381 0,-0.35715 0,-0.64759 0,-0.76941 0,-1.07143 0,-0.0595 0,0.2381 0,0.17858 0,-0.11905 0,-0.2381 0,-0.35715 0,-0.0595 0,0.2381 0,0.17857 0,-0.11904 0,-0.23809 0,-0.35714 0,-0.0595 -0.0595,-0.17857 0,-0.17857 0.0595,0 0,0.2381 0,0.17857 0,-0.11905 0,-0.23809 0,-0.35714 0,-0.0595 0.0595,0.17857 0,0.17857 -0.0595,0 0,-0.11905 0,-0.17857 0,-0.0595 -0.0595,-0.17857 0,-0.17857 0.0595,0 0.0595,0.17857 0,0.17857 -0.0595,0 0,-0.11905 0,-0.17857 0,-0.0595 0,-0.11905 0,-0.17857 0,-0.59524 0,0.41666 0,-0.17858 0,-0.0595 0,-0.11904 0,-0.17857 0,-0.0595 -0.0595,-0.17857 0,-0.17857 0.21991,0 -0.54496,0.90211 0.35714,0 0.0421,-0.0421 -0.13648,0.0421 -0.17857,0 -0.0421,-0.0421 -0.0595,-0.17857 0,-0.17857 0.0842,0 0.0944,0.17857 0.17857,0.17857 0.0842,0 0.17857,-0.0944 0.17857,-0.17857 0,-0.0595 -0.13648,0.0421 -0.17857,0 -0.0421,-0.0421 0,-0.11905 0,-0.17857 0,-0.0595 -0.0595,-0.17857 0,-0.17857 0.0595,0 0,0.23809 0,0.17857 0,-0.11905 0,-0.2381 0,-0.35714 0,-0.0595 -0.0421,0.22066 0,0.17857 0.0941,-0.0941 0.0845,-0.26303 0.17857,-0.35715 0.0421,-0.0421 0.0595,0.17858 0,0.17858 -0.0595,0 0,-0.11905 0,-0.17858 0,-0.0595 0,-0.11904 0,-0.17857 0,-0.0595 0,-0.11904 0,-0.17857 0,-0.0595 -0.0595,-0.17857 0,-0.17857 0.0595,0 0,0.2381 0,0.17857 0,-0.11905 0,-0.23809 0,-0.35714 0,-0.0595 0,0.23809 0,0.17857 0,-0.11905 0,-0.2381 0,-0.35714 0,-0.0595 -0.0595,-0.17857 0,-0.17857 0.0595,0 0,0.23809 0,0.17857 0,-0.11905 0,-0.2381 0,-0.35715 0,-0.0595 0.0595,0.17858 0,0.17858 -0.25358,0 -0.17857,-0.40876 -0.17857,-0.53572 0,-0.0595 -0.0595,-0.17857 0,-0.17857 0.0595,0 0.0595,0.17857 0,0.17857 -0.0595,0 0.0266,-0.12533 0,-0.17857 -0.0376,-0.0753 -0.0944,-0.17857 -0.17857,-0.17857 -0.0595,0 0.0595,0.17857 0,0.17857 -0.11905,0 0.11905,-0.35714 0,-0.35714 -0.0842,0 -0.17857,0.0944 -0.17857,0.17857 0,0.0595 0.13648,0.0421 0.17857,0 0.0421,-0.0421 0.0266,-0.12533 0,-0.17857 -0.30351,-0.60703 -0.17857,0.36734 -0.17857,-0.17857 0,-0.0595 0,-0.11905 0,-0.17858 0,-0.0595 -0.0595,-0.17857 0,-0.17857 0.0595,0 0.0595,0.17857 0,0.17857 -0.0595,0 0,-0.11904 0,-0.17857 0,-0.0595 0,-0.11904 0,-0.17857 0,-0.0595 -0.0595,-0.17857 0,-0.17857 0.0595,0 0.0595,0.17857 0,0.17857 -0.0595,0 0,-0.11905 0,-0.17857 0,-0.2381 0,-0.47619 0,-0.71429 0,-0.35714 0,-0.71428 0,-1.07142 0,-0.0595 -0.0595,-0.17858 0,-0.17858 0.0595,0 0.0595,0.17858 0,0.17858 -0.0842,0 -0.14092,-0.10328 -0.17857,-0.17858 -0.0235,-0.047 0,-0.6209 0,-0.71428 0,-0.41667 0,-0.83333 0,-1.25 0,-0.0595 0.0421,-0.13648 0,-0.17857 -0.0421,-0.0421 -0.17857,0.0595 -0.17857,0 0,-0.0842 0.17857,-0.0944 0.17857,-0.17857 0,-0.37159 -0.25042,-0.0719 -0.35714,-0.17858 -0.0421,-0.0421 0.0421,-0.13648 0,-0.17857 -0.0842,-0.0842 -0.35715,0.11905 -0.35715,0 0,-0.0842 0.17857,-0.0944 0.17857,-0.17857 0,-0.0595 -0.13648,0.0421 -0.17857,0 -0.0421,-0.0421 0.0421,-0.13648 0,-0.17857 -0.0421,-0.0421 -0.17857,0.0595 -0.17857,0 0,-0.0595 0.17857,0.0595 0.17857,0 0,-0.37159 -0.25042,-0.0719 -0.35714,-0.17857 -0.0842,-0.0842 0.0377,-0.24421 0,-0.35714 -0.0421,-0.12627 -0.17857,-0.22405 -0.17857,-0.35715 0,-0.0595 0.17857,0.0595 0.17857,0 0,-0.0842 -0.14092,-0.10328 -0.17857,-0.17857 -0.0266,-0.0532 0.0188,-0.1221 0,-0.17857 -0.0421,-0.12627 -0.13648,-0.23087 -0.17857,-0.35714 -0.0188,-0.0565 0,-0.11905 0,-0.17857 0,-0.11905 0,-0.2381 0,-0.35715 0,-0.0595 0.0595,0.17857 0,0.17857 -0.0842,0 -0.14093,-0.10327 -0.17857,-0.17857 -0.0266,-0.0532 0.0188,-0.1221 0,-0.17857 -0.0421,-0.12627 -0.17858,-0.22404 -0.17858,-0.35714 0,-0.0842 0.11905,0.23809 0.17858,0.17857 0.0842,-0.0842 0.0842,-0.27296 0,-0.35714 -0.0595,-0.0595 -0.0944,0.17857 -0.17858,0.17857 -0.0595,0 0,-0.11905 0,-0.17857 0,-0.0595 -0.0595,-0.17857 0,-0.17857 0.0595,0 0.0595,0.17857 0,0.17857 -0.0595,0 0.0266,-0.12533 0,-0.17857 -0.0376,-0.0753 -0.17857,-0.0944 -0.17857,-0.17858 0,-0.0595 0.15195,0.0532 0.17857,0 0.0532,-0.10648 0,-0.23809 0,-0.35714 0,-0.0595 0.0421,0.22066 0,0.17857 -0.0941,-0.0941 -0.0845,-0.26302 -0.17857,-0.35714 -0.0421,-0.0421 0.0421,0.22066 0,0.17857 -0.0941,-0.0941 -0.17857,-0.22404 -0.17857,-0.35714 0,-0.37159 0.41878,0.59735 0,0.17857 -0.0941,-0.0941 -0.0845,-0.26303 -0.17857,-0.35714 -0.21991,-0.21991 -0.35714,0.54496 -0.35714,-0.35715 0,-0.0842 0.17857,0.0944 0.17857,0.17858 0,0.0595 -0.11905,0 -0.17857,0 -0.0595,0 -0.15195,0.0532 -0.17857,0 -0.0532,-0.10648 0,-0.2381 0,-0.35715 0,-0.0595 0.0595,0.17857 0,0.17857 -0.0595,0 0.0266,-0.12533 0,-0.17857 -0.0377,-0.0753 -0.0944,-0.17857 -0.17858,-0.17857 -0.0595,0 0,0.2381 0,0.17857 0,-0.11904 0.0842,-0.27296 0,-0.35714 -0.0595,-0.0595 -0.11904,0.2381 -0.17857,0.17857 -0.0842,-0.0842 0,-0.23809 0,-0.35714 0,-0.2381 0.0595,0.65476 -0.17857,0.17857 -0.0532,-0.10648 0,-0.2381 0,-0.35714 0,-0.0595 0,0.23809 0,0.17857 0,-0.11905 0.0842,-0.27296 0,-0.35714 -0.0595,-0.0595 -0.0944,0.17857 -0.17857,0.17857 -0.0595,0 0.0421,-0.13648 0,-0.17857 -0.0421,-0.0421 -0.13648,0.0421 -0.17857,0 -0.0421,-0.0421 0,-0.11905 0,-0.17858 0,-0.0595 -0.0595,-0.17857 0,-0.17857 0.0595,0 0.0595,0.17857 0,0.17857 -0.0595,0 0,-0.11904 0,-0.17857 0,-0.0595 0.0595,-0.17857 0,-0.17857 -0.0842,0 -0.11905,0.2381 -0.17857,0.17857 -0.0842,-0.0842 0,-0.23809 0,-0.35714 0,-0.0595 0.0595,0.17857 0,0.17857 -0.0595,0 0.0266,-0.12533 0,-0.17857 -0.22066,-0.44132 -0.17857,0.0616 -0.17857,-0.35714 0,-0.41878 0.0421,0 -0.17858,0 -0.0595,0 0,-0.11905 0,-0.17857 0,-0.0595 -0.0595,-0.17858 0,-0.17858 0.0595,0 0.0266,0.23182 0,0.17858 -0.0595,-0.17858 -0.11904,-0.35715 -0.17857,-0.53572 0,0.0595 0.0595,0.17857 0,0.17857 -0.0595,0 0,-0.11904 0,-0.17857 0,-0.0595 -0.0595,-0.17857 0,-0.17857 0.11905,0 -0.0595,0.41667 -0.17857,0.17857 -0.40645,-0.81291 0.37159,-0.17857 -0.17857,-0.17857 -0.0595,0 0.0266,-0.12533 0,-0.17857 -0.0377,-0.0753 -0.10328,-0.14093 -0.17857,-0.17857 -0.0532,-0.0266 -0.15195,0.0532 -0.17857,0 -0.0532,-0.10648 0,-0.2381 0,-0.35715 0,-0.0595 0.0595,0.17858 0,0.17858 -0.0842,0 -0.11905,-0.11905 -0.17857,-0.17858 -0.0595,-0.0595 -0.14093,-0.10327 -0.17858,-0.17857 -0.0266,-0.0532 0.0595,-0.17857 0,-0.17857 -0.0842,0 -0.11904,0.2381 -0.17857,0.17857 -0.0842,-0.0842 0.0842,-0.27296 0,-0.35714 -0.0595,-0.0595 -0.11904,0.2381 -0.17857,0.17857 -0.0842,-0.0842 0.0842,-0.27296 0,-0.35714 -0.0595,-0.0595 -0.11905,0.23809 -0.17857,0.17857 -0.0842,-0.0842 0.0842,-0.27296 0,-0.35714 -0.0595,-0.0595 -0.11905,0.23809 -0.17857,0.17857 -0.0842,-0.0842 0,-0.2381 0,-0.35714 0,-0.0595 0.0421,0.22066 0,0.17857 -0.0941,-0.0941 -0.0845,-0.26303 -0.17857,-0.35715 -0.0421,-0.0421 0.0595,0.17858 0,0.17858 -0.0595,0 0.0532,-0.15196 0,-0.17858 -0.10648,-0.0532 -0.2381,0 -0.35715,0 -0.0595,0 0.13649,0.0421 0.17858,0 0.0421,-0.0421 0,-0.11904 0,-0.17857 0,-0.0595 0.0595,-0.17857 0,-0.17857 -0.90211,0 -0.27034,0.27034 -0.17858,0.17857 0.0421,-0.0421 0,-0.11904 0,-0.17857 0,-0.0595 0.0595,-0.17857 0,-0.17857 -0.13309,0 -0.26302,0.0845 -0.35714,0.17857 -0.0421,0.0421 0.13648,0.0421 0.17857,0 0.0421,-0.0421 0.0266,-0.12533 0,-0.17857 -0.29612,-0.59225 -0.12521,0 -0.17857,0 -0.0595,0 0.0421,-0.13648 0,-0.17857 -0.0421,-0.0421 -0.13648,0.0421 -0.17857,0 -0.0421,-0.0421 0.0532,-0.15195 0,-0.17857 -1.0119,-0.50596 -0.17857,0.25297 -0.17857,0 0,-0.0842 -0.0944,-0.17857 -0.17857,-0.17857 -0.0595,0 0.0595,0.17857 0,0.17857 -0.0842,0 -0.14093,-0.10328 -0.17857,-0.17857 -0.0266,-0.0532 0.0595,-0.17858 0,-0.17858 -0.1331,0 -0.22405,0.17858 -0.35715,0.17858 -0.45825,0 0.16887,-1.06173 -0.53571,-0.35715 -0.0421,0.0421 0.13648,0.0421 0.17857,0 0.0421,-0.0421 0,-0.11904 0,-0.17857 0,-0.0595 0.0595,-0.17857 0,-0.17857 -0.1331,0 -0.26303,0.0845 -0.35714,0.17857 -0.0421,0.0421 0.15195,0.0532 0.17857,0 0.0532,-0.10648 0.0842,-0.27296 0,-0.35714 -0.0842,-0.0842 -0.27296,0.0842 -0.35714,0 -0.0595,-0.0595 0.23809,-0.11905 0.17857,-0.17857 -0.0842,-0.0842 -0.2381,0 -0.35715,0 -0.0595,0 0.2052,0.0532 0.17858,0 -0.0753,-0.15059 -0.2381,-0.2381 -0.35715,-0.35715 -0.15092,-0.15092 0.44133,0.52551 0.17857,0 -0.0376,-0.0753 -0.0944,-0.17857 -0.17857,-0.17857 -0.0842,0 -0.17857,0.0944 -0.17857,0.17857 0,0.0595 0.13648,0.0421 0.17857,0 0.0421,-0.0421 0,-0.11904 0,-0.17857 0,-0.0595 0.0595,-0.17857 0,-0.17857 -0.1331,0 -0.22404,0.17857 -0.35714,0.17857 -0.0842,0 0.2381,-0.11904 0.17857,-0.17857 -0.0842,-0.0842 -0.23809,0 -0.35714,0 -0.0595,0 0.17857,0.0595 0.17857,0 0,-0.0842 -0.0944,-0.17857 -0.17857,-0.17857 -0.0595,0 0.0595,0.17857 0,0.17857 -0.0842,0 -0.14093,-0.10328 -0.17857,-0.17857 -0.0266,-0.0532 0.0595,-0.17857 0,-0.17857 -0.1331,0 -0.22405,0.17857 -0.35715,0.17857 -0.0842,0 0.2381,-0.11905 0.17858,-0.17857 -0.0842,-0.0842 -0.2381,0 -0.35715,0 -0.0595,0 0.13648,0.0421 0.17857,0 0.0421,-0.0421 0.0595,-0.17857 0,-0.17857 -0.0842,0 -0.10327,0.14092 -0.17857,0.17857 -0.0532,0.0266 -0.17857,0.0595 -0.17857,0 0,-0.0595 0.13648,0.0421 0.17857,0 0.0421,-0.0421 0.0532,-0.15195 0,-0.17857 -0.10648,-0.0532 -0.23809,0 -0.35714,0 -0.0595,0 0.17857,-0.0595 0.17857,0 0,0.0595 -0.12533,0.0266 -0.17857,0 -0.0753,-0.0376 -0.23809,-0.11905 -0.17857,-0.17857 0.0595,-0.0595 0.23809,0.11904 0.17857,0.17857 -0.0842,0.0842 -0.3039,0.10648 -0.35714,0 -0.0595,-0.11905 0.17857,-0.22405 0.17857,-0.35715 0,-0.0842 -0.0944,0.17858 -0.17857,0.17858 -0.0842,0 -0.17857,-0.0944 -0.17857,-0.17858 0,-0.0595 0.22066,0.0421 0.17857,0 -0.0941,-0.0941 -0.22405,-0.17857 -0.35715,-0.17857 0.14537,0.5546 0.23182,0.0266 0.17858,0 -1.01191,-0.50595 -0.17858,0.25298 -0.17858,0 0,-0.0842 -0.0944,-0.17857 -0.17857,-0.17857 -0.0595,0 0.0421,0.13648 0,0.17857 -0.0421,0.0421 -0.13648,0.0421 -0.17857,0 -0.10672,-0.10672 0.19302,-0.35714 -0.17857,-0.35714 -0.0893,0 0.2381,0.77381 -0.35714,0.17857 -0.0595,-0.0595 0.17857,-0.0944 0.17857,-0.17857 0,-0.0595 -0.12533,0.0266 -0.17857,0 -0.0753,-0.0377 -0.0944,-0.17857 -0.17857,-0.17857 -0.0595,0 0.0421,0.13648 0,0.17857 -0.10672,0.10672 -0.35715,-0.10883 -0.35715,-0.17857 0,-0.0595 0.2381,0 0.17857,0 -0.11904,0 -0.23809,0 -0.35714,0 -0.0595,0 0.17857,-0.0595 0.17857,0 0,0.0595 -0.13648,0.0421 -0.17857,0 -0.0421,-0.0421 0.0595,-0.17857 0,-0.17857 -0.1331,0 -0.26303,0.0845 -0.35714,0.17857 -0.0421,0.0421 0.23809,0 0.17857,0 -0.11905,0 -0.27296,0.0842 -0.35714,0 -0.0595,-0.0595 0.17857,-0.0944 0.17857,-0.17857 0,-0.11905 -0.35714,0.11904 -0.35714,0 0,-0.48192 0.3346,-0.078 0.17857,0 -0.10648,0.0532 -0.27297,0.0842 -0.35715,0 -0.0595,-0.0595 0.17858,-0.0944 0.17858,-0.17857 0,-0.11905 -0.35715,0.11904 -0.35715,0 0,-0.0842 0.11905,-0.2381 0.17857,-0.17858 0.0595,0.0595 -0.0944,0.17858 -0.17857,0.17858 -0.0842,0 -0.17857,-0.0944 -0.17857,-0.17858 0,-0.0595 0.17857,0.0595 0.17857,0 0,-0.0842 -0.0944,-0.17857 -0.17857,-0.17857 -0.0842,0 -0.11905,0.2381 -0.17857,0.17857 -0.0595,-0.0595 0.17857,-0.0944 0.17857,-0.17857 0,-0.0842 -0.0944,-0.17857 -0.17857,-0.17857 -0.0842,0 -0.11905,0.2381 -0.17857,0.17857 -0.0595,-0.0595 0.17857,-0.0944 0.17857,-0.17857 0,-0.0595 -0.11905,0 -0.17857,0 -0.0595,0 -0.11905,0 -0.17857,0 -0.0595,0 -0.17857,0.0595 -0.17857,0 0,-0.0595 0.13648,0.0421 0.17857,0 0.0421,-0.0421 -0.0595,-0.17857 0,-0.17857 0.0595,0 0.0421,0.13648 0,0.17857 -0.0421,0.0421 -0.11905,0 -0.17857,0 -0.0595,0 -0.12534,0.0266 -0.17858,0 -0.0753,-0.0376 -0.17857,-0.0944 -0.17857,-0.17857 0,-0.0595 0.2381,0 0.17857,0 -0.17857,0 -0.35714,0 -0.53571,0 -0.0595,0 -0.17857,0.0595 -0.17857,0 0,-0.0595 0.17857,0.0595 0.17857,0 0,-0.0842 -0.0944,-0.17857 -0.17857,-0.17857 -0.0595,0 0,0.23809 0,0.17857 0,-0.11905 0.0842,-0.27296 0,-0.35714 -0.0595,-0.0595 -0.17857,0.0944 -0.17857,0.17857 0,0.0595 0.23809,0 0.17857,0 -0.81291,0 -0.17857,0.0842 -0.17857,-0.17857 0,-0.0842 -0.0944,-0.17857 -0.17857,-0.17857 -0.0842,0 -0.11905,0.23809 -0.17858,0.17857 -0.0595,-0.0595 0.17858,-0.0944 0.17858,-0.17857 0,-0.11905 -0.35715,0.11904 -0.35715,0 0,-0.0842 0.11905,-0.2381 0.17857,-0.17858 0.15093,0.15093 -0.35714,0.22789 -0.35714,0.17858 0,-0.0842 0.2381,-0.11905 0.17857,-0.17858 -0.0842,-0.0842 -0.2442,0.0376 -0.35714,0 -0.0799,-0.0266 -0.10328,-0.14092 -0.17857,-0.17857 -0.0532,-0.0266 -0.13648,0.0421 -0.17857,0 -0.0421,-0.0421 0.0595,-0.17857 0,-0.17857 -0.0842,0 -0.17857,0.0944 -0.17857,0.17857 0,0.0595 0.17857,-0.0595 0.17857,0 0,0.0595 -0.11905,0 -0.17857,0 -0.0595,0 -0.17858,0.0595 -0.17858,0 0,-0.0842 0.2381,-0.11904 0.17858,-0.17857 -0.50596,-0.50595 -0.43155,0.25298 -0.17858,0 0.0421,-0.0421 0.0595,-0.17857 0,-0.17857 -0.0842,0 -0.0944,0.17857 -0.17857,0.17857 -0.0842,0 -0.10328,-0.14092 -0.17857,-0.17857 -0.0532,-0.0266 -0.12533,0.0266 -0.17857,0 -0.0753,-0.0377 -0.23809,-0.11905 -0.17857,-0.17857 0.0595,-0.0595 0.23809,0.11905 0.17857,0.17857 -0.0842,0.0842 -0.27296,0.0842 -0.35714,0 -0.0595,-0.0595 0.23809,-0.11905 0.17857,-0.17857 -0.0842,-0.0842 -0.27296,0.0842 -0.35714,0 -0.0595,-0.0595 0.17857,-0.0944 0.17857,-0.17857 0,-0.0595 -0.11905,0 -0.17857,0 -0.0595,0 -0.11905,0 -0.17858,0 -0.0595,0 -0.17857,0.0595 -0.17857,0 0,-0.0595 0.17857,0.0595 0.17857,0 0,-0.31537 -0.53571,-0.11082 -0.53571,-0.17857 0,-0.0842 0.0944,-0.17858 0.17857,-0.17858 0.0595,0 0.0421,0.13649 0,0.17858 -0.0421,0.0421 -0.11905,0 -0.17857,0 -0.0595,0 -0.11905,0 -0.17857,0 -0.0595,0 -0.11905,0 -0.17857,0 -0.0595,0 -0.17857,0.0595 -0.17857,0 0,-0.0595 0.17857,-0.0595 0.17857,0 0,0.0595 -0.11905,0 -0.17857,0 -0.0595,0 -0.11905,0 -0.17858,0 -0.0595,0 -0.17857,0.0595 -0.17857,0 0,-0.0595 0.17857,-0.0595 0.17857,0 0,0.0595 -0.15195,-0.0532 -0.17857,0 -0.0532,0.10648 0.0842,0.27296 0,0.35714 -0.0595,0.0595 -0.17857,-0.0944 -0.17857,-0.17857 0,-0.0595 0.17857,-0.0595 0.17857,0 0,0.1331 -0.0595,0.29762 -0.17857,0.35714 -0.0753,0.0376 -0.17857,-0.0944 -0.17857,-0.17857 0,-0.0595 0.17857,-0.0595 0.17857,0 0,0.0595 -0.15195,-0.0532 -0.17857,0 -0.50595,1.0119 0.25298,0.17857 0,0.17857 -0.0842,0 -0.17857,0.0944 -0.17857,0.17857 0,0.0595 0.17857,-0.0595 0.17857,0 0,0.0595 -0.12533,-0.0266 -0.17857,0 -0.0753,0.0376 -0.14093,0.10328 -0.17857,0.17857 0,0.47619 0.0595,-0.0595 -0.17857,0.17857 -0.0421,0.0421 0.0421,0.13649 0,0.17858 -0.0421,0.0421 -0.17858,0.0595 -0.17858,0 0,-0.0595 0.17858,-0.0595 0.17858,0 0,0.49262 -0.17858,-0.13548 -0.17858,0.35714 0,0.0595 0,0.11905 0,0.17857 0,0.0595 -0.0421,0.13648 0,0.17857 0.29762,0.29762 0.17858,-0.65476 0.17858,0.35714 0,0.2381 -0.0595,-0.65476 0.17857,-0.17857 0.50595,1.01191 -0.25298,0.17857 0,0.17857 0.0595,0 0,0.11905 0,0.17858 0,0.0595 0.0595,0.17857 0,0.17857 -0.11905,0 0.0595,-0.41667 0.17857,-0.17857 0.0532,0.10648 0,0.23809 0,0.35714 0,0.0595 0,-0.2381 0,-0.17857 0,0.11904 0,0.23809 0,0.35714 0,0.0595 -0.0595,-0.17857 0,-0.17857 0.0595,0 -0.0421,0.13648 0,0.17857 0.0421,0.0421 0.13648,-0.0421 0.17857,0 0.0421,0.0421 -0.0421,0.13648 0,0.17857 0.0941,0.0941 0.26303,0.0845 0.35714,0.17857 0.0421,0.0421 -0.17857,-0.0595 -0.17857,0 0,0.0842 0.14093,0.10328 0.17857,0.17857 0.1534,0.3068 -0.40222,0.35715 0.35715,0.35715 0.23809,0 -0.65477,-0.0595 -0.17858,0.17857 0.10648,0.0532 0.2381,0 0.35715,0 0.23809,0 -0.65476,-0.0595 -0.17857,0.17857 0.10648,0.0532 0.23809,0 0.35714,0 0.0595,0 -0.17857,-0.0595 -0.17857,0 0,0.0842 0.10328,0.14093 0.17857,0.17857 0.0532,0.0266 0.17857,-0.0595 0.17857,0 0,0.0595 -0.23809,0 -0.17857,0 0.11905,0 0.27296,-0.0842 0.35714,0 0.0595,0.0595 -0.17857,0.0944 -0.17857,0.17857 0,0.0595 0.13648,-0.0421 0.17857,0 0.0421,0.0421 -0.0421,0.13648 0,0.17857 0.0842,0.0842 0.25067,-0.0532 0.35714,0 0.44133,0.22067 -0.0616,0.17858 0.35715,0.17858 0.0595,0 0.17857,-0.0595 0.17857,0 0,0.0595 -0.13648,-0.0421 -0.17857,0 -0.0421,0.0421 -0.0532,0.15195 0,0.17857 0.10648,0.0532 0.23809,0 0.35714,0 0.0595,0 -0.17857,0.0595 -0.17857,0 0,-0.0595 0.15195,-0.0532 0.17857,0 0.0532,0.10648 0,0.23809 0,0.35714 0,0.0595 -0.0421,-0.13648 0,-0.17857 0.0421,-0.0421 0.13648,-0.0421 0.17857,0 0.29762,0.29762 -0.65476,0.17857 0.35714,0.17857 0.0595,0 -0.17857,-0.0595 -0.17857,0 0,0.0842 0.10328,0.14093 0.17857,0.17857 0.43982,0.21991 -0.1612,-0.51834 0.53572,0.17857 0.0421,0.0421 -0.17857,0.0595 -0.17857,0 0,-0.0595 0.13648,-0.0421 0.17857,0 0.0421,0.0421 0,0.11905 0,0.17857 0,0.0595 0.0595,0.17858 0,0.17858 -0.11905,0 0.0595,-0.41667 0.17857,-0.17858 0.40645,0.81291 -0.37159,0.17858 0.17857,0.17858 0.0595,0 -0.0532,0.15195 0,0.17857 0.10648,0.0532 0.2381,0 0.35714,0 0.2381,0 -0.65476,-0.0595 -0.17857,0.17857 0.10648,0.0532 0.2381,0 0.35715,0 0.0595,0 -0.13649,-0.0421 -0.17858,0 -0.0421,0.0421 0,0.11905 0,0.17857 0,0.0595 -0.0421,0.13648 0,0.17857 0.0489,0.0489 0.61742,-0.0484 0.71429,0 0.81725,0.40863 -0.75775,-0.074 0.53571,0.35714 0.0565,0.0188 0.13649,-0.0421 0.17858,0 0.0421,0.0421 -0.0421,0.13649 0,0.17858 0.0421,0.0421 0.13648,-0.0421 0.17857,0 0.0941,0.0941 0.0844,0.26302 0.17857,0.35714 0.0421,0.0421 -0.0421,-0.13648 0,-0.17857 0.0421,-0.0421 0.13648,-0.0421 0.17857,0 0.0421,0.0421 -0.0421,0.13648 0,0.17857 0.0421,0.0421 0.12533,-0.0266 0.17857,0 0.0753,0.0377 0.10328,0.14092 0.17857,0.17857 0.0532,0.0266 0.13648,-0.0421 0.17857,0 0.0941,0.0941 0.0845,0.26303 0.17858,0.35714 0.0421,0.0421 0.12533,-0.0266 0.17857,0 0.0753,0.0377 0.10328,0.14093 0.17857,0.17857 0.0532,0.0266 0.13648,-0.0421 0.17857,0 0.0421,0.0421 -0.0421,0.13649 0,0.17858 0.0421,0.0421 0.13648,-0.0421 0.17857,0 0.0421,0.0421 -0.0421,0.13648 0,0.17857 0.0842,0.0842 0.27297,-0.0842 0.35714,0 0.0421,0.0421 -0.0421,0.13648 0,0.17857 0.0421,0.0421 0.12534,-0.0266 0.17858,0 0.0827,0.0414 0.60926,0.60926 0.71428,0.71428 0.094,0.094 0.48803,0.44035 0.53572,0.53572 0.0266,0.0532 -0.0421,0.13648 0,0.17857 0.0421,0.0421 0.12533,-0.0266 0.17857,0 0.0753,0.0376 0.11905,0.11905 0.17857,0.17857 0.14031,0.14032 0.77911,0.83599 0.89286,0.89286 0.0532,0.0266 0.13648,-0.0421 0.17857,0 0.36947,0.36947 -0.5646,-0.0144 0.17857,0.35714 0.0532,0.0266 0.13648,-0.0421 0.17857,0 0.36947,0.36947 -0.5646,-0.0144 0.17857,0.35714 0.0532,0.0266 0.12533,-0.0266 0.17857,0 0.0753,0.0376 0.11905,0.11905 0.17857,0.17858 0.0595,0.0595 0.14093,0.10327 0.17858,0.17857 0.12315,0.24631 -0.21626,0.15972 0.17857,0.35714 0.0532,0.0266 0.12533,-0.0266 0.17857,0 0.0954,0.0477 0.4417,0.4417 0.53571,0.53571 0.0595,0.0595 0.17857,0.0944 0.17857,0.17858 0,0.0595 -0.23809,0 -0.17857,0 0.11905,0 0.27297,-0.0842 0.35715,0 0.0595,0.0595 -0.17858,0.0944 -0.17858,0.17857 0,0.0595 0.12534,-0.0266 0.17858,0 0.0992,0.0496 0.29956,0.35714 0.35714,0.35714 0.0595,0 -0.0421,-0.22066 0,-0.17857 0.0941,0.0941 0.13648,0.23087 0.17857,0.35714 0.0188,0.0565 -0.0421,0.13648 0,0.17857 0.0421,0.0421 0.13648,-0.0421 0.17857,0 0.0421,0.0421 -0.0421,0.13648 0,0.17857 0.0421,0.0421 0.13648,-0.0421 0.17857,0 0.0421,0.0421 -0.0266,0.12534 0,0.17858 0.0377,0.0753 0.17857,0.0944 0.17857,0.17857 0,0.0842 -0.17857,0.0944 -0.17857,0.17857 0,0.0842 0.0944,0.17857 0.17857,0.17857 0.0595,0 -0.0421,-0.22066 0,-0.17857 0.0941,0.0941 0.13649,0.23087 0.17858,0.35714 0.0188,0.0565 -0.0421,0.13648 0,0.17857 0.0421,0.0421 0.17857,-0.0595 0.17857,0 0,0.0842 -0.17857,0.0944 -0.17857,0.17857 0,0.0842 0.14092,0.10328 0.17857,0.17858 0.0534,0.10672 -0.11755,0.35714 0.17857,0.35714 0.0595,0 0,-0.2381 0,-0.17857 0,0.0706 -0.0381,0.81659 0,0.89285 0.0377,0.0753 0.14092,0.10328 0.17857,0.17858 0.0266,0.0532 -0.0266,0.12533 0,0.17857 0.0377,0.0753 0.14093,0.10328 0.17857,0.17857 0.0266,0.0532 -0.0188,0.1221 0,0.17857 0.21579,0.64737 0.0847,0.12709 0.35714,0.53571 0.0738,0.11075 0.13649,0.23088 0.17858,0.35715 0.0188,0.0565 0.0595,0.17857 0,0.17857 -0.0595,0 -0.0595,-0.17857 0,-0.17857 0.0595,0 -0.0266,0.12533 0,0.17857 0.0376,0.0753 0.14092,0.10328 0.17857,0.17857 0.0266,0.0532 -0.0266,0.12533 0,0.17857 0.0376,0.0753 0.17857,0.0944 0.17857,0.17857 0,0.0842 -0.17857,0.0944 -0.17857,0.17857 0,0.0576 0.30753,0.25793 0.35714,0.35715 0.0532,0.10648 -0.0842,0.27296 0,0.35714 0.0421,0.0421 0.17857,-0.0595 0.17857,0 0,0.0842 -0.17857,0.0944 -0.17857,0.17857 0,0.0842 0.0944,0.17857 0.17857,0.17857 0.0595,0 0,-0.23809 0,-0.17857 0,0.0697 -0.0842,0.53572 0.17857,0.53572 0.0595,0 0,-0.2381 0,-0.17858 0,0.11905 0,0.2381 0,0.35715 0,0.0595 0.0595,0.17857 0,0.17857 -0.0595,0 -0.0595,-0.17857 0,-0.17857 0.0842,0 0.10328,0.14092 0.17857,0.17857 0.0532,0.0266 0.13649,-0.0421 0.17858,0 0.0421,0.0421 0,0.11905 0,0.17857 0,0.35714 0,0.71429 0,1.07143 0,0.81291 -0.0842,0.0102 0.17857,0.53571 0.0266,0.0532 -0.0266,0.12533 0,0.17857 0.0376,0.0753 0.17857,0.0944 0.17857,0.17858 0,0.1331 -0.17857,0.22404 -0.17857,0.35714 0,0.16836 0.35714,0.18878 0.35714,0.35714 0,0.0595 -0.17857,-0.0595 -0.17857,0 0,0.0842 0.13188,0.10853 0.17857,0.17857 0.0738,0.11075 0.13648,0.23088 0.17857,0.35715 0.0188,0.0565 -0.0421,0.13648 0,0.17857 0.0421,0.0421 0.17857,-0.0595 0.17857,0 0,0.0842 -0.11904,0.23809 -0.17857,0.17857 -0.0595,-0.0595 0.11905,-0.2381 0.17857,-0.17857 0.0842,0.0842 -0.0842,0.27296 0,0.35714 0.0595,0.0595 0.0944,-0.17857 0.17857,-0.17857 0.0313,0 -0.0325,0.64926 0,0.71428 0.0377,0.0753 0.0944,0.17858 0.17858,0.17858 0.0595,0 0,-0.2381 0,-0.17858 0,0.17858 0,0.35715 0,0.53572 0,0.0595 0.0595,0.17857 0,0.17857 -0.0595,0 -0.0421,-0.22066 0,-0.17857 0.0941,0.0941 0.13648,0.23087 0.17857,0.35714 0.0374,0.11208 0,0.57053 0,0.71429 0,0.0595 0,0.11904 0,0.17857 0,0.0595 0.0595,0.17857 0,0.17857 -0.0595,0 0,-0.2381 0,-0.17857 0,0.69758 -0.0532,0.0189 0.17857,0.71428 0.0377,0.11294 -0.0532,0.25067 0,0.35715 0.0377,0.0753 0.14092,0.10328 0.17857,0.17857 0.0532,0.10648 -0.0532,0.25066 0,0.35714 0.0377,0.0753 0.17857,0.0944 0.17857,0.17857 0,0.26275 -0.59225,-0.41367 0,0.17857 0.0595,0.0595 0.17857,0.0944 0.17857,0.17858 0,0.0842 -0.11904,0.23809 -0.17857,0.17857 -0.0595,-0.0595 0.10328,-0.21622 0.17857,-0.17857 0.11905,0.0595 0.17857,0.22404 0.17857,0.35714 0,0.0595 -0.17857,0.0595 -0.17857,0 0,-0.0595 0.13648,-0.0421 0.17857,0 0.0421,0.0421 0.0595,0.17857 0,0.17857 -0.0595,0 -0.0421,-0.22066 0,-0.17857 0.0941,0.0941 0.0845,0.26303 0.17858,0.35714 0.0421,0.0421 0,-0.23809 0,-0.17857 0,0.81291 -0.0842,0.17857 0.17857,0.17857 0.0677,0 -0.1368,0.53572 0.17857,0.53572 0.0595,0 -0.0595,-0.17858 0,-0.17858 0.0595,0 -0.0266,0.12534 0,0.17858 0.0377,0.0753 0.14092,0.10327 0.17857,0.17857 0.0266,0.0532 -0.0595,0.17857 0,0.17857 0.0842,0 0.11905,-0.2381 0.17857,-0.17857 0.0842,0.0842 -0.0376,0.2442 0,0.35714 0.0266,0.0799 0.14093,0.10328 0.17857,0.17857 0.0266,0.0532 0.0595,0.17857 0,0.17857 -0.0595,0 -0.0595,-0.17857 0,-0.17857 0.0842,0 0.14093,0.10328 0.17857,0.17857 0.0532,0.10648 -0.0532,0.25067 0,0.35715 0.0377,0.0753 0.0944,0.17857 0.17858,0.17857 0.0595,0 -0.0266,-0.23181 0,-0.17857 0.14335,0.2867 0.35714,0.57231 0.35714,0.89285 0,0.2662 -0.59524,-0.59524 -0.35714,-0.71428 0.23809,-0.11905 0.23809,0.47619 0.35714,0.71428 z"
       id="path8890"
       inkscape:connector-curvature="0" />
    <path
       style="fill:#fc0000;stroke:none;stroke-width:1px;stroke-linecap:butt;stroke-linejoin:miter;stroke-opacity:1;fill-opacity:1;opacity:0.542"
       d="m 96.964655,432.63508 c 0,-0.96104 0,-1.20684 0,-2.02031 0,-0.82776 0,0.44896 0,-0.37881 0,-0.0421 0,0.16836 0,0.12627 0,-0.82776 0,0.44896 0,-0.3788 0,-0.0421 0,0.16836 0,0.12626 0,-0.0842 -0.02042,-0.17087 0,-0.25253 0.02283,-0.0913 0.05972,-0.18599 0.126269,-0.25254 0.02976,-0.0298 0.04209,0.12627 0,0.12627 -0.04209,0 0,-0.0842 0,-0.12627 0,-0.0421 -0.04209,-0.12627 0,-0.12627 0.04209,0 0,0.16836 0,0.12627 0,-0.82777 0,0.44896 0,-0.37881 0,-0.29463 0,-0.58925 0,-0.88388 0,-0.81649 0,-1.24092 0,-1.89404 0,-0.0421 0,0.16836 0,0.12627 0,-0.16836 0,-0.33672 0,-0.50507 0,-0.0421 0,-0.0842 0,-0.12627 0,-0.0421 -0.04209,-0.12627 0,-0.12627 0.04209,0 0,0.16836 0,0.12627 0,-0.0842 0,-0.16836 0,-0.25254 0,-0.0421 0,0.16836 0,0.12627 0,-0.88389 0,0.71552 0,-0.50508 0,-0.0421 0,0.16836 0,0.12627 0,-0.12627 0,-0.25254 0,-0.37881 0,-0.0421 -0.04209,-0.12627 0,-0.12627 0.04209,0 0.04209,0.12627 0,0.12627 -0.04209,0 0,-0.0842 0,-0.12627 0,-0.0421 0,-0.0842 0,-0.12627 0,-0.16835 0,-0.33671 0,-0.50507 0,-0.12627 0,-0.25254 0,-0.37881 0,-0.0421 0,0.16836 0,0.12627 0,-0.0842 0,-0.16836 0,-0.25254 0,-0.0421 -0.04209,-0.12627 0,-0.12627 0.08418,0 -0.04209,0.29463 -0.126269,0.12627 -0.03765,-0.0753 0,-0.16836 0,-0.25254 0,-0.25253 0,-0.50507 0,-0.75761 0,-0.0421 0,-0.0842 0,-0.12627 0,-0.0421 -0.02976,-0.0965 0,-0.12627 0.02976,-0.0298 0.107446,0.0376 0.126269,0 0.05647,-0.11294 0,-0.25254 0,-0.37881 0,-0.47701 0,0.5612 0,-0.25253 0,-0.0421 0,0.16835 0,0.12627 0,-0.0842 0,-0.16836 0,-0.25254 0,-0.0421 0,0.16835 0,0.12627 0,-0.0842 0,-0.16836 0,-0.25254 0,-0.0421 0.04209,0.12627 0,0.12627 -0.04209,0 0,-0.0842 0,-0.12627 0,-0.0421 -0.04209,-0.12627 0,-0.12627 0.05952,0 0.08418,0.16836 0.126269,0.12627 0.0301,-0.0301 0,-0.42349 0,-0.50508 0,-1.17851 -0.126269,-0.12627 0.126269,-0.37881 0.0032,-0.003 0,-0.58391 0,-0.63134 0,-0.0421 0,0.16836 0,0.12627 0,-0.0842 0,-0.16836 0,-0.25254 0,-0.0421 0,0.16836 0,0.12627 0,-0.0842 0,-0.16836 0,-0.25254 0,-0.0421 0.04209,0.12627 0,0.12627 -0.04209,0 -0.02976,-0.0965 0,-0.12627 0.02976,-0.0298 0.09651,0.0298 0.126269,0 0.02976,-0.0298 -0.01882,-0.0886 0,-0.12627 0.02662,-0.0532 0.08418,-0.16836 0.126269,-0.12627 0.04209,0.0421 -0.08418,0.16836 -0.126269,0.12627 -0.05952,-0.0595 0,-0.16836 0,-0.25254 0,-0.0421 0,0.16836 0,0.12627 0,-0.0842 0,-0.16836 0,-0.25254 0,-0.0421 0,0.16836 0,0.12627 0,-0.0842 -0.05952,-0.19301 0,-0.25254 0.04209,-0.0421 0.06675,0.12627 0.126269,0.12627 0.04209,0 -0.02976,-0.0965 0,-0.12627 0.02976,-0.0298 0.12627,0.0421 0.12627,0 0,-0.0595 -0.06675,-0.12626 -0.12627,-0.12626 -0.04209,0 0.04209,0.12626 0,0.12626 -0.04209,0 0,-0.0842 0,-0.12626 0,-0.0421 -0.04209,-0.12627 0,-0.12627 0.04209,0 -0.04209,0.12627 0,0.12627 0.05952,0 0.09965,-0.073 0.12627,-0.12627 0.01882,-0.0376 -0.04209,-0.12627 0,-0.12627 0.04209,0 0.04209,0.12627 0,0.12627 -0.04209,0 0,-0.0842 0,-0.12627 0,-0.0421 -0.04209,-0.12627 0,-0.12627 0.04209,0 -0.02976,0.15603 0,0.12627 0.145092,-0.14509 0.126269,-0.22331 0.126269,-0.37881 0,-0.33672 -0.04209,0.0421 0.126269,-0.12627 0.02976,-0.0298 -0.02976,-0.0965 0,-0.12627 0.02976,-0.0298 0.126269,-0.0421 0.126269,0 0,0.0421 -0.09651,0.0298 -0.126269,0 -0.02976,-0.0298 0,-0.0842 0,-0.12627 0,-0.0421 -0.04209,-0.12626 0,-0.12626 0.04209,0 0,0.16835 0,0.12626 0,-0.0842 0,-0.16835 0,-0.25253 0,-0.0421 -0.01882,-0.0886 0,-0.12627 0.02662,-0.0532 0.09965,-0.073 0.126269,-0.12627 0.01882,-0.0376 -0.04209,-0.12627 0,-0.12627 0.04209,0 0,0.16836 0,0.12627 0,-0.12627 0,-0.25254 0,-0.37881 0,-0.0421 -0.04209,-0.12627 0,-0.12627 0.04209,0 0.04209,0.12627 0,0.12627 -0.04209,0 0,-0.0842 0,-0.12627 0,-0.0421 -0.04209,-0.12627 0,-0.12627 0.05952,0 0.08418,0.16836 0.126269,0.12627 0.0169,-0.0169 -0.01438,-0.58822 0,-0.63134 0.01882,-0.0565 0.07303,-0.0996 0.126269,-0.12627 0.03765,-0.0188 0.126269,0.0421 0.126269,0 0,-0.0595 -0.06674,-0.12627 -0.126269,-0.12627 -0.04209,0 0.04209,0.12627 0,0.12627 -0.04209,0 0,-0.0842 0,-0.12627 0,-0.0421 -0.01882,-0.0886 0,-0.12627 0.02662,-0.0532 0.09965,-0.073 0.126269,-0.12627 0.03765,-0.0753 -0.05952,-0.19301 0,-0.25254 0.06655,-0.0666 0.185988,-0.0597 0.252538,-0.12627 0.02976,-0.0298 -0.09651,0.0298 -0.126269,0 -0.02976,-0.0298 0,-0.0842 0,-0.12627 0,-0.0421 -0.02976,-0.0965 0,-0.12627 0.02976,-0.0298 0.09651,0.0298 0.126269,0 0.05952,-0.0595 -0.08418,-0.25253 0,-0.25253 0.04209,0 0,0.16836 0,0.12627 0,-0.0842 0,-0.16836 0,-0.25254 0,-0.0842 -0.02662,-0.17268 0,-0.25254 0.01882,-0.0565 0.107446,-0.0698 0.126269,-0.12627 0.100022,-0.30006 -0.149474,-0.22933 0.126269,-0.50508 0.02976,-0.0298 0.107446,0.0377 0.126269,0 0.03765,-0.0753 -0.03765,-0.17724 0,-0.25253 0.05324,-0.10648 0.186503,-0.15349 0.252538,-0.25254 0.02335,-0.035 -0.01882,-0.0886 0,-0.12627 0.02662,-0.0532 0.09965,-0.073 0.126269,-0.12627 0.01882,-0.0376 -0.01882,-0.0886 0,-0.12627 0.05324,-0.10648 0.199299,-0.14606 0.252539,-0.25254 0.01882,-0.0376 -0.02976,-0.0965 0,-0.12627 0.02976,-0.0298 0.09651,0.0298 0.126269,0 0.155496,-0.15549 -0.385349,-0.25253 0.252536,-0.25253 0.0595,0 -0.0667,0.12626 -0.126267,0.12626 -0.04209,0 -0.01882,-0.0886 0,-0.12626 0.02662,-0.0532 0.09965,-0.073 0.126267,-0.12627 0.0188,-0.0376 -0.0421,-0.12627 0,-0.12627 0.0421,0 -0.0298,0.15603 0,0.12627 0.23017,-0.23017 -0.0235,-0.50508 0.37881,-0.50508 0.0595,0 -0.0667,0.12627 -0.12627,0.12627 -0.0421,0 0,-0.0842 0,-0.12627 0,-0.0421 -0.0298,-0.0965 0,-0.12627 0.0595,-0.0595 0.25254,0.0842 0.25254,0 0,-0.0595 -0.0996,-0.073 -0.12627,-0.12627 -0.074,-0.14806 0.0749,-0.14987 0.12627,-0.25254 0.0188,-0.0376 0,-0.0842 0,-0.12627 0.0421,-0.0421 0.0997,-0.073 0.12627,-0.12626 0.0376,-0.0753 -0.0753,-0.2149 0,-0.25254 0.0753,-0.0377 0.16836,0 0.25254,0 0.16835,0 -0.46299,0.0421 -0.12627,-0.12627 0.0753,-0.0376 0.19301,0.0595 0.25253,0 0.0421,-0.0421 -0.0667,-0.12627 -0.12626,-0.12627 -0.0421,0 -0.0298,0.15603 0,0.12627 0.35554,-0.008 0.0322,-0.28469 0.12626,-0.37881 0.0298,-0.0298 0.0965,0.0298 0.12627,0 0.0298,-0.0298 -0.0421,-0.12627 0,-0.12627 0.0377,0 -0.0831,0.41878 0.12627,0 0.0188,-0.0377 -0.0188,-0.0886 0,-0.12627 0.0532,-0.10648 0.1993,-0.14606 0.25254,-0.25254 0.0188,-0.0376 -0.0188,-0.0886 0,-0.12626 0.0266,-0.0532 0.0996,-0.073 0.12627,-0.12627 0.0188,-0.0376 -0.0298,-0.0965 0,-0.12627 0.0666,-0.0666 0.18599,-0.0597 0.25254,-0.12627 0.0298,-0.0298 -0.12627,0.0421 -0.12627,0 0,-0.0595 0.0996,-0.073 0.12627,-0.12627 0.0188,-0.0377 -0.0376,-0.10745 0,-0.12627 0.0753,-0.0376 0.16836,0 0.25254,0 0.0421,0 -0.10745,0.0377 -0.12627,0 -0.0376,-0.0753 -0.0595,-0.19301 0,-0.25254 0.0421,-0.0421 0.0667,0.12627 0.12627,0.12627 0.0421,0 -0.0188,-0.0886 0,-0.12627 0.0266,-0.0532 0.073,-0.0996 0.12627,-0.12627 0.0377,-0.0188 0.0965,0.0298 0.12626,0 0.0298,-0.0298 -0.0188,-0.0886 0,-0.12627 0.0758,-0.15152 0.30305,-0.22728 0.37881,-0.3788 0.1555,-0.311 -0.36652,0.11398 0.12627,-0.37881 0.0298,-0.0298 0.0886,0.0188 0.12627,0 0.0532,-0.0266 0.0842,-0.0842 0.12627,-0.12627 0.0421,-0.0421 0.10745,-0.0698 0.12627,-0.12627 0.0266,-0.0799 -0.0595,-0.19301 0,-0.25254 0.0421,-0.0421 0.0667,0.12627 0.12627,0.12627 0.0421,0 -0.0298,-0.0965 0,-0.12627 0.0298,-0.0298 0.0965,0.0298 0.12627,0 0.0298,-0.0298 -0.0298,-0.0965 0,-0.12627 0.0298,-0.0298 0.0965,0.0298 0.12627,0 0.0665,-0.0666 0.0741,-0.17423 0.12626,-0.25253 0.033,-0.0495 0.0842,-0.0842 0.12627,-0.12627 0.0421,-0.0421 0.073,-0.0996 0.12627,-0.12627 0.0376,-0.0188 0.10745,0.0377 0.12627,0 0.0376,-0.0753 0,-0.16836 0,-0.25254 0,-0.0421 0.0421,0.12627 0,0.12627 -0.0421,0 -0.0298,-0.0965 0,-0.12627 0.0298,-0.0298 0.0886,0.0188 0.12627,0 0.0532,-0.0266 0.073,-0.0996 0.12627,-0.12627 0.0376,-0.0188 0.0965,0.0298 0.12627,0 0.0298,-0.0298 -0.0298,-0.0965 0,-0.12627 0.0298,-0.0298 0.10744,0.0376 0.12627,0 0.0376,-0.0753 -0.0595,-0.19301 0,-0.25254 0.0421,-0.0421 0.0667,0.12627 0.12627,0.12627 0.0407,0 0.18238,-0.21746 0.25254,-0.25254 0.0753,-0.0377 0.21489,0.0753 0.25253,0 0.0376,-0.0753 -0.0595,-0.19301 0,-0.25253 0.0421,-0.0421 0.073,0.15289 0.12627,0.12627 0.0842,-0.0421 0.0597,-0.18599 0.12627,-0.25254 0.0298,-0.0298 -0.0298,0.0965 0,0.12627 0.0298,0.0298 0.10745,0.0376 0.12627,0 0.0376,-0.0753 -0.0595,-0.19302 0,-0.25254 0.0421,-0.0421 0.073,0.15289 0.12627,0.12627 0.0842,-0.0421 0.12627,-0.15843 0.12627,-0.25254 0,-0.0595 -0.0842,0.16836 -0.12627,0.12627 -0.0421,-0.0421 0.073,-0.0996 0.12627,-0.12627 0.0376,-0.0188 0.0965,0.0298 0.12627,0 0.0666,-0.0666 0.0597,-0.18599 0.12627,-0.25254 0.0298,-0.0298 -0.0298,0.15603 0,0.12627 0.0665,-0.0666 0.0597,-0.18599 0.12627,-0.25254 0.0298,-0.0298 -0.0298,0.0965 0,0.12627 0.0298,0.0298 0.10744,0.0376 0.12626,0 0.0376,-0.0753 -0.0595,-0.19301 0,-0.25254 0.0421,-0.0421 0.073,0.15289 0.12627,0.12627 0.0842,-0.0421 0.0597,-0.18599 0.12627,-0.25254 0.0298,-0.0298 -0.0298,0.0965 0,0.12627 0.0298,0.0298 0.10745,0.0377 0.12627,0 0.0376,-0.0753 -0.0595,-0.19301 0,-0.25254 0.31717,-0.31716 -0.0646,0.44344 0.25254,0.12627 0.0755,-0.0755 -0.13648,-0.25253 0.12627,-0.25253 0.0421,0 -0.0298,0.0965 0,0.12626 0.0298,0.0298 0.0842,0 0.12627,0 0.0421,0 0.12627,0.0421 0.12627,0 0,-0.0941 -0.12627,-0.15842 -0.12627,-0.25253 0,-0.0595 0.073,0.0996 0.12627,0.12627 0.0232,0.0116 0.3788,-0.009 0.3788,0 0,0.0421 -0.12626,0.0421 -0.12626,0 0,-0.0595 0.0842,-0.0842 0.12626,-0.12627 0.0421,-0.0421 0.0667,-0.12627 0.12627,-0.12627 0.41879,0 0,0.2366 0,0.12627 0,-0.0842 0.19302,0.0595 0.25254,0 0.0666,-0.0666 0.0597,-0.18599 0.12627,-0.25254 0.0298,-0.0298 -0.0298,0.0965 0,0.12627 0.0298,0.0298 0.0842,0 0.12627,0 0.0421,0 0.0842,0 0.12627,0 0.1555,0 0.25254,0.0376 0.25254,-0.25254 0,-0.0595 -0.16836,0.0842 -0.12627,0.12627 0.24663,0.24663 0.32672,-0.20045 0.37881,-0.25254 0.0298,-0.0298 -0.0298,0.0965 0,0.12627 0.0298,0.0298 0.0842,0 0.12626,0 0.0421,0 0.12627,0.0421 0.12627,0 0,-0.0595 -0.12627,-0.0667 -0.12627,-0.12627 0,-0.0595 0.0667,-0.12627 0.12627,-0.12627 0.0421,0 -0.0298,0.0965 0,0.12627 0.0298,0.0298 0.0965,0.0298 0.12627,0 0.0755,-0.0755 -0.13648,-0.25254 0.12627,-0.25254 0.0421,0 -0.0298,0.0965 0,0.12627 0.0298,0.0298 0.0965,0.0298 0.12627,0 0.0595,-0.0595 -0.0842,-0.25254 0,-0.25254 0.41878,0 0,0.2366 0,0.12627 0,-0.0842 0.25254,0.0842 0.25254,0 0,-0.0595 -0.12627,-0.0668 -0.12627,-0.12627 0,-0.0595 0.0667,-0.12627 0.12627,-0.12627 0.0421,0 -0.0298,0.0965 0,0.12627 0.0298,0.0298 0.10744,0.0377 0.12627,0 0.0376,-0.0753 0,-0.16836 0,-0.25254 0,-0.0421 -0.0298,0.0965 0,0.12627 0.0298,0.0298 0.0965,0.0298 0.12627,0 0.0755,-0.0755 -0.13648,-0.25253 0.12627,-0.25253 0.0421,0 -0.0421,0.12626 0,0.12626 0.11904,0 0.13349,-0.25253 0.25253,-0.25253 0.0421,0 -0.0421,0.12627 0,0.12627 0.0595,0 0.12627,-0.0668 0.12627,-0.12627 0,-0.0595 -0.16836,-0.0842 -0.12627,-0.12627 0.0421,-0.0421 0.073,0.15289 0.12627,0.12627 0.0842,-0.0421 0.0597,-0.18599 0.12627,-0.25254 0.0298,-0.0298 -0.0298,0.15603 0,0.12627 0.0666,-0.0666 0.0597,-0.18599 0.12627,-0.25254 0.0298,-0.0298 -0.0298,0.0965 0,0.12627 0.0298,0.0298 0.12627,0.0421 0.12627,0 0,-0.0941 -0.12627,-0.15842 -0.12627,-0.25254 0,-0.0595 0.0667,0.12627 0.12627,0.12627 0.0595,0 0.0997,-0.073 0.12627,-0.12627 0.0188,-0.0376 -0.0421,-0.12627 0,-0.12627 0.0377,0 -0.0831,0.41878 0.12627,0 0.0188,-0.0376 -0.0421,-0.12627 0,-0.12627 0.0595,0 0.0667,0.12627 0.12627,0.12627 0.0421,0 -0.0298,-0.0965 0,-0.12627 0.0298,-0.0298 0.12627,0.0421 0.12627,0 0,-0.26275 -0.2366,-0.11033 -0.12627,0 0.0755,0.0755 0.25254,-0.077 0.25254,-0.12627 0,-0.0421 -0.12627,0.0421 -0.12627,0 0,-0.0421 0.0965,0.0298 0.12627,0 0.0298,-0.0298 -0.0421,-0.12627 0,-0.12627 0.0595,0 0.12626,0.0667 0.12626,0.12627 0,0.0421 -0.12626,0.0421 -0.12626,0 0,-0.0421 0.0965,0.0298 0.12626,0 0.0298,-0.0298 -0.0298,-0.0965 0,-0.12627 0.0298,-0.0298 0.12627,-0.0421 0.12627,0 0,0.11033 -0.41878,-0.12626 0,-0.12626 0.16836,0 -0.21044,0.29462 0.12627,0.12626 0.0702,-0.0351 0.21183,-0.25253 0.25254,-0.25253 0.0421,0 -0.0421,0.12627 0,0.12627 0.11905,0 0.13349,-0.25254 0.25254,-0.25254 0.0421,0 -0.0298,0.0965 0,0.12627 0.0298,0.0298 0.0965,0.0298 0.12627,0 0.0298,-0.0298 -0.0298,-0.0965 0,-0.12627 0.0631,-0.0631 0.31567,0.0631 0.37881,0 0.0298,-0.0298 -0.0421,-0.12627 0,-0.12627 0.0493,0 0.1422,0.2366 0.25253,0.12627 0,-0.33672 -0.0421,0.0421 0.12627,-0.12627 0.0298,-0.0298 -0.0421,-0.12627 0,-0.12627 0.0421,0 -0.0298,0.0965 0,0.12627 0.0298,0.0298 0.12627,-0.0421 0.12627,0 0,0.0421 -0.12627,0.0421 -0.12627,0 0,-0.0842 0.19302,0.0595 0.25254,0 0.0298,-0.0298 -0.0298,-0.0965 0,-0.12627 0.0595,-0.0595 0.19302,0.0595 0.25254,0 0.0298,-0.0298 -0.0421,-0.12627 0,-0.12627 0.0421,0 -0.0298,0.0965 0,0.12627 0.0186,0.0186 0.37881,-0.0148 0.37881,0 0,0.0421 -0.12627,0.0421 -0.12627,0 0,-0.0842 0.19301,0.0595 0.25254,0 0.0298,-0.0298 -0.0298,-0.0965 0,-0.12627 0.0298,-0.0298 0.0842,0 0.12626,0 0.0421,0 0.0842,0 0.12627,0 0.0421,0 0.12627,-0.0421 0.12627,0 0,0.0421 -0.16836,0 -0.12627,0 0.0842,0 0.16836,0 0.25254,0 0.0421,0 -0.12627,0.0421 -0.12627,0 0,-0.0421 0.0842,0 0.12627,0 0.0421,0 0.12627,-0.0421 0.12627,0 0,0.0421 -0.12627,0.0421 -0.12627,0 0,-0.0421 0.0842,0 0.12627,0 0.0421,0 0.0842,0 0.12627,0 0.0421,0 0.12627,-0.0421 0.12627,0 0,0.0421 -0.12627,0.0421 -0.12627,0 0,-0.0421 0.0842,0 0.12627,0 0.0421,0 0.0842,0 0.12627,0 0.0421,0 0.12627,-0.0421 0.12627,0 0,0.0421 -0.12627,0.0421 -0.12627,0 0,-0.0421 0.0842,0 0.12627,0 0.0421,0 0.12627,-0.0421 0.12627,0 0,0.0595 -0.12627,0.0668 -0.12627,0.12627 0,0.0842 0.25253,-0.0842 0.25253,0 0,0.0595 -0.12626,0.0668 -0.12626,0.12627 0,0.0421 0.0965,-0.0298 0.12626,0 0.0298,0.0298 -0.0298,0.0965 0,0.12627 0.0298,0.0298 0.12627,-0.0421 0.12627,0 0,0.0421 -0.0965,-0.0298 -0.12627,0 -0.0298,0.0298 0.0421,0.12627 0,0.12627 -0.0421,0 -0.0421,-0.12627 0,-0.12627 0.0421,0 0,0.0842 0,0.12627 0,0.0421 0.0421,0.12627 0,0.12627 -0.0421,0 0,-0.16836 0,-0.12627 0,0.0842 -0.0595,0.19301 0,0.25253 0.0421,0.0421 0.0842,-0.16835 0.12627,-0.12626 0.0595,0.0595 0,0.16835 0,0.25253 0,0.0421 -0.0421,-0.12627 0,-0.12627 0.0421,0 0,0.0842 0,0.12627 0,0.0421 0.0421,0.12627 0,0.12627 -0.0649,0 0.12627,-0.65671 0.12627,0.12627 0,0.0595 -0.0842,-0.16836 -0.12627,-0.12627 -0.0595,0.0595 0,0.16836 0,0.25254 0,0.0842 0,0.16836 0,0.25254 0,0.0421 0,-0.16836 0,-0.12627 0,0.0842 0,0.16836 0,0.25254 0,0.0421 0,-0.16836 0,-0.12627 0,0.0842 -0.0376,0.17724 0,0.25254 0.0188,0.0376 0.10745,-0.0376 0.12627,0 0.0565,0.11294 0,0.25253 0,0.3788 0,0.21045 0,0.4209 0,0.63135 0,0.0421 0,-0.16836 0,-0.12627 0,0.81373 0,-0.22448 0,0.25254 0,0.43658 0,0.33406 0,0.63134 0,0.0421 0,-0.16835 0,-0.12627 0,0.0842 0,0.16836 0,0.25254 0,0.0421 0,-0.16836 0,-0.12627 0,0.0842 0.0595,0.19302 0,0.25254 -0.0421,0.0421 -0.0842,-0.16836 -0.12627,-0.12627 -0.0595,0.0595 0.0266,0.17268 0,0.25254 -0.0188,0.0565 -0.0996,0.073 -0.12627,0.12627 -0.0188,0.0376 0.0298,0.0965 0,0.12627 -0.0665,0.0666 -0.21044,0.0421 -0.25253,0.12627 -0.0266,0.0532 0.12627,0.0667 0.12627,0.12627 0,0.0941 -0.25254,0.22038 -0.25254,0.12627 0,-0.0421 0.10744,-0.0376 0.12627,0 0.0376,0.0753 0,0.16836 0,0.25253 0,0.0421 0.0298,-0.0965 0,-0.12626 -0.0298,-0.0298 -0.0965,-0.0298 -0.12627,0 -0.45776,0.45776 0,0.22296 0,0.12626 0,-0.0421 -0.10745,-0.0377 -0.12627,0 -0.0376,0.0753 0.0595,0.19302 0,0.25254 -0.0595,0.0595 -0.19302,-0.0595 -0.25254,0 -0.17857,0.0523 0.0893,0.28952 0,0.37881 -0.0298,0.0298 -0.0965,-0.0298 -0.12627,0 -0.0666,0.0666 -0.0421,0.21045 -0.12627,0.25254 -0.0532,0.0266 -0.12627,-0.0667 -0.12627,-0.12627 0,-0.0421 0.54717,0.0421 0.12627,0.25254 -0.0842,0.0421 -0.18599,-0.0597 -0.25254,-0.12627 -0.0298,-0.0298 0.12627,-0.0421 0.12627,0 0,0.36947 -0.17707,-0.0247 -0.25253,0.12627 -0.0628,0.12561 0.05,0.35383 0,0.3788 -0.0753,0.0376 -0.16836,0 -0.25254,0 -0.0421,0 0.14509,-0.0377 0.12627,0 -0.0532,0.10648 -0.16836,0.16836 -0.25254,0.25254 -0.0421,0.0421 0.16836,-0.0842 0.12627,-0.12627 -0.0595,-0.0595 -0.21489,-0.0753 -0.25254,0 -0.0421,0.0842 0.0597,0.18599 0.12627,0.25254 0.0298,0.0298 -0.0421,-0.12627 0,-0.12627 0.0421,0 0.0188,0.0886 0,0.12627 -0.0266,0.0532 -0.0667,0.12627 -0.12627,0.12627 -0.0595,0 -0.12627,-0.0667 -0.12627,-0.12627 0,-0.0421 0.10745,-0.0376 0.12627,0 0.0376,0.0753 0.0467,0.1825 0,0.25254 -0.0522,0.0783 -0.18599,0.0597 -0.25254,0.12627 -0.0298,0.0298 0.12627,-0.0421 0.12627,0 0,0.0595 -0.10745,0.0698 -0.12627,0.12627 -0.0266,0.0799 0.0595,0.19301 0,0.25254 -0.0595,0.0595 -0.17725,-0.0376 -0.25254,0 -0.0376,0.0188 0.0298,0.0965 0,0.12626 -0.0298,0.0298 -0.12627,0.0421 -0.12627,0 0,-0.0421 0.1451,-0.0376 0.12627,0 -0.0532,0.10648 -0.1993,0.14606 -0.25254,0.25254 -0.0188,0.0376 0.16836,0 0.12627,0 -0.0842,0 -0.16836,0 -0.25253,0 -0.0421,0 0.14509,-0.0376 0.12626,0 -0.32538,0.65078 -0.11825,0.12227 -0.3788,0.25254 -0.0532,0.0266 -0.0698,0.10745 -0.12627,0.12627 -0.0799,0.0266 -0.19302,-0.0595 -0.25254,0 -0.0595,0.0595 0.0376,0.17725 0,0.25254 -0.0188,0.0376 -0.0854,-0.0102 -0.12627,0 -0.12912,0.0323 -0.26467,0.0578 -0.37881,0.12627 -0.10208,0.0612 -0.15348,0.1865 -0.25253,0.25254 -0.07,0.0467 -0.19302,-0.0595 -0.25254,0 -0.0665,0.0666 -0.0421,0.21044 -0.12627,0.25253 -0.0532,0.0266 -0.073,-0.15289 -0.12627,-0.12627 -0.0842,0.0421 -0.0597,0.18599 -0.12627,0.25254 -0.0595,0.0595 -0.17725,-0.0376 -0.25254,0 -0.25955,0.12978 -0.0199,0.27241 -0.25254,0.50508 -0.0421,0.0421 -0.0667,-0.12627 -0.12627,-0.12627 -0.0595,0 -0.073,0.0996 -0.12626,0.12627 -0.11905,0.0595 -0.2847,0.0322 -0.37881,0.12627 -0.0595,0.0595 0.0505,0.18519 0,0.25254 -0.52708,0.70277 -0.18366,0.0287 -0.63135,0.25253 -0.0376,0.0188 0.035,0.10293 0,0.12627 -0.11074,0.0738 -0.26806,0.0524 -0.3788,0.12627 -0.035,0.0233 0.0376,0.10745 0,0.12627 -0.0753,0.0376 -0.2149,-0.0753 -0.25254,0 -0.0421,0.0842 0.19282,0.18599 0.12627,0.25254 -0.0666,0.0666 -0.18599,-0.0597 -0.25254,-0.12627 -0.0298,-0.0298 0.12627,-0.0421 0.12627,0 0,0.0421 -0.0965,-0.0298 -0.12627,0 -0.0665,0.0666 -0.12627,0.15842 -0.12627,0.25254 0,0.22066 0.44854,-0.70108 -0.12627,-0.12627 -0.0421,0.0421 0.16836,0.0842 0.12627,0.12627 -0.0595,0.0595 -0.16836,0 -0.25254,0 -0.0421,0 -0.12627,-0.0421 -0.12627,0 0,0.59225 0.44855,-0.44854 -0.12627,0.12627 -0.0421,0.0421 0.16836,0.0842 0.12627,0.12627 -0.0595,0.0595 -0.16836,0 -0.25254,0 -0.0421,0 0.16836,0 0.12627,0 -0.0842,0 -0.21489,-0.0753 -0.25253,0 -0.0421,0.0842 0.19281,0.18599 0.12626,0.25254 -0.0665,0.0666 -0.18598,-0.0597 -0.25253,-0.12627 -0.0298,-0.0298 0.12627,-0.0421 0.12627,0 0,0.0595 -0.073,0.0996 -0.12627,0.12627 -0.0753,0.0377 -0.19302,-0.0595 -0.25254,0 -0.0666,0.0666 -0.0597,0.18598 -0.12627,0.25253 -0.0298,0.0298 -0.0421,-0.12627 0,-0.12627 0.0421,0 0.0376,0.10745 0,0.12627 -0.0753,0.0376 -0.1825,-0.0467 -0.25254,0 -0.0783,0.0522 -0.0597,0.18599 -0.12627,0.25254 -0.0298,0.0298 -0.0886,-0.0188 -0.12627,0 -0.5255,0.26275 0.13499,-0.009 -0.12627,0.25254 -0.49279,0.49279 -0.0678,-0.0292 -0.3788,0.12627 -0.0532,0.0266 -0.0996,0.073 -0.12627,0.12627 -0.0188,0.0377 0.0376,0.10744 0,0.12627 -0.0753,0.0376 -0.19302,-0.0595 -0.25254,0 -0.0421,0.0421 0.16836,0.0842 0.12627,0.12627 -0.0595,0.0595 -0.17725,-0.0376 -0.25254,0 -0.0376,0.0188 0.0298,0.0965 0,0.12626 -0.0595,0.0595 -0.25254,-0.0842 -0.25254,0 0,0.0941 0.16836,0.16836 0.12627,0.25254 -0.12627,0.25254 -0.25254,-0.12627 -0.37881,0 -0.0595,0.0595 0.0753,0.21489 0,0.25254 -0.0753,0.0376 -0.18249,-0.0467 -0.25253,0 -0.15662,0.10441 -0.0842,0.4209 -0.25254,0.50508 -0.0532,0.0266 -0.073,-0.15289 -0.12627,-0.12627 -0.0842,0.0421 -0.0741,0.17423 -0.12627,0.25254 -0.033,0.0495 -0.12627,0.0667 -0.12627,0.12627 0,0.0421 0.15603,-0.0298 0.12627,0 -0.0666,0.0666 -0.18599,0.0597 -0.25254,0.12626 -0.0298,0.0298 0.0842,0 0.12627,0 -0.0842,0.0421 -0.18599,0.0597 -0.25254,0.12627 -0.0298,0.0298 0.12627,-0.0421 0.12627,0 0,0.0595 -0.073,0.0996 -0.12627,0.12627 -0.0376,0.0188 -0.12627,-0.0421 -0.12627,0 0,0.0941 0.12627,0.15843 0.12627,0.25254 0,0.0421 -0.0842,0 -0.12627,0 -0.0421,0 -0.12627,0.0421 -0.12627,0 0,-0.0421 0.12627,-0.0421 0.12627,0 0,0.0595 -0.0996,0.073 -0.12627,0.12627 -0.0188,0.0376 0.0298,0.0965 0,0.12627 -0.0298,0.0298 -0.0842,0 -0.12626,0 0.0421,0.0421 0.15288,0.073 0.12626,0.12627 -0.0421,0.0842 -0.21044,0.0421 -0.25253,0.12627 -0.0266,0.0532 0.12627,0.0668 0.12627,0.12627 0,0.0421 -0.0965,-0.0298 -0.12627,0 -0.0298,0.0298 0.0188,0.0886 0,0.12627 -0.0266,0.0532 -0.0996,0.073 -0.12627,0.12626 -0.0188,0.0376 0.0188,0.0886 0,0.12627 -0.0266,0.0532 -0.12627,0.0667 -0.12627,0.12627 0,0.0421 0.12627,-0.0421 0.12627,0 0,0.11905 -0.25254,0.13349 -0.25254,0.25254 0,0.0595 0.12627,0.0667 0.12627,0.12627 0,0.0595 -0.10745,0.0698 -0.12627,0.12627 -0.0266,0.0799 0,0.16836 0,0.25254 0,0.0421 -0.0421,-0.12627 0,-0.12627 0.0421,0 0,0.0842 0,0.12627 0,0.0421 0.0298,0.0965 0,0.12627 -0.0298,0.0298 -0.12627,-0.0421 -0.12627,0 0,0.0595 0.12627,0.0668 0.12627,0.12627 0,0.0595 -0.0996,0.073 -0.12627,0.12626 -0.0188,0.0376 0.0188,0.0886 0,0.12627 -0.0266,0.0532 -0.0997,0.073 -0.12627,0.12627 -0.0188,0.0376 0,0.0842 0,0.12627 0,0.0421 0.0188,0.0886 0,0.12627 -0.0266,0.0532 -0.10745,0.0698 -0.12627,0.12627 -0.0266,0.0799 0,0.16836 0,0.25254 0,0.0421 0.0188,0.0886 0,0.12627 -0.0266,0.0532 -0.10744,0.0698 -0.12627,0.12626 -0.0266,0.0799 0.0266,0.17268 0,0.25254 -0.0188,0.0565 -0.10744,0.0698 -0.12627,0.12627 -0.0266,0.0799 0.0204,0.17087 0,0.25254 -0.0228,0.0913 -0.0965,0.16325 -0.12627,0.25254 -0.0266,0.0799 0.0376,0.17724 0,0.25254 -0.0266,0.0532 -0.0996,0.073 -0.12626,0.12627 -0.025,0.0501 0.0258,0.35299 0,0.3788 -0.0298,0.0298 -0.12627,-0.0421 -0.12627,0 0,0.0493 0.2366,0.14221 0.12627,0.25254 -0.0298,0.0298 -0.0965,-0.0298 -0.12627,0 -0.0298,0.0298 0.0188,0.0886 0,0.12627 -0.0266,0.0532 -0.12627,0.0667 -0.12627,0.12627 0,0.20534 0.2366,0.0319 0.12627,0.25254 -0.0266,0.0532 -0.0996,0.073 -0.12627,0.12627 -0.0188,0.0376 0.0133,0.0863 0,0.12627 -0.0298,0.0893 -0.12627,0.15842 -0.12627,0.25253 0,0.0595 0.12627,0.0667 0.12627,0.12627 0,0.0595 -0.0996,0.073 -0.12627,0.12627 -0.025,0.0501 0.0258,0.35299 0,0.37881 -0.0298,0.0298 -0.0965,-0.0298 -0.12627,0 -0.005,0.005 0,0.4587 0,0.50507 0,0.0421 0.0421,0.12627 0,0.12627 -0.0421,0 0.0421,-0.12627 0,-0.12627 -0.0595,0 -0.12627,0.0668 -0.12627,0.12627 0,0.0421 0.0965,-0.0298 0.12627,0 0.0987,0.0987 -0.10983,0.21967 -0.12627,0.25254 -0.0505,0.10102 0.0505,0.27779 0,0.37881 -0.0266,0.0532 -0.0996,0.073 -0.12627,0.12627 -0.0505,0.10101 0.0505,0.27779 0,0.37881 -0.0266,0.0532 -0.0997,0.073 -0.12627,0.12626 -0.0397,0.0794 0.0397,0.42572 0,0.50508 -0.0266,0.0532 -0.12627,0.0668 -0.12627,0.12627 0,0.0595 0.12627,0.0668 0.12627,0.12627 0,0.0595 -0.0996,0.073 -0.12627,0.12627 -0.0188,0.0376 0.0188,0.0886 0,0.12627 -0.0266,0.0532 -0.12627,0.0667 -0.12627,0.12627 0,0.20534 0.2366,0.0319 0.12627,0.25253 -0.0266,0.0532 -0.0996,0.073 -0.12627,0.12627 -0.21894,0.4379 0.21895,-0.18535 0,0.25254 -0.0266,0.0532 -0.0996,0.073 -0.12627,0.12627 -0.0376,0.0753 0.0376,0.17725 0,0.25254 -0.0266,0.0532 -0.0996,0.073 -0.12626,0.12627 -0.0376,0.0753 0.0376,0.17724 0,0.25254 -0.0266,0.0532 -0.0996,0.073 -0.12627,0.12627 -0.0505,0.10101 0.0505,0.27779 0,0.3788 -0.0266,0.0532 -0.0997,0.073 -0.12627,0.12627 -0.0376,0.0753 0.0376,0.17725 0,0.25254 -0.0266,0.0532 -0.12627,0.0667 -0.12627,0.12627 0,0.0595 0.12627,0.0667 0.12627,0.12627 0,0.0421 -0.10745,-0.0376 -0.12627,0 -0.11294,0.0996 0.0565,0.26587 0,0.3788 -0.28894,0.57789 0.0523,-0.53581 -0.25254,0.37881 -0.0133,0.0399 0.0421,0.12627 0,0.12627 -0.0421,0 0,-0.16836 0,-0.12627 0,0.0842 0.0266,0.17268 0,0.25254 -0.0188,0.0565 -0.12627,0.0667 -0.12627,0.12627 0,0.0421 0.12627,-0.0421 0.12627,0 0,0.0595 -0.0667,0.12627 -0.12627,0.12627 -0.0421,0 0,-0.16836 0,-0.12627 0,0.0842 0.0595,0.19301 0,0.25254 -0.0421,0.0421 -0.0842,-0.16836 -0.12627,-0.12627 -0.0595,0.0595 0,0.16836 0,0.25254 0,0.0421 0.0421,0.12627 0,0.12627 -0.0595,0 -0.0842,-0.16836 -0.126267,-0.12627 -0.03221,0.0322 0.03221,0.34659 0,0.3788 -0.02976,0.0298 -0.09651,-0.0298 -0.126269,0 -0.05952,0.0595 0.08418,0.25254 0,0.25254 -0.04209,0 0.04209,-0.12627 0,-0.12627 -0.156031,0 -0.126269,0.17708 -0.126269,0.25254 0,0.38602 0.08835,-0.30296 -0.126269,0.12627 -0.03765,0.0753 0.05952,0.19301 0,0.25254 -0.02976,0.0298 -0.107446,-0.0376 -0.12627,0 -0.03765,0.0753 0,0.16836 0,0.25254 0,0.0421 0.02976,0.0965 0,0.12627 -0.02976,0.0298 -0.107446,-0.0376 -0.126269,0 -0.03765,0.0753 0.02662,0.17267 0,0.25253 -0.01882,0.0565 -0.09965,0.073 -0.126269,0.12627 -0.01882,0.0376 0.04209,0.12627 0,0.12627 -0.04209,0 0,-0.16836 0,-0.12627 0,0.0842 0,0.16836 0,0.25254 0,0.0421 0.02976,-0.15603 0,-0.12627 -0.06655,0.0666 -0.09651,0.16325 -0.126269,0.25254 -0.01331,0.0399 0.04209,0.12627 0,0.12627 -0.05952,0 -0.08418,-0.16836 -0.126269,-0.12627 -0.05952,0.0595 0,0.16836 0,0.25254 0,0.0421 0,0.0842 0,0.12627 0,0.0421 0.04209,0.12627 0,0.12627 -0.05952,0 -0.06674,-0.12627 -0.126269,-0.12627 -0.08418,0 0.08418,0.25254 0,0.25254 -0.155497,0 0.385349,-0.63789 -0.252538,0 -0.02976,0.0298 0.09651,-0.0298 0.126269,0 0.02976,0.0298 0.04209,0.12626 0,0.12626 -0.01286,0 0.06641,-0.63788 -0.252538,0 -0.02662,0.0532 0.06675,0.12627 0.126269,0.12627 0.04209,0 0.04209,-0.12627 0,-0.12627 -0.05952,0 -0.07303,0.0996 -0.126269,0.12627 -0.03765,0.0188 -0.09651,-0.0298 -0.126269,0 -0.02976,0.0298 0.03765,0.10745 0,0.12627 -0.07529,0.0376 -0.168359,0 -0.252538,0 -0.08418,0 -0.168359,0 -0.252538,0 -0.04209,0 0.126269,-0.0421 0.126269,0 0,0.0421 -0.08418,0 -0.126269,0 -0.08418,0 -0.168359,0 -0.252539,0 -0.827763,0 0.448957,0 -0.378807,0 -0.04209,0 0.168359,0 0.126269,0 -0.08418,0 -0.168358,0 -0.252538,0 -0.04209,0 0.136477,0.0408 0.126269,0 -0.04565,-0.18261 -0.168359,-0.33672 -0.252538,-0.50507 z"
       id="path8898"
       inkscape:connector-curvature="0" />
  </g>
</svg>
