<?xml version="1.0" encoding="UTF-8" standalone="no"?>
<!-- Created with Inkscape (http://www.inkscape.org/) -->

<svg
   xmlns:dc="http://purl.org/dc/elements/1.1/"
   xmlns:cc="http://creativecommons.org/ns#"
   xmlns:rdf="http://www.w3.org/1999/02/22-rdf-syntax-ns#"
   xmlns:svg="http://www.w3.org/2000/svg"
   xmlns="http://www.w3.org/2000/svg"
   xmlns:sodipodi="http://sodipodi.sourceforge.net/DTD/sodipodi-0.dtd"
   xmlns:inkscape="http://www.inkscape.org/namespaces/inkscape"
   width="200"
   height="369"
   id="svg2"
   version="1.1"
   inkscape:version="0.92.2 5c3e80d, 2017-08-06"
   sodipodi:docname="muscle-19.svg">
  <defs
     id="defs4" />
  <sodipodi:namedview
     id="base"
     pagecolor="#ffffff"
     bordercolor="#666666"
     borderopacity="1.0"
     inkscape:pageopacity="0"
     inkscape:pageshadow="2"
     inkscape:zoom="0.98994949"
     inkscape:cx="-87.425132"
     inkscape:cy="204.32481"
     inkscape:document-units="px"
     inkscape:current-layer="layer1"
     showgrid="false"
     fit-margin-top="0"
     fit-margin-left="0"
     fit-margin-right="0"
     fit-margin-bottom="0"
     inkscape:window-width="1440"
     inkscape:window-height="790"
     inkscape:window-x="0"
     inkscape:window-y="1"
     inkscape:window-maximized="1"
     height="524.41px" />
  <metadata
     id="metadata7">
    <rdf:RDF>
      <cc:Work
         rdf:about="">
        <dc:format>image/svg+xml</dc:format>
        <dc:type
           rdf:resource="http://purl.org/dc/dcmitype/StillImage" />
        <dc:title></dc:title>
      </cc:Work>
    </rdf:RDF>
  </metadata>
  <g
     inkscape:label="Ebene 1"
     inkscape:groupmode="layer"
     id="layer1"
     transform="translate(-395.71431,-316.50506)">
    <path
       style="fill:#f57900;stroke:none;stroke-width:1px;stroke-linecap:butt;stroke-linejoin:miter;stroke-opacity:1;fill-opacity:1;opacity:0.536"
       d="m 417.68513,494.58623 c 0,-0.20405 -0.2381,-1.09915 0.25254,-1.26269 0.15972,-0.0532 0.42978,0.15058 0.50507,0 0.11905,-0.2381 -0.44077,-0.56939 -0.25254,-0.75762 0.16836,-0.0842 0.33672,-0.16836 0.50508,-0.25254 -0.0842,-0.0842 -0.30578,-0.14605 -0.25254,-0.25253 0.0842,-0.16836 0.37198,-0.11944 0.50508,-0.25254 0.0595,-0.0595 -0.19302,0.0595 -0.25254,0 -0.0595,-0.0595 -0.0595,-0.19302 0,-0.25254 0.1331,-0.1331 0.4209,-0.0842 0.50508,-0.25254 0.0532,-0.10648 -0.30578,-0.14606 -0.25254,-0.25254 0.0842,-0.16835 0.37198,-0.11943 0.50507,-0.25253 0.0595,-0.0595 -0.19301,0.0595 -0.25253,0 -0.0595,-0.0595 -0.0842,-0.25254 0,-0.25254 0.0842,0 0.0842,0.25254 0,0.25254 -0.125,0 0.002,-0.50508 0.25253,-0.50508 0.0842,0 0.0842,0.25254 0,0.25254 -0.0842,0 -0.0595,-0.19302 0,-0.25254 0.0595,-0.0595 0.25254,0.0842 0.25254,0 0,-0.11905 -0.13349,-0.25254 -0.25254,-0.25254 -0.0842,0 0.0842,0.25254 0,0.25254 -0.0842,0 0,-0.16836 0,-0.25254 0,-0.0842 0,-0.16836 0,-0.25254 0,-0.0842 -0.0842,-0.25253 0,-0.25253 0.0842,0 -0.0595,0.19301 0,0.25253 0.0595,0.0595 0.19302,0.0595 0.25254,0 0.0595,-0.0595 0,-0.16836 0,-0.25253 0,-0.0842 -0.0595,-0.19302 0,-0.25254 0.0595,-0.0595 0.25254,0.0842 0.25254,0 0,-0.11905 -0.1993,-0.14606 -0.25254,-0.25254 -0.0376,-0.0753 0,-0.16836 0,-0.25254 0,-0.0842 -0.0376,-0.17724 0,-0.25254 0.0532,-0.10648 0.14606,-0.1993 0.25254,-0.25254 0.0753,-0.0376 0.25254,0.0842 0.25254,0 0,-0.11904 -0.1993,-0.14605 -0.25254,-0.25253 -0.0376,-0.0753 0,-0.16836 0,-0.25254 0,-0.0842 -0.0842,-0.25254 0,-0.25254 0.0842,0 0.0842,0.25254 0,0.25254 -0.0842,0 0,-0.16836 0,-0.25254 0,-0.0842 -0.0376,-0.17725 0,-0.25254 0.0532,-0.10648 0.1993,-0.14606 0.25254,-0.25254 0.10102,-0.20203 -0.10102,-0.55558 0,-0.75761 0.0532,-0.10648 0.14606,-0.1993 0.25254,-0.25254 0.0753,-0.0376 0.25254,0.0842 0.25254,0 0,-0.11905 -0.1993,-0.14606 -0.25254,-0.25254 -0.0376,-0.0753 0,-0.16836 0,-0.25253 0,-0.0842 -0.0376,-0.17725 0,-0.25254 0.0532,-0.10648 0.1993,-0.14606 0.25254,-0.25254 0.0376,-0.0753 -0.0595,-0.19302 0,-0.25254 0.0595,-0.0595 0.25253,-0.0842 0.25253,0 0,0.0842 -0.19301,0.0595 -0.25253,0 -0.0595,-0.0595 0,-0.16836 0,-0.25254 0,-0.0842 -0.0377,-0.17724 0,-0.25254 0.0532,-0.10647 0.19929,-0.14605 0.25253,-0.25253 0.0753,-0.15059 -0.0753,-0.3545 0,-0.50508 0.0532,-0.10648 0.14606,-0.1993 0.25254,-0.25254 0.0753,-0.0376 0.25254,0.0842 0.25254,0 0,-0.11905 -0.1993,-0.14606 -0.25254,-0.25254 -0.22448,-0.44895 0.1403,-0.1403 0.25254,-0.25253 0.0595,-0.0595 -0.0595,-0.19302 0,-0.25254 0.0595,-0.0595 0.25254,-0.0842 0.25254,0 0,0.0842 -0.21489,0.0753 -0.25254,0 -0.0753,-0.15059 0,-0.33672 0,-0.50508 0,-0.16836 -0.0842,1.43105 0.50508,0.25254 0.0842,-0.16836 -0.11944,-0.37198 -0.25254,-0.50508 -0.0595,-0.0595 0,0.33672 0,0.25254 0,-0.16836 0,-0.33672 0,-0.50507 0,-0.0842 0.0842,0.25253 0,0.25253 -0.0842,0 -0.0595,-0.19301 0,-0.25253 0.11905,-0.11905 0.50507,0.16835 0.50507,0 0,-0.11905 -0.21489,-0.1396 -0.25253,-0.25254 -0.0532,-0.15972 0,-0.33672 0,-0.50508 0,-0.0842 -0.0842,0.25254 0,0.25254 0.31206,0 0.25253,-0.35415 0.25253,-0.50508 0,-0.0672 -0.0417,-0.73676 0,-0.75761 0.15059,-0.0753 0.42979,0.15058 0.50508,0 0.0842,-0.16836 -0.19301,-0.32651 -0.25254,-0.50508 -0.0266,-0.0799 0,-0.16836 0,-0.25254 0,-0.0842 -0.0753,-0.21489 0,-0.25253 0.15059,-0.0753 0.38603,0.11904 0.50508,0 0.0842,-0.0842 -0.1993,-0.14606 -0.25254,-0.25254 -0.0376,-0.0753 0,-0.16836 0,-0.25254 0,-0.16836 -0.11905,-0.38603 0,-0.50508 0.0842,-0.0842 0.14606,0.30578 0.25254,0.25254 1.23743,-0.61871 0.0172,-0.48793 0,-0.50508 -0.0595,-0.0595 0,-0.16835 0,-0.25253 0,-0.0842 -0.0595,-0.19302 0,-0.25254 0.1331,-0.1331 0.37198,-0.11944 0.50508,-0.25254 0.0595,-0.0595 -0.2149,0.0753 -0.25254,0 -0.0753,-0.15058 0,-0.33672 0,-0.50508 0,-0.0842 0,0.33672 0,0.25254 0,-0.16836 0,-0.33672 0,-0.50507 0,-0.0842 0.0842,0.25253 0,0.25253 -0.0842,0 0,-0.16835 0,-0.25253 0,-0.0842 -0.0376,-0.17725 0,-0.25254 0.0532,-0.10648 0.19929,-0.14606 0.25254,-0.25254 0.0376,-0.0753 -0.0377,-0.17725 0,-0.25254 0.0532,-0.10648 0.21489,-0.1396 0.25253,-0.25254 3.8e-4,-0.001 -2.4e-4,-0.75737 0,-0.75761 0.16836,-0.0842 0.33672,-0.16836 0.50508,-0.25254 -0.0842,-0.0842 -0.30578,-0.14606 -0.25254,-0.25254 0.0842,-0.16836 0.4209,-0.0842 0.50508,-0.25254 0.0532,-0.10647 -0.25254,-0.13349 -0.25254,-0.25253 0,-1.56596 0.38231,-0.25254 0.25254,-0.25254 -0.0842,0 0,-0.16836 0,-0.25254 0,-0.0842 -0.0595,-0.19301 0,-0.25254 0.15092,-0.15092 0.50507,0.27297 0.50507,-0.25254 0,-0.11904 -0.13349,-0.25253 -0.25253,-0.25253 -0.0842,0 0,0.33671 0,0.25253 0,-0.16835 0,-0.33671 0,-0.50507 0,-0.0842 0,0.33672 0,0.25254 0,-0.16836 -0.11905,-0.38603 0,-0.50508 0.0842,-0.0842 0.14606,0.1993 0.25253,0.25254 0.0753,0.0376 0.25254,0.0842 0.25254,0 0,-0.18823 -0.11944,-0.37198 -0.25254,-0.50508 -0.0595,-0.0595 0,0.33672 0,0.25254 0,-1.65553 0,0.89791 0,-0.75761 0,-0.33672 -0.0842,0.92597 0.25254,0.25253 0.0753,-0.15058 0,-0.33671 0,-0.50507 0,-0.0842 0,0.33671 0,0.25254 0,-0.16836 0,-0.33672 0,-0.50508 0,-0.0842 0,0.33672 0,0.25254 0,-0.16836 -0.11905,-0.38603 0,-0.50508 0.0842,-0.0842 0.16836,0.33672 0.25254,0.25254 0.25254,-0.25254 -0.12627,-0.50508 0,-0.75762 0.0532,-0.10647 0.16836,-0.16835 0.25254,-0.25253 0,-0.16836 -0.0408,-0.34175 0,-0.50508 0.0457,-0.18261 0.19301,-0.3265 0.25254,-0.50508 0.0266,-0.0799 0,-0.16836 0,-0.25253 0,-0.40009 -0.0753,-0.68233 0.25254,-1.01016 0.0595,-0.0595 0,0.33672 0,0.25254 0,-0.16836 -0.0753,-0.35449 0,-0.50508 0.0376,-0.0753 0.21489,0.0753 0.25253,0 0.0753,-0.15058 0,-0.33671 0,-0.50507 0,-0.0842 0,0.33672 0,0.25254 0,-0.16836 0,-0.33672 0,-0.50508 0,-0.33672 -0.0842,0.92597 0.25254,0.25254 0.0753,-0.15059 0,-0.33672 0,-0.50508 0,-0.0842 0,0.33672 0,0.25254 0,-0.16836 -0.15058,-0.42978 0,-0.50508 0.16836,-0.0842 0.37198,0.38564 0.50508,0.25254 0.1331,-0.1331 -0.11944,-0.37197 -0.25254,-0.50507 -0.0595,-0.0595 -0.0595,0.31206 0,0.25253 0.1331,-0.1331 0.11944,-0.37197 0.25254,-0.50507 0.0595,-0.0595 0,0.33672 0,0.25254 0,-0.16836 0,-0.33672 0,-0.50508 0,-0.0842 -0.0842,0.25254 0,0.25254 0.11904,0 0.1993,-0.14606 0.25254,-0.25254 0.0753,-0.15058 -0.0753,-0.35449 0,-0.50508 0.0532,-0.10648 0.13349,-0.25253 0.25253,-0.25253 0.0842,0 0.0842,0.25253 0,0.25253 -0.0842,0 0,-0.16836 0,-0.25253 0,-0.0842 -0.0842,-0.25254 0,-0.25254 0.0842,0 0.0842,0.25254 0,0.25254 -0.0842,0 0,-0.16836 0,-0.25254 0,-0.0842 -0.0842,-0.25254 0,-0.25254 0.11905,0 0.14606,0.1993 0.25254,0.25254 0.0753,0.0376 0.25254,0.0842 0.25254,0 0,-0.18823 -0.19301,-0.32651 -0.25254,-0.50508 -0.0266,-0.0799 0,-0.16836 0,-0.25254 0,-0.0842 -0.0377,-0.17724 0,-0.25254 0.0532,-0.10647 0.1993,-0.14605 0.25254,-0.25253 0.0839,-0.16773 -0.0932,-0.87038 0,-1.01016 0.10441,-0.15661 0.31685,-0.25253 0.50508,-0.25253 0.11904,0 -0.16836,0.33671 -0.25254,0.25253 -0.11905,-0.11904 0,-0.33671 0,-0.50507 0,-0.0842 0,0.33672 0,0.25254 0,-0.16836 0,-0.33672 0,-0.50508 0,-0.0842 -0.0595,0.31206 0,0.25254 0.1331,-0.1331 0.11944,-0.37198 0.25254,-0.50508 0.0595,-0.0595 0,0.33672 0,0.25254 0,-1.65553 0,0.89791 0,-0.75761 0,-0.0842 0,0.33671 0,0.25253 0,-0.16836 -0.11905,-0.38603 0,-0.50507 0.0842,-0.0842 0.16836,0.33671 0.25253,0.25254 0.11905,-0.11905 0,-0.33672 0,-0.50508 0,-0.0842 0.0842,0.25254 0,0.25254 -0.0842,0 0,-0.16836 0,-0.25254 0,-0.0842 -0.0842,-0.25254 0,-0.25254 0.0842,0 0.0842,0.25254 0,0.25254 -0.0842,0 0,-0.16836 0,-0.25254 0,-0.0842 -0.0842,-0.25254 0,-0.25254 0.11905,0 0.13349,0.25254 0.25254,0.25254 0.16836,0 -0.16836,-0.50508 0,-0.50508 0.11905,0 0.25254,0.1335 0.25254,0.25254 0,0.0842 -0.21489,0.0753 -0.25254,0 -0.0753,-0.15058 0,-0.33671 0,-0.50507 0,-0.0842 -0.0595,0.31206 0,0.25253 0.1331,-0.13309 0.11944,-0.37197 0.25254,-0.50507 0.0595,-0.0595 0,0.33672 0,0.25254 0,-0.16836 0,-0.33672 0,-0.50508 0,-0.0842 -0.0595,-0.19301 0,-0.25254 0.0595,-0.0595 0.19301,0.0595 0.25254,0 0.001,-10e-4 -0.002,-0.74789 0,-0.75761 0.0522,-0.26103 0.18797,-0.49937 0.25254,-0.75762 0.0204,-0.0817 -0.0266,-0.17268 0,-0.25253 0.0842,-0.16836 0.16836,-0.33672 0.25254,-0.50508 0.0842,0 0.19301,0.0595 0.25253,0 0.0595,-0.0595 -0.0266,-0.17268 0,-0.25254 0.0595,-0.17857 0.19302,-0.3265 0.25254,-0.50508 0.0266,-0.0799 0,-0.16835 0,-0.25253 0.0842,-0.0842 0.1993,-0.14606 0.25254,-0.25254 0.0753,-0.15059 -0.16836,-0.50508 0,-0.50508 0.18823,0 0.31685,0.25254 0.50508,0.25254 0.11904,0 -0.1993,-0.14606 -0.25254,-0.25254 -0.0376,-0.0753 -0.0842,-0.25254 0,-0.25254 0.0842,0 -0.0842,0.25254 0,0.25254 0.11904,0 0.1993,-0.14606 0.25254,-0.25254 0.0753,-0.15058 -0.16836,-0.50507 0,-0.50507 0.35776,0 -0.71553,1.17851 0,-0.25254 0.0376,-0.0753 0.19301,0.0595 0.25253,0 0.11905,-0.11905 -0.11904,-0.38603 0,-0.50508 0.0595,-0.0595 0.19302,0.0595 0.25254,0 0.11905,-0.11904 -0.0753,-0.35449 0,-0.50507 0.0532,-0.10648 0.13349,-0.25254 0.25254,-0.25254 0.0842,0 0,0.33672 0,0.25254 0,-0.16836 0,-0.33672 0,-0.50508 0,-0.0842 -0.0842,0.25254 0,0.25254 0.11905,0 0.16836,-0.16836 0.25254,-0.25254 0.0842,-0.0842 0.25254,-0.13349 0.25254,-0.25254 0,-0.0842 -0.19302,0.0595 -0.25254,0 -0.0595,-0.0595 -0.0595,-0.19301 0,-0.25254 0.0595,-0.0595 0.19301,0.0595 0.25254,0 0.0595,-0.0595 0,-0.16835 0,-0.25253 0,-0.0842 0,-0.16836 0,-0.25254 0,-0.0842 -0.0842,-0.25254 0,-0.25254 0.11904,0 0.13349,0.25254 0.25253,0.25254 0.0842,0 0,-0.16836 0,-0.25254 0,-0.0842 0,-0.16836 0,-0.25254 0,-0.0842 -0.0842,-0.25254 0,-0.25254 0.11905,0 0.16836,0.33672 0.25254,0.25254 0.25254,-0.25254 -0.12627,-0.50507 0,-0.75761 0.0532,-0.10648 0.1993,-0.14606 0.25254,-0.25254 0.0376,-0.0753 -0.0376,-0.17725 0,-0.25254 0.57789,-1.15577 -0.10467,1.07163 0.50508,-0.75761 0.0266,-0.0799 0,-0.16836 0,-0.25254 0.0842,-0.0842 0.1993,-0.14606 0.25254,-0.25254 0.0377,-0.0753 -0.0376,-0.17725 0,-0.25254 0.0532,-0.10648 0.19929,-0.14606 0.25253,-0.25254 0.0753,-0.15058 -0.11904,-0.38602 0,-0.50507 0.0595,-0.0595 0.19302,0.0595 0.25254,0 0.11905,-0.11905 -0.11905,-0.38603 0,-0.50508 0.0595,-0.0595 0.19302,0.0595 0.25254,0 0.11905,-0.11905 -0.11905,-0.38603 0,-0.50507 0.0595,-0.0595 0.19301,0.0595 0.25254,0 0.15092,-0.15093 -0.27297,-0.50508 0.25254,-0.50508 0.0842,0 0.0842,0.25254 0,0.25254 -0.0842,0 0,-0.16836 0,-0.25254 0,-0.0842 -0.0842,-0.25254 0,-0.25254 0.11904,0 0.13349,0.25254 0.25253,0.25254 0.16836,0 -0.16835,-0.50508 0,-0.50508 0.11905,0 0.13349,0.25254 0.25254,0.25254 0.16836,0 -0.11905,-0.38603 0,-0.50508 0.0595,-0.0595 0.19302,0.0595 0.25254,0 0.0595,-0.0595 -0.0595,-0.19301 0,-0.25253 0.0595,-0.0595 0.19301,0.0595 0.25254,0 0.0595,-0.0595 -0.0595,-0.19302 0,-0.25254 0.0595,-0.0595 0.17724,0.0376 0.25254,0 0.10648,-0.0532 0.14606,-0.1993 0.25254,-0.25254 0.15058,-0.0753 0.38602,0.11905 0.50507,0 0.0595,-0.0595 -0.0595,-0.19301 0,-0.25254 0.12627,-0.12627 0.63135,0.12627 0.75762,0 0.0595,-0.0595 -0.0595,-0.19301 0,-0.25254 0.0102,-0.0102 0.91741,0 1.01015,0 0.0842,0 0.19301,-0.0595 0.25254,0 0.0595,0.0595 -0.0595,0.19302 0,0.25254 0.0595,0.0595 0.19301,-0.0595 0.25253,0 0.0595,0.0595 0.0842,0.25254 0,0.25254 -0.0842,0 0,-0.33672 0,-0.25254 0,0.16836 -0.0753,0.35449 0,0.50508 0.0376,0.0753 0.19302,-0.0595 0.25254,0 0.0595,0.0595 0,0.16836 0,0.25254 0,0.0842 0,0.16836 0,0.25253 0,0.0842 0.0842,0.25254 0,0.25254 -0.0842,0 -0.0842,-0.25254 0,-0.25254 0.0842,0 0,0.16836 0,0.25254 0,0.0842 0,0.16836 0,0.25254 0,0.0842 0.0842,0.25254 0,0.25254 -0.0842,0 -0.0842,-0.25254 0,-0.25254 0.0842,0 0,0.16836 0,0.25254 0,0.0842 0,0.16836 0,0.25254 0,0.0842 0.0842,0.25254 0,0.25254 -0.0842,0 -0.0842,-0.25254 0,-0.25254 0.0842,0 0,0.16836 0,0.25254 0,0.16835 0,0.33671 0,0.50507 0,0.0842 0,0.16836 0,0.25254 0,0.0842 0.0842,0.25254 0,0.25254 -0.0842,0 0,-0.33672 0,-0.25254 0,0.4209 0,0.84179 0,1.26269 0,0.92597 0,1.85195 0,2.77792 0,0.90614 0,1.0911 0,1.51523 0,0.0842 -0.0842,-0.25254 0,-0.25254 0.0842,0 0,0.16836 0,0.25254 0,0.0842 0,0.16836 0,0.25254 0,0.0842 0.0842,0.25253 0,0.25253 -0.0842,0 -0.0842,-0.25253 0,-0.25253 0.0842,0 -0.0376,0.17724 0,0.25253 0.41878,0.83757 0.17708,0 0.25254,0 0.0842,0 0,0.16836 0,0.25254 0,0.0842 0,0.16836 0,0.25254 0,0.0842 -0.0377,0.17725 0,0.25254 0.0532,0.10648 0.1993,0.14606 0.25254,0.25254 0.10101,0.20203 -0.10102,0.55558 0,0.75761 0.0532,0.10648 0.1993,0.14606 0.25254,0.25254 0.0794,0.15873 -0.0794,0.85143 0,1.01015 0.0532,0.10648 0.1993,0.14606 0.25254,0.25254 0.0376,0.0753 -0.0595,0.19301 0,0.25254 0.0595,0.0595 0.16835,0 0.25253,0 0.0612,0 0.7495,0.008 0.75762,0 0.0595,-0.0595 -0.0376,-0.17725 0,-0.25254 0.0532,-0.10648 0.1993,-0.14606 0.25254,-0.25254 0.0376,-0.0753 -0.0842,-0.25254 0,-0.25254 0.0842,0 0,0.33672 0,0.25254 0,-0.16836 0,-0.33672 0,-0.50507 0,-0.0842 -0.0595,0.19301 0,0.25253 0.0595,0.0595 0.21489,0.0753 0.25253,0 0.0753,-0.15058 0,-0.33671 0,-0.50507 0,-0.0842 0.0842,0.25254 0,0.25254 -0.0842,0 -0.0595,-0.19302 0,-0.25254 0.0595,-0.0595 0.25254,0.0842 0.25254,0 0,-0.11905 -0.25254,-0.13349 -0.25254,-0.25254 0,-0.0842 0.19302,0.0595 0.25254,0 0.0595,-0.0595 0,-0.16836 0,-0.25254 0,-0.16836 0,-0.33672 0,-0.50507 0,-0.0842 -0.0595,0.19301 0,0.25253 0.0595,0.0595 0.19302,0.0595 0.25254,0 0.11905,-0.11904 -0.16836,-0.50507 0,-0.50507 0.0842,0 0,0.33671 0,0.25254 0,-0.16836 0,-0.33672 0,-0.50508 0,-0.0842 -0.0595,0.19301 0,0.25254 0.0595,0.0595 0.21489,0.0753 0.25254,0 0.0753,-0.15059 0,-0.33672 0,-0.50508 0,-0.0842 0,0.33672 0,0.25254 0,-1.49547 0.25254,0.73785 0.25254,-0.75762 0,-0.0842 -0.0595,0.19302 0,0.25254 0.0595,0.0595 0.16836,0 0.25253,0 0.0842,0 0.16836,0 0.25254,0 0.16836,0 0.33672,0 0.50508,0 0.0842,0 0.25254,-0.0842 0.25254,0 0,0.0842 -0.33672,0 -0.25254,0 0.16836,0 0.33672,0 0.50508,0 0.0842,0 -0.25254,0.0842 -0.25254,0 0,-0.0842 0.16836,0 0.25254,0 0.0842,0 0.25253,-0.0842 0.25253,0 0,0.11905 -0.25253,0.13349 -0.25253,0.25254 0,0.0842 0.19301,-0.0595 0.25253,0 0.0595,0.0595 0.0842,0.25254 0,0.25254 -0.0842,0 0,-0.33672 0,-0.25254 0,0.16836 0,0.33672 0,0.50508 0,0.0842 -0.0842,-0.25254 0,-0.25254 0.11905,0 0.25254,0.13349 0.25254,0.25254 0,0.0842 -0.19301,-0.0595 -0.25254,0 -0.0595,0.0595 0.0842,0.25254 0,0.25254 -0.0842,0 0,-0.33672 0,-0.25254 0,0.16836 0,0.33671 0,0.50507 0,0.0842 0,-0.33671 0,-0.25253 0,0.16835 0,0.33671 0,0.50507 0,0.0842 -0.0842,-0.25254 0,-0.25254 0.0842,0 0,0.16836 0,0.25254 0,0.0842 0,0.16836 0,0.25254 0,0.84179 0,-0.58926 0,0.25254 0,0.0842 0.0842,0.25254 0,0.25254 -0.0842,0 -0.0842,-0.25254 0,-0.25254 0.0842,0 0,0.16836 0,0.25254 0,0.0842 0,0.16835 0,0.25253 0,0.0842 0.0842,0.25254 0,0.25254 -0.0842,0 -0.0842,-0.25254 0,-0.25254 0.0842,0 0,0.16836 0,0.25254 0,0.0842 0.0842,0.25254 0,0.25254 -0.0842,0 -0.0842,-0.25254 0,-0.25254 0.18823,0 0.44077,0.50508 0.25254,0.50508 -0.0842,0 -0.0842,-0.25254 0,-0.25254 0.11905,0 0.25254,0.13349 0.25254,0.25254 0,0.11905 -0.25254,0.13349 -0.25254,0.25254 0,0.0842 0.19302,-0.0595 0.25254,0 0.0595,0.0595 0.0842,0.25254 0,0.25254 -0.0842,0 0,-0.33672 0,-0.25254 0,0.16836 0,0.33671 0,0.50507 0,0.0842 -0.0842,0.25254 0,0.25254 0.11905,0 0.16836,-0.33672 0.25254,-0.25254 0.11905,0.11905 0,0.33672 0,0.50508 0,0.0842 -0.0842,-0.25254 0,-0.25254 0.0842,0 0,0.16836 0,0.25254 0,0.0842 0.0842,0.25254 0,0.25254 -0.0842,0 -0.0842,-0.25254 0,-0.25254 0.83756,0 0,0.4732 0,0.25254 0,-0.0842 0.19301,-0.0595 0.25254,0 0.0595,0.0595 0,0.16836 0,0.25254 0,0.0842 0,0.16835 0,0.25253 0,0.0842 0.0842,0.25254 0,0.25254 -0.0842,0 -0.0842,-0.25254 0,-0.25254 0.0842,0 0,0.16836 0,0.25254 0,0.0842 0.0842,0.25254 0,0.25254 -0.0842,0 -0.0842,-0.25254 0,-0.25254 0.16835,0 -0.16836,0.50508 0,0.50508 0.11904,0 0.14605,-0.1993 0.25253,-0.25254 0.0753,-0.0377 0.16836,0 0.25254,0 0.0842,0 0.19302,-0.0595 0.25254,0 0.33672,0.33672 -0.4209,0.25254 0.25254,0.25254 0.16836,0 0.33672,0 0.50507,0 0.0842,0 0.25254,-0.0842 0.25254,0 0,0.0842 -0.31206,0.0595 -0.25254,0 0.1331,-0.1331 0.37198,-0.11944 0.50508,-0.25254 0.0595,-0.0595 -0.33672,0 -0.25254,0 0.16836,0 0.33672,0 0.50508,0 0.0842,0 -0.25254,0.0842 -0.25254,0 0,-0.16836 0.38603,0.11905 0.50508,0 0.15092,-0.15092 -0.27297,-0.50508 0.25254,-0.50508 0.0842,0 -0.0842,0.25254 0,0.25254 0.11904,0 0.25253,-0.13349 0.25253,-0.25254 0,-0.0842 -0.25253,0.0842 -0.25253,0 0,-0.0842 0.19301,0.0595 0.25253,0 0.0595,-0.0595 -0.0842,-0.25253 0,-0.25253 0.83757,0 0,0.47319 0,0.25253 0,-0.0842 0.19302,0.0595 0.25254,0 0.0595,-0.0595 -0.0595,-0.19301 0,-0.25253 0.0595,-0.0595 0.25254,0.0842 0.25254,0 0,-0.11905 -0.33672,-0.16836 -0.25254,-0.25254 0.0842,-0.0842 0.14606,0.1993 0.25254,0.25254 0.0753,0.0376 0.25254,0.0842 0.25254,0 0,-0.11905 -0.25254,-0.13349 -0.25254,-0.25254 0,-0.11905 0.13349,-0.25254 0.25254,-0.25254 0.0842,0 -0.0595,0.19301 0,0.25254 0.0595,0.0595 0.19301,0.0595 0.25254,0 0.11904,-0.11905 -0.16836,-0.50508 0,-0.50508 0.83756,0 0,0.4732 0,0.25254 0,-0.11905 0.16836,-0.16836 0.25253,-0.25254 0.0842,-0.0842 0.13349,-0.25254 0.25254,-0.25254 0.0842,0 0.0842,0.25254 0,0.25254 -0.0842,0 -0.0376,-0.17724 0,-0.25254 0.0532,-0.10648 0.14606,-0.1993 0.25254,-0.25253 0.0753,-0.0377 0.25254,0.0842 0.25254,0 0,-0.11905 -0.25254,-0.1335 -0.25254,-0.25254 0,-0.16836 0.50508,0.16836 0.50508,0 0,-0.11905 -0.33672,-0.16836 -0.25254,-0.25254 0.0842,-0.0842 0.13349,0.25254 0.25254,0.25254 0.0842,0 -0.0595,-0.19302 0,-0.25254 0.0595,-0.0595 0.25254,0.0842 0.25254,0 0,-0.5255 -0.4732,-0.22066 -0.25254,0 0.40905,0.40905 0.0795,-0.50508 0.50507,-0.50508 0.0842,0 0.0842,0.25254 0,0.25254 -0.18823,0 0.0643,-0.50508 0.25254,-0.50508 0.0842,0 0.0842,0.25254 0,0.25254 -0.0842,0 -0.0595,-0.19301 0,-0.25254 0.0595,-0.0595 0.25254,0.0842 0.25254,0 0,-0.11904 -0.13349,-0.25253 -0.25254,-0.25253 -0.0842,0 -0.0595,0.19301 0,0.25253 0.0595,0.0595 0.19302,0.0595 0.25254,0 0.0595,-0.0595 -0.0595,-0.19301 0,-0.25253 0.0595,-0.0595 0.25254,0.0842 0.25254,0 0,-0.11905 -0.13349,-0.25254 -0.25254,-0.25254 -0.0842,0 -0.0595,0.19301 0,0.25254 0.0595,0.0595 0.19301,0.0595 0.25254,0 0,-0.67344 -0.0842,0.0842 0.25254,-0.25254 0.0595,-0.0595 -0.0842,-0.25254 0,-0.25254 0.0842,0 0.0842,0.25254 0,0.25254 -0.0842,0 -0.0595,-0.19302 0,-0.25254 0.0595,-0.0595 0.19301,0.0595 0.25253,0 0.0595,-0.0595 -0.0842,-0.25254 0,-0.25254 0.0842,0 0,0.16836 0,0.25254 0,0.16836 0,0.33672 0,0.50508 0,0.0842 0.0595,-0.31207 0,-0.25254 -0.1331,0.1331 -0.11943,0.37198 -0.25253,0.50507 -0.0595,0.0595 -0.0842,-0.25253 0,-0.25253 0.0842,0 0,0.16835 0,0.25253 0,0.0842 0.0842,0.25254 0,0.25254 -0.0842,0 0.0842,-0.25254 0,-0.25254 -0.11905,0 -0.14606,0.1993 -0.25254,0.25254 -0.0753,0.0377 -0.25254,0.0842 -0.25254,0 0,-0.0842 0.19301,-0.0595 0.25254,0 0.0595,0.0595 0,0.16836 0,0.25254 0,0.16836 0,0.33672 0,0.50508 0,0.0842 0.0595,-0.19302 0,-0.25254 -0.0595,-0.0595 -0.19302,-0.0595 -0.25254,0 -0.1331,0.1331 -0.25254,0.31684 -0.25254,0.50508 0,0.11904 0.16836,-0.33672 0.25254,-0.25254 0.11905,0.11904 0,0.33671 0,0.50507 0,0.0842 0.0595,-0.31206 0,-0.25253 -0.1331,0.13309 -0.0842,0.42089 -0.25254,0.50507 -0.10648,0.0532 -0.25254,-0.13349 -0.25254,-0.25254 0,-0.0842 0.2149,-0.0753 0.25254,0 0.0753,0.15059 0,0.33672 0,0.50508 0,0.0842 0,-0.33672 0,-0.25254 0,0.16836 0.11905,0.38603 0,0.50508 -0.0842,0.0842 -0.14606,-0.1993 -0.25254,-0.25254 -0.0753,-0.0377 -0.25253,0.0842 -0.25253,0 0,-0.0842 0.21489,-0.0753 0.25253,0 0.0753,0.15058 0,0.33672 0,0.50508 0,0.0842 0,-0.33672 0,-0.25254 0,0.16836 0,0.33672 0,0.50507 0,0.0842 0.0842,-0.25253 0,-0.25253 -0.11904,0 -0.14606,0.19929 -0.25253,0.25253 -0.0753,0.0376 -0.25254,0.0842 -0.25254,0 0,-0.0842 0.21489,-0.0753 0.25254,0 0.0753,0.15059 0,0.33672 0,0.50508 0,0.0842 0,-0.33672 0,-0.25254 0,0.16836 0,0.33672 0,0.50508 0,0.33672 0.0842,-0.92597 -0.25254,-0.25254 -0.0753,0.15058 0,0.33672 0,0.50508 0,0.0842 0,-0.33672 0,-0.25254 0,0.16836 0,0.33672 0,0.50507 0,0.0842 0.0595,-0.19301 0,-0.25253 -0.0595,-0.0595 -0.25254,0.0842 -0.25254,0 0,-0.0842 0.21489,-0.0753 0.25254,0 0.0753,0.15058 0,0.33671 0,0.50507 0,0.0842 0,-0.33671 0,-0.25254 0,1.14963 0.11904,0.25254 -0.25254,0.25254 -0.16836,0 0.16836,0.50508 0,0.50508 -0.0842,0 0.0595,-0.19302 0,-0.25254 -0.0595,-0.0595 -0.25254,0.0842 -0.25254,0 0,-0.0842 0.21489,-0.0753 0.25254,0 0.0753,0.15059 0,0.33672 0,0.50508 0,0.0842 0.0595,-0.31206 0,-0.25254 -0.78298,1.56596 -0.0322,0.25254 -0.25254,0.25254 -0.11905,0 -0.25254,0.13349 -0.25254,0.25254 0,0.33671 0.58926,-0.4209 0.25254,0.25253 -0.0532,0.10648 -0.14606,0.1993 -0.25254,0.25254 -0.20733,0.10367 -0.81217,-0.30709 0,0.50508 0.0595,0.0595 0,-0.33672 0,-0.25254 0,0.16836 0,0.33672 0,0.50508 0,0.0842 0.0753,-0.2149 0,-0.25254 -0.15058,-0.0753 -0.38603,-0.11905 -0.50507,0 -0.63434,0.63433 0.88687,-0.12926 0.25253,0.50507 -0.0595,0.0595 -0.21489,-0.0753 -0.25253,0 -0.0753,0.15059 0.11904,0.38603 0,0.50508 -0.0842,0.0842 -0.25254,-0.13349 -0.25254,-0.25254 0,-0.0842 0.19301,-0.0595 0.25254,0 0.15092,0.15093 -0.15392,0.50508 -0.25254,0.50508 -0.0842,0 0.0842,-0.25254 0,-0.25254 -0.33672,0 -0.33672,0.50508 0,0.50508 0.0842,0 0.0595,-0.31207 0,-0.25254 -0.1331,0.1331 -0.11944,0.37198 -0.25254,0.50507 -0.0595,0.0595 0.0595,-0.19301 0,-0.25253 -0.0595,-0.0595 -0.25254,-0.0842 -0.25254,0 0.10196,1.75419 0.33672,0.16836 0.25254,0.25253 -0.1331,0.1331 -0.0842,0.4209 -0.25254,0.50508 -0.10648,0.0532 -0.25254,-0.13349 -0.25254,-0.25254 0,-0.0842 0.2149,-0.0753 0.25254,0 0.0753,0.15059 0,0.33672 0,0.50508 0,0.0842 -0.0842,-0.25254 0,-0.25254 0.0842,0 0.0467,0.1825 0,0.25254 -0.13207,0.19811 -0.39859,0.29212 -0.50507,0.50508 -0.0377,0.0753 0.25253,-0.0842 0.25253,0 0,0.18823 -0.11944,0.37197 -0.25253,0.50507 -0.0595,0.0595 -0.25254,0.0842 -0.25254,0 0,-0.0842 0.21489,-0.0753 0.25254,0 0.0753,0.15059 0,0.33672 0,0.50508 0,0.0842 -0.0842,-0.25254 0,-0.25254 0.0842,0 0,0.16836 0,0.25254 0,0.0842 0.0595,0.19301 0,0.25254 -0.0595,0.0595 -0.19302,-0.0595 -0.25254,0 -0.0595,0.0595 0.0595,0.19301 0,0.25253 -0.0595,0.0595 -0.25254,0.0842 -0.25254,0 0,-0.0842 0.21489,-0.0753 0.25254,0 0.0753,0.15059 0,0.33672 0,0.50508 0,0.33672 0.0842,-0.92597 -0.25254,-0.25254 -0.0753,0.15059 0,0.33672 0,0.50508 0,0.0842 0.0595,-0.19302 0,-0.25254 -0.0595,-0.0595 -0.25254,-0.0842 -0.25254,0 0,0.18823 0.11944,0.37198 0.25254,0.50508 0.11224,0.11224 -0.0281,-0.7015 -0.25254,-0.25254 -0.0753,0.15058 0.11905,0.38603 0,0.50507 -0.45435,0.45436 -0.27097,-0.79447 0,-0.25253 0.0753,0.15058 0.11905,0.38603 0,0.50507 -0.0842,0.0842 -0.13349,-0.25254 -0.25254,-0.25254 -0.0842,0 0.0595,0.19302 0,0.25254 -0.0595,0.0595 -0.25254,0.0842 -0.25254,0 0,-0.0842 0.19302,-0.0595 0.25254,0 0.0595,0.0595 0.0377,0.17725 0,0.25254 -0.15034,0.30068 -0.50507,0.35241 -0.50507,0.25254 0,-0.0842 0.19301,-0.0595 0.25253,0 0.10771,0.10771 -0.13189,0.63697 -0.25253,0.75761 -0.0595,0.0595 0,-0.33671 0,-0.25253 0,0.16835 0.11904,0.38602 0,0.50507 -0.0842,0.0842 -0.25254,-0.13349 -0.25254,-0.25254 0,-0.0842 0.21489,-0.0753 0.25254,0 0.0753,0.15059 0.11904,0.38603 0,0.50508 -0.0842,0.0842 -0.13349,-0.25254 -0.25254,-0.25254 -0.11905,0 -0.25254,0.13349 -0.25254,0.25254 0,0.33672 0.58926,-0.4209 0.25254,0.25254 -0.0702,0.14032 -0.50508,0.42365 -0.50508,0.50507 0,0.0842 0.19302,-0.0595 0.25254,0 0.0595,0.0595 0.0595,0.19302 0,0.25254 -0.0595,0.0595 -0.21489,-0.0753 -0.25254,0 -0.0753,0.15059 0.0753,0.35449 0,0.50508 -0.0377,0.0753 -0.21489,-0.0753 -0.25254,0 -0.0753,0.15058 0.0753,0.35449 0,0.50508 -0.0376,0.0753 -0.25253,-0.0842 -0.25253,0 0,0.11904 0.19929,0.14605 0.25253,0.25253 0.25807,0.51614 -0.50507,0.002 -0.50507,0.50508 0,0.11905 0.25254,0.13349 0.25254,0.25254 0,0.0842 -0.17725,-0.0377 -0.25254,0 -0.10648,0.0532 -0.25254,0.13349 -0.25254,0.25254 0,0.0842 0.16836,0 0.25254,0 0,0.16835 0.0753,0.35449 0,0.50507 -0.0753,0.15059 -0.50508,-0.16836 -0.50508,0 0,0.18823 0.25254,0.31685 0.25254,0.50508 0,0.11905 -0.13349,-0.25254 -0.25254,-0.25254 -0.16836,0 0.11905,0.38603 0,0.50508 -0.0595,0.0595 -0.25254,0.0842 -0.25254,0 0,-0.0842 0.25254,-0.0842 0.25254,0 0,0.0842 -0.19301,-0.0595 -0.25254,0 -0.0595,0.0595 0.0595,0.19301 0,0.25253 -0.0595,0.0595 -0.25253,-0.0842 -0.25253,0 0,0.11905 0.25253,0.1335 0.25253,0.25254 0,0.16836 -0.50507,-0.16836 -0.50507,0 0,0.11905 0.25254,0.13349 0.25254,0.25254 0,0.16836 -0.50508,-0.16836 -0.50508,0 0,0.11905 0.25254,0.13349 0.25254,0.25254 0,0.11905 -0.16836,0.16836 -0.25254,0.25254 -0.0842,0.0842 -0.14606,0.1993 -0.25254,0.25254 -0.0753,0.0376 -0.25254,-0.0842 -0.25254,0 0,0.11904 0.25254,0.13349 0.25254,0.25253 0,0.41879 -0.35415,0.17708 -0.50508,0.25254 -0.76641,0.38321 -0.0503,0.20223 0,0.25254 0.0595,0.0595 0.0753,0.21489 0,0.25254 -1.43104,0.71552 -0.25253,-0.35776 -0.25253,0 0,0.23809 -0.50508,0.26698 -0.50508,0.50507 0,0.0842 0.25254,-0.0842 0.25254,0 0,0.0842 -0.19302,-0.0595 -0.25254,0 -0.0595,0.0595 0.0595,0.19302 0,0.25254 -0.0595,0.0595 -0.25254,0.0842 -0.25254,0 0,-0.0842 0.31206,-0.0595 0.25254,0 -0.1331,0.1331 -0.37198,0.11944 -0.50508,0.25254 -0.0595,0.0595 0.25254,-0.0842 0.25254,0 0,0.0842 -0.19301,-0.0595 -0.25254,0 -0.0595,0.0595 0.0595,0.19301 0,0.25254 -0.0595,0.0595 -0.25253,0.0842 -0.25253,0 0,-0.0842 0.25253,-0.0842 0.25253,0 0,0.16503 -0.50507,0.41757 -0.50507,0.25254 0,-0.0842 0.25254,-0.0842 0.25254,0 0,0.5255 -0.35416,0.10161 -0.50508,0.25253 -0.0595,0.0595 0.0595,0.19302 0,0.25254 -0.0595,0.0595 -0.25254,-0.0842 -0.25254,0 0,0.11905 0.25254,0.13349 0.25254,0.25254 0,0.11905 -0.13349,0.25254 -0.25254,0.25254 -0.0842,0 0.0842,-0.25254 0,-0.25254 -0.11905,0 -0.25254,0.13349 -0.25254,0.25254 0,0.0842 0.25254,-0.0842 0.25254,0 0,0.5255 -0.35415,0.10161 -0.50507,0.25254 -0.0595,0.0595 0.0595,0.19301 0,0.25254 -0.4209,0.42089 -0.25254,-0.92598 -0.25254,0.50507 0,0.0842 0.0595,-0.19301 0,-0.25254 -0.0595,-0.0595 -0.25254,-0.0842 -0.25254,0 0,0.11905 0.25254,0.13349 0.25254,0.25254 0,0.0842 -0.19302,-0.0595 -0.25254,0 -0.0595,0.0595 0.0595,0.19302 0,0.25254 -0.0595,0.0595 -0.25254,0.0842 -0.25254,0 0,-0.0842 0.25254,-0.0842 0.25254,0 0,0.0842 -0.19302,-0.0595 -0.25254,0 -0.0595,0.0595 0.0595,0.19301 0,0.25254 -0.0595,0.0595 -0.25254,-0.0842 -0.25254,0 0,0.11905 0.25254,0.13349 0.25254,0.25254 0,0.0842 -0.17725,-0.0377 -0.25254,0 -0.83756,0.41878 0,0.17707 0,0.25253 0,0.0842 -0.17724,-0.0376 -0.25254,0 -0.10647,0.0532 -0.25253,0.13349 -0.25253,0.25254 0,0.0842 0.25253,-0.0842 0.25253,0 0,0.0842 -0.17724,-0.0376 -0.25253,0 -0.10648,0.0532 -0.1993,0.14606 -0.25254,0.25254 0,0.67344 0.0842,-0.0842 -0.25254,0.25254 -0.0595,0.0595 0.0595,0.19301 0,0.25254 -0.0595,0.0595 -0.19301,-0.0595 -0.25254,0 -0.0595,0.0595 0.0595,0.19301 0,0.25254 -0.0595,0.0595 -0.19301,-0.0595 -0.25254,0 -0.0595,0.0595 0.0595,0.19301 0,0.25253 -0.15092,0.15093 -0.50507,-0.27296 -0.50507,0.25254 0,0.0842 0.25254,-0.0842 0.25254,0 0,0.16836 -0.50508,-0.16836 -0.50508,0 0,0.11905 0.25254,0.13349 0.25254,0.25254 0,0.16836 -0.38603,-0.11905 -0.50508,0 -0.0595,0.0595 0.0595,0.19301 0,0.25254 -0.0595,0.0595 -0.19301,-0.0595 -0.25254,0 -0.0595,0.0595 0.0595,0.19301 0,0.25254 -0.0595,0.0595 -0.19301,-0.0595 -0.25253,0 -0.0595,0.0595 0.0595,0.19301 0,0.25253 -0.0595,0.0595 -0.19302,-0.0595 -0.25254,0 -0.0595,0.0595 0.0595,0.19302 0,0.25254 -0.0595,0.0595 -0.19302,-0.0595 -0.25254,0 -0.11905,0.11905 0.11905,0.38603 0,0.50508 -0.0595,0.0595 -0.19302,-0.0595 -0.25254,0 -0.0595,0.0595 0.0376,0.17724 0,0.25254 -0.0532,0.10648 -0.1993,0.14606 -0.25254,0.25253 -0.0376,0.0753 0.0595,0.19302 0,0.25254 -0.0595,0.0595 -0.19301,-0.0595 -0.25254,0 -0.11904,0.11905 0.11905,0.38603 0,0.50508 -0.11904,0.11905 -0.50507,-0.16836 -0.50507,0 0,0.11905 0.13349,0.25254 0.25254,0.25254 0.0842,0 -0.0842,-0.25254 0,-0.25254 0.0842,0 0.0376,0.17724 0,0.25254 -0.0532,0.10648 -0.1993,0.14606 -0.25254,0.25254 -0.0376,0.0753 0.0595,0.19301 0,0.25253 -0.0595,0.0595 -0.19302,-0.0595 -0.25254,0 -0.11905,0.11905 0.11905,0.38603 0,0.50508 -0.0595,0.0595 -0.19301,-0.0595 -0.25254,0 -0.0595,0.0595 0.0377,0.17725 0,0.25254 -0.0532,0.10648 -0.1993,0.14606 -0.25254,0.25254 -0.0377,0.0753 0.0595,0.19301 0,0.25253 -0.0595,0.0595 -0.19301,-0.0595 -0.25253,0 -0.33672,0.33672 0.42089,0.25254 -0.25254,0.25254 -0.0842,0 -0.25254,-0.0842 -0.25254,0 0,0.11905 0.30578,0.14606 0.25254,0.25254 -0.0842,0.16836 -0.37198,0.11944 -0.50508,0.25254 -0.0595,0.0595 0.19301,-0.0595 0.25254,0 0.0595,0.0595 0.0753,0.21489 0,0.25254 -0.15059,0.0753 -0.33672,0 -0.50508,0 -0.0842,0 0.19302,-0.0595 0.25254,0 0.0595,0.0595 0.0595,0.19301 0,0.25253 -0.0595,0.0595 -0.19301,-0.0595 -0.25254,0 -0.0595,0.0595 0.0842,0.25254 0,0.25254 -0.0842,0 0.0595,-0.31206 0,-0.25254 -0.1331,0.1331 -0.19301,0.32651 -0.25254,0.50508 -0.0266,0.0799 0.0595,0.19302 0,0.25254 -0.11904,0.11905 -0.50507,-0.16836 -0.50507,0 0,0.11905 0.1993,0.14606 0.25254,0.25254 0.21044,0.42089 -0.33672,0.25254 -0.50508,0.25254 -0.0842,0 0.19301,-0.0595 0.25254,0 0.0595,0.0595 0,0.16835 0,0.25253 0,0.0842 0.0595,0.19302 0,0.25254 -0.0595,0.0595 -0.16836,0 -0.25254,0 -0.0842,0 -0.25254,0.0842 -0.25254,0 0,-0.0842 0.19302,-0.0595 0.25254,0 0.0595,0.0595 0.0595,0.19302 0,0.25254 -0.0595,0.0595 -0.19301,-0.0595 -0.25254,0 -0.11905,0.11905 0.11905,0.38603 0,0.50508 -0.1331,0.1331 -0.37197,0.11943 -0.50507,0.25253 0.0842,0 0.19301,-0.0595 0.25253,0 0.0595,0.0595 0.0595,0.19302 0,0.25254 -0.1331,0.1331 -0.37197,0.11944 -0.50507,0.25254 -0.0595,0.0595 0.19301,-0.0595 0.25254,0 0.0595,0.0595 0.0595,0.19301 0,0.25254 -0.15093,0.15092 -0.50508,-0.27296 -0.50508,0.25254 0,0.11904 0.25254,0.13349 0.25254,0.25253 0,0.0842 -0.19302,-0.0595 -0.25254,0 -0.0595,0.0595 0.0595,0.19302 0,0.25254 -0.0595,0.0595 -0.19301,-0.0595 -0.25254,0 -0.31099,0.311 0.7707,0.50508 -0.50507,0.50508 -0.11905,0 0.16835,-0.16836 0.25253,-0.25254 -0.0842,0.16836 -0.0959,0.40067 -0.25253,0.50508 -0.14009,0.0934 -0.38603,-0.11905 -0.50508,0 -0.0842,0.0842 0.33672,0.16836 0.25254,0.25254 -0.11905,0.11904 -0.33672,0 -0.50508,0 -0.33672,0 0.92597,-0.0842 0.25254,0.25253 -0.15059,0.0753 -0.33672,0 -0.50508,0 -0.33671,0 0.92597,-0.0842 0.25254,0.25254 -1.43105,0.71553 -0.25254,-0.35776 -0.25254,0 0,0.11905 -0.13349,0.25254 -0.25254,0.25254 -0.11904,0 -0.25253,-0.13349 -0.25253,-0.25254 0,-0.16836 0.58925,0.0842 0.25253,0.25254 -0.15058,0.0753 -0.33671,0 -0.50507,0 -0.0842,0 0.19301,-0.0595 0.25254,0 0.0595,0.0595 0.0842,0.25254 0,0.25254 -0.18824,0 -0.31685,-0.25254 -0.50508,-0.25254 -0.11905,0 0.33672,0.16836 0.25254,0.25254 -0.11905,0.11905 -0.38603,-0.11905 -0.50508,0 -0.0842,0.0842 0.13349,0.25254 0.25254,0.25254 0.0842,0 0.0595,-0.19302 0,-0.25254 -0.15093,-0.15093 -0.50508,0.15391 -0.50508,0.25254 0,0.0842 0.33672,0 0.25254,0 -1.65553,0 0.89791,0 -0.75761,0 -0.0842,0 0.19301,-0.0595 0.25253,0 0.0595,0.0595 0.0842,0.25253 0,0.25253 -0.0842,0 0.0753,-0.21489 0,-0.25253 -0.15058,-0.0753 -0.33671,0 -0.50507,0 -0.0842,0 0.33672,0 0.25254,0 -0.16836,0 -0.33672,0 -0.50508,0 -0.0842,0 0.25254,-0.0842 0.25254,0 0,0.0842 -0.16836,0 -0.25254,0 -0.0842,0 -0.25254,0.0842 -0.25254,0 0,-0.0842 0.25254,-0.0842 0.25254,0 0,0.0842 -0.16836,0 -0.25254,0 -0.0842,0 -0.25253,0.0842 -0.25253,0 0,-0.0842 0.25253,-0.0842 0.25253,0 0,0.0842 -0.16836,0 -0.25253,0 -0.0842,0 -0.25254,0.0842 -0.25254,0 0,-0.0842 0.25254,-0.0842 0.25254,0 0,0.0842 -0.16836,0 -0.25254,0 -0.0842,0 -0.25254,0.0842 -0.25254,0 0,-0.11905 0.25254,-0.13349 0.25254,-0.25254 0,-0.0842 -0.17725,0.0376 -0.25254,0 -0.10648,-0.0532 -0.33672,-0.16836 -0.25254,-0.25254 0.0842,-0.0842 0.25254,0.13349 0.25254,0.25254 0,0.0842 -0.16836,0 -0.25254,0 -0.0842,0 -0.25254,0.0842 -0.25254,0 0,-0.0842 0.33672,0 0.25254,0 -1.65553,0 0.89791,0 -0.75761,0 -0.0842,0 0.31206,0.0595 0.25253,0 -0.1331,-0.1331 -0.37197,-0.11944 -0.50507,-0.25254 -0.0595,-0.0595 0.25254,0.0842 0.25254,0 0,-0.11905 -0.1335,-0.25254 -0.25254,-0.25254 -0.0842,0 0.0753,0.21489 0,0.25254 -0.15059,0.0753 -0.33672,0 -0.50508,0 -0.0842,0 0.33672,0 0.25254,0 -0.16836,0 -0.33672,0 -0.50508,0 -0.0842,0 0.31206,0.0595 0.25254,0 -0.1331,-0.1331 -0.37198,-0.11944 -0.50507,-0.25254 -0.0595,-0.0595 0.25253,0.0842 0.25253,0 0,-0.11905 -0.13349,-0.25254 -0.25253,-0.25254 -0.11905,0 -0.25254,0.13349 -0.25254,0.25254 0,0.0842 0.33671,0 0.25254,0 -1.65553,0 0.89791,0 -0.75762,0 -0.0842,0 0.25254,-0.0842 0.25254,0 0,0.0842 -0.16836,0 -0.25254,0 -0.0842,0 -0.25254,0.0842 -0.25254,0 0,-0.11905 0.25254,-0.13349 0.25254,-0.25254 0,-0.0842 -0.17724,0.0376 -0.25254,0 -0.10648,-0.0532 -0.33672,-0.16835 -0.25254,-0.25253 0.0842,-0.0842 0.25254,0.13349 0.25254,0.25253 0,0.0842 -0.16836,0 -0.25254,0 -0.0842,0 -0.25253,0.0842 -0.25253,0 0,-0.0842 0.19301,0.0595 0.25253,0 0.25745,-0.25745 -0.50507,-0.85797 -0.50507,-0.25253 0,0.0842 0.25254,-0.0842 0.25254,0 0,0.28506 -1.05466,-0.50508 -0.25254,-0.50508 0.0842,0 0.0595,0.19301 0,0.25254 -0.0595,0.0595 -0.16836,0 -0.25254,0 -0.0842,0 -0.25254,0.0842 -0.25254,0 0,-0.0842 0.31206,0.0595 0.25254,0 -0.1331,-0.1331 -0.4209,-0.0842 -0.50508,-0.25254 -0.0532,-0.10648 0.37159,-0.25254 0.25254,-0.25254 -0.18823,0 -0.37198,0.11944 -0.50507,0.25254 -0.0595,0.0595 0.25253,-0.0842 0.25253,0 0,0.0842 -0.16836,0 -0.25253,0 -0.0842,0 -0.25254,0.0842 -0.25254,0 0,-0.0842 0.19301,0.0595 0.25254,0 0.0595,-0.0595 0.0595,-0.19301 0,-0.25254 -0.0605,-0.0605 -1.01016,0.0574 -1.01016,0 0,-0.0842 0.25254,-0.0842 0.25254,0 0,0.0842 -0.16836,0 -0.25254,0 -0.0842,0 -0.16836,0 -0.25254,0 -0.0842,0 -0.25253,0.0842 -0.25253,0 0,-0.0842 0.25253,-0.0842 0.25253,0 0,0.16836 -0.38602,-0.11905 -0.50507,0 -0.0595,0.0595 0.0595,0.19302 0,0.25254 -0.59225,0.59225 0,-0.89709 0,0.25254 0,0.0842 -0.19302,-0.0595 -0.25254,0 -0.0595,0.0595 0,0.16836 0,0.25254 0,0.0842 0.0595,0.19301 0,0.25253 -0.0595,0.0595 -0.25254,0.0842 -0.25254,0 0,-0.0842 0.19302,-0.0595 0.25254,0 0.0595,0.0595 0.0842,0.25254 0,0.25254 -0.11905,0 -0.14606,-0.30578 -0.25254,-0.25254 -0.31944,0.15972 -1.11476,0.75762 -0.75761,0.75762 1.01015,0 1.99224,-0.53314 1.26269,-1.26269 -0.0595,-0.0595 -0.0753,0.21489 0,0.25254 0.15058,0.0753 0.33672,0 0.50507,0 0.0842,0 -0.25253,0.0842 -0.25253,0 0,-0.18824 0.11944,-0.37198 0.25253,-0.50508 0.0595,-0.0595 -0.0753,0.29018 0,0.25254 0.21296,-0.10648 0.2792,-0.42979 0.50508,-0.50508 0.11294,-0.0376 0.25254,0.13349 0.25254,0.25254 0,0.0842 -0.31206,0.0595 -0.25254,0 0.69265,-0.69265 0.75762,0.36205 0.75762,-0.75762 0,-0.0842 -0.0753,0.2149 0,0.25254 0.15058,0.0753 0.33671,0 0.50507,0 0.0842,0 -0.33672,0 -0.25254,0 0.16836,0 0.38603,0.11905 0.50508,0 0.0842,-0.0842 -0.33672,-0.16836 -0.25254,-0.25254 0.11905,-0.11904 0.33672,0 0.50508,0 0.0842,0 -0.33672,0 -0.25254,0 0.16836,0 0.33672,0 0.50508,0 0.0842,0 -0.33672,0 -0.25254,0 0.16836,0 0.33672,0 0.50507,0 0.0842,0 -0.33671,0 -0.25253,0 1.65552,0 -0.89792,0 0.75761,0 0.0842,0 -0.33672,0 -0.25254,0 0.16836,0 0.38603,-0.11904 0.50508,0 0.0842,0.0842 -0.33672,0.16836 -0.25254,0.25254 0.11905,0.11905 0.33672,0 0.50508,0 0.0842,0 -0.33672,0 -0.25254,0 0.16836,0 0.38603,-0.11904 0.50507,0 0.0842,0.0842 -0.33671,0.16836 -0.25253,0.25254 0.11904,0.11905 0.38603,-0.11905 0.50507,0 0.0842,0.0842 -0.13349,0.25254 -0.25254,0.25254 -0.0842,0 -0.0842,-0.25254 0,-0.25254 0.0842,0 -0.0595,0.19302 0,0.25254 0.0595,0.0595 0.17725,-0.0377 0.25254,0 0.10648,0.0532 0.33672,0.16836 0.25254,0.25254 -0.0842,0.0842 -0.13349,-0.25254 -0.25254,-0.25254 -0.18823,0 0.0643,0.50508 0.25254,0.50508 0.0842,0 -0.0842,-0.25254 0,-0.25254 0.11905,0 0.25254,0.13349 0.25254,0.25254 0,0.0842 -0.19302,-0.0595 -0.25254,0 -0.0595,0.0595 -0.0595,0.19301 0,0.25253 0.0595,0.0595 0.19302,-0.0595 0.25254,0 0.0595,0.0595 -0.0842,0.25254 0,0.25254 0.21105,0 0.38152,-0.564 0.49006,-0.82609"
       id="path6268"
       inkscape:connector-curvature="0" />
    <path
       style="fill:#f57900;stroke:none;stroke-width:1px;stroke-linecap:butt;stroke-linejoin:miter;stroke-opacity:1;fill-opacity:1;opacity:0.54"
       d="m 543.77427,454.05506 c 1.33976,1.1924 -0.83023,0.84871 -0.83023,1.38776 0,0.2662 0.3171,0.49936 0.25254,0.75761 -0.0456,0.18261 -0.37197,0.11944 -0.50507,0.25254 -0.0595,0.0595 0,0.16836 0,0.25254 0,0.25254 0.0495,0.50998 0,0.75761 -0.0738,0.36915 -0.41377,0.64493 -0.50508,1.01015 -0.0408,0.16334 0.0532,0.34536 0,0.50508 -0.0376,0.11294 -0.21489,0.1396 -0.25254,0.25254 -0.0532,0.15972 0,0.33672 0,0.50508 0,0.0842 -0.0842,-0.25254 0,-0.25254 0.0842,0 0,0.16836 0,0.25254 0,0.0842 0.0842,0.25253 0,0.25253 -0.0842,0 -0.0842,-0.25253 0,-0.25253 0.0842,0 0,0.16835 0,0.25253 0,0.0842 0.0376,0.17725 0,0.25254 -0.0532,0.10648 -0.13349,0.25254 -0.25254,0.25254 -0.0842,0 0,-0.33672 0,-0.25254 0,0.16836 0,0.33672 0,0.50508 0,0.0842 0.0842,0.25254 0,0.25254 -0.11904,0 -0.13349,-0.25254 -0.25253,-0.25254 -0.16836,0 0.16835,0.50507 0,0.50507 -0.0842,0 0,-0.33671 0,-0.25253 0,0.16835 0,0.33671 0,0.50507 0,0.0842 -0.0842,-0.25254 0,-0.25254 0.0842,0 0.0595,0.19302 0,0.25254 -0.0595,0.0595 -0.19302,-0.0595 -0.25254,0 -0.0595,0.0595 0.0842,0.25254 0,0.25254 -0.0842,0 -0.0842,-0.25254 0,-0.25254 0.0842,0 0,0.16836 0,0.25254 0,0.0842 0.0842,0.25254 0,0.25254 -0.0842,0 0,-0.16836 0,-0.25254 -0.0842,0.16836 -0.11944,0.37198 -0.25254,0.50508 -0.0595,0.0595 0,-0.33672 0,-0.25254 0,0.16836 0.11905,0.38603 0,0.50507 -0.0842,0.0842 -0.16836,-0.33671 -0.25254,-0.25253 -0.11905,0.11904 0,0.33671 0,0.50507 0,0.0842 0,0.16836 0,0.25254 0,0.0842 0.0842,0.25254 0,0.25254 -0.0842,0 0.0842,-0.25254 0,-0.25254 -0.35861,0 -0.25254,0.57806 -0.25254,0.75762 0,0.0842 0.0842,0.25253 0,0.25253 -0.0842,0 -0.0842,-0.25253 0,-0.25253 0.0842,0 0.0595,0.19301 0,0.25253 -0.0595,0.0595 -0.19301,-0.0595 -0.25254,0 -0.0595,0.0595 0.0842,0.25254 0,0.25254 -0.0842,0 0,-0.33672 0,-0.25254 0,0.16836 0,0.33672 0,0.50508 0,0.0842 0,-0.33672 0,-0.25254 0,1.62747 0,-0.44895 0,0.50508 0,0.16836 0,0.33672 0,0.50507 0,0.0842 0.0842,0.25254 0,0.25254 -0.0842,0 0,-0.33672 0,-0.25254 0,0.25254 0,0.50508 0,0.75762 0,0.0842 0.0842,0.25254 0,0.25254 -0.0842,0 0,-0.33672 0,-0.25254 0,0.16836 0,0.33672 0,0.50507 0,0.0842 0.0842,0.25254 0,0.25254 -0.0842,0 0,-0.33671 0,-0.25254 0,0.16836 0,0.33672 0,0.50508 0,0.0842 -0.0842,-0.25254 0,-0.25254 0.0842,0 0,0.16836 0,0.25254 0,0.0842 0.0842,0.25254 0,0.25254 -0.0842,0 -0.0842,-0.25254 0,-0.25254 0.0842,0 0,0.16836 0,0.25254 0,0.67343 -0.0842,-0.0842 0.25254,0.25254 0.0595,0.0595 -0.0595,0.19301 0,0.25254 0.0595,0.0595 0.19302,-0.0595 0.25254,0 0.0595,0.0595 0.0842,0.25253 0,0.25253 -0.0842,0 -0.0595,-0.31206 0,-0.25253 0.1331,0.13309 0.11944,0.37197 0.25254,0.50507 0.0595,0.0595 0,-0.33672 0,-0.25254 0,0.16836 -0.11905,0.38603 0,0.50508 0.0842,0.0842 0.13349,-0.25254 0.25254,-0.25254 0.0842,0 0,0.16836 0,0.25254 0,0.0842 0.0842,0.25254 0,0.25254 -0.0842,0 -0.0842,-0.25254 0,-0.25254 0.0842,0 0,0.16836 0,0.25254 0,0.0842 0.0842,0.25254 0,0.25254 -0.0842,0 -0.0595,-0.19302 0,-0.25254 0.0595,-0.0595 0.19301,-0.0595 0.25254,0 0.008,0.008 0,0.69637 0,0.75761 0,0.59225 -0.0595,0 0.25253,0 0.0842,0 0,0.16836 0,0.25254 0,0.0842 0.0842,0.25254 0,0.25254 -0.16836,0 0.0842,-0.58926 0.25254,-0.25254 0.71553,1.43105 -0.35776,0.25254 0,0.25254 0.0842,0 -0.0595,0.19301 0,0.25254 0.0595,0.0595 0.25254,-0.0842 0.25254,0 0,0.31099 -1.27577,-0.7707 0,0.50507 0.0595,0.0595 -0.0842,-0.25253 0,-0.25253 0.25,0 0.37754,0.50507 0.25254,0.50507 -0.0842,0 -0.0842,-0.25254 0,-0.25254 0.16836,0 -0.16836,0.50508 0,0.50508 0.11905,0 0.13349,-0.25254 0.25254,-0.25254 0.16835,0 -0.11905,0.38603 0,0.50508 0.0595,0.0595 0.19301,-0.0595 0.25253,0 0.0595,0.0595 0.0842,0.25254 0,0.25254 -0.0842,0 -0.0842,-0.25254 0,-0.25254 0.0842,0 -0.0376,0.17724 0,0.25254 0.41879,0.83756 0.17708,0 0.25254,0 0.0842,0 -0.0595,0.19301 0,0.25253 0.0595,0.0595 0.19302,-0.0595 0.25254,0 0.0595,0.0595 0.0842,0.25254 0,0.25254 -0.0842,0 -0.0842,-0.25254 0,-0.25254 0.0842,0 -0.0377,0.17725 0,0.25254 0.0532,0.10648 0.13349,0.25254 0.25254,0.25254 0.0842,0 -0.0842,-0.25254 0,-0.25254 0.11905,0 0.25254,0.13349 0.25254,0.25254 0,0.11905 -0.16836,0.33672 -0.25254,0.25254 -0.0842,-0.0842 0.13349,-0.25254 0.25254,-0.25254 0.0842,0 -0.0377,0.17725 0,0.25254 0.0532,0.10648 0.33671,0.16836 0.25253,0.25254 -0.0842,0.0842 -0.25253,-0.13349 -0.25253,-0.25254 0,-0.0842 0.19301,-0.0595 0.25253,0 0.11905,0.11905 -0.16835,0.50507 0,0.50507 0.11905,0 0.1335,-0.25253 0.25254,-0.25253 0.0842,0 0,0.16836 0,0.25253 0,0.16836 -0.11904,0.38603 0,0.50508 0.0842,0.0842 0.16836,-0.33672 0.25254,-0.25254 0.11905,0.11905 -0.11905,0.38603 0,0.50508 0.0842,0.0842 0.16836,-0.33672 0.25254,-0.25254 0.11905,0.11905 0,0.33672 0,0.50508 0,0.0842 -0.0595,-0.31206 0,-0.25254 0.1331,0.1331 0.19301,0.3265 0.25254,0.50508 0.0266,0.0798 -0.0595,0.19301 0,0.25253 0.0595,0.0595 0.19301,-0.0595 0.25254,0 0.0516,0.0516 -0.0501,0.65749 0,0.75762 0.0532,0.10648 0.25253,0.13349 0.25253,0.25254 0,0.11904 -0.16836,0.33671 -0.25253,0.25253 -0.0842,-0.0842 0.16835,-0.33671 0.25253,-0.25253 0.11905,0.11904 -0.11904,0.38602 0,0.50507 0.0842,0.0842 0.13349,-0.25254 0.25254,-0.25254 0.0842,0 0,0.16836 0,0.25254 0,0.0842 0.0842,0.25254 0,0.25254 -0.0842,0 -0.0842,-0.25254 0,-0.25254 0.0842,0 -0.0376,0.17725 0,0.25254 0.0532,0.10648 0.13349,0.25254 0.25254,0.25254 0.0842,0 -0.0842,-0.25254 0,-0.25254 0.0842,0 -0.0377,0.17725 0,0.25254 0.0532,0.10648 0.13349,0.25254 0.25254,0.25254 0.0842,0 -0.0595,-0.19302 0,-0.25254 0.0595,-0.0595 0.25254,-0.0842 0.25254,0 0,0.0842 -0.25254,-0.0842 -0.25254,0 0,0.5255 0.35415,0.10161 0.50507,0.25254 0.0595,0.0595 0.0842,0.25253 0,0.25253 -0.0842,0 -0.0842,-0.25253 0,-0.25253 0.25,0 0.37754,0.50507 0.25254,0.50507 -0.0842,0 -0.0842,-0.25254 0,-0.25254 0.0842,0 0,0.16836 0,0.25254 0,0.0842 0.0842,0.25254 0,0.25254 -0.0842,0 -0.0842,-0.25254 0,-0.25254 0.16836,0 -0.16836,0.50508 0,0.50508 0.11905,0 0.13349,-0.25254 0.25254,-0.25254 0.0842,0 0,0.16836 0,0.25254 0,0.16836 0,0.33672 0,0.50508 0,0.0842 0,-0.33672 0,-0.25254 0,0.16836 -0.11905,0.38603 0,0.50507 0.0842,0.0842 0.16836,-0.33671 0.25254,-0.25253 0.11905,0.11904 0,0.33671 0,0.50507 0,0.0842 -0.0842,-0.25254 0,-0.25254 0.0842,0 -0.0377,0.17725 0,0.25254 0.0532,0.10648 0.33672,0.16836 0.25254,0.25254 -0.0842,0.0842 -0.13349,-0.25254 -0.25254,-0.25254 -0.0842,0 -0.0377,0.17725 0,0.25254 0.0532,0.10648 0.14606,0.1993 0.25254,0.25254 0.0753,0.0376 0.25253,-0.0842 0.25253,0 0,0.18823 -0.25253,0.31684 -0.25253,0.50507 0,0.11905 0.16836,-0.33671 0.25253,-0.25253 0.11905,0.11904 0,0.33671 0,0.50507 0,0.0842 -0.0595,-0.31206 0,-0.25254 0.1331,0.1331 0.11944,0.37198 0.25254,0.50508 0.0595,0.0595 0,-0.33672 0,-0.25254 0,0.16836 0,0.33672 0,0.50508 0,0.0842 -0.0842,-0.25254 0,-0.25254 0.16836,0 -0.16836,0.50508 0,0.50508 0.11905,0 0.13349,-0.25254 0.25254,-0.25254 0.0842,0 0,0.16836 0,0.25254 0,0.0842 0.0842,0.25254 0,0.25254 -0.0842,0 -0.0842,-0.25254 0,-0.25254 0.0842,0 0,0.16836 0,0.25254 0,0.0842 0.0842,0.25253 0,0.25253 -0.0842,0 -0.0595,-0.19301 0,-0.25253 0.34662,-0.34663 0.25254,0.44565 0.25254,0.50507 0,0.0842 0.0842,0.25254 0,0.25254 -0.16836,0 0.0842,-0.58926 0.25254,-0.25254 0.0753,0.15059 0,0.33672 0,0.50508 0,0.0842 -0.0595,-0.19302 0,-0.25254 0.0595,-0.0595 0.25254,-0.0842 0.25254,0 0,0.18823 -0.25254,0.31684 -0.25254,0.50508 0,0.11904 0.13349,-0.25254 0.25254,-0.25254 0.0842,0 -0.0376,0.17724 0,0.25254 0.0532,0.10648 0.33671,0.16835 0.25253,0.25253 -0.0842,0.0842 -0.33671,-0.16835 -0.25253,-0.25253 0.21344,-0.21344 0.32227,0.50507 0.25253,0.50507 -0.33671,0 0.25254,-0.58925 0.25254,-0.25254 0,0.18823 -0.11944,0.37198 -0.25254,0.50508 -0.11224,0.11224 0.0281,-0.70149 0.25254,-0.25254 0.0753,0.15059 0,0.33672 0,0.50508 0,0.0842 -0.0595,-0.19302 0,-0.25254 0.0595,-0.0595 0.21489,-0.0753 0.25254,0 0.0753,0.15058 0,0.33672 0,0.50508 0,0.0842 0,-0.33672 0,-0.25254 0,0.16836 -0.11905,0.38603 0,0.50507 0.0842,0.0842 0.16836,-0.33671 0.25254,-0.25253 0.11905,0.11904 0,0.33671 0,0.50507 0,0.0842 -0.0842,-0.25254 0,-0.25254 0.18823,0 0.44077,0.50508 0.25254,0.50508 -0.0842,0 -0.0842,-0.25254 0,-0.25254 0.16836,0 -0.0753,0.35449 0,0.50508 0.41878,0.83756 0.17707,0 0.25253,0 0.0842,0 -0.0376,0.17724 0,0.25254 0.0532,0.10648 0.33672,0.16836 0.25254,0.25254 -0.0842,0.0842 -0.16836,-0.33672 -0.25254,-0.25254 -0.11904,0.11904 -0.11904,0.38603 0,0.50507 0.0842,0.0842 0.16836,-0.33671 0.25254,-0.25253 0.11905,0.11904 -0.0753,0.35449 0,0.50507 0.0376,0.0753 0.16836,0 0.25254,0 0,0.16836 0,0.33672 0,0.50508 0,0.0842 -0.0595,-0.19302 0,-0.25254 0.0595,-0.0595 0.19302,-0.0595 0.25254,0 0.0595,0.0595 0,0.16836 0,0.25254 0,0.0842 0.0842,0.25254 0,0.25254 -0.0842,0 -0.0595,-0.19302 0,-0.25254 0.0595,-0.0595 0.19301,-0.0595 0.25254,0 0.11904,0.11905 -0.16836,0.50507 0,0.50507 0.11904,0 0.25254,-0.13349 0.25254,-0.25253 0,-0.0842 -0.25254,-0.0842 -0.25254,0 0,0.18823 0.11944,0.37197 0.25254,0.50507 0.0595,0.0595 -0.0595,-0.19301 0,-0.25254 0.0595,-0.0595 0.19301,-0.0595 0.25253,0 0.0595,0.0595 0,0.16836 0,0.25254 0,0.0842 0.0842,0.25254 0,0.25254 -0.0842,0 -0.0595,-0.19301 0,-0.25254 0.0595,-0.0595 0.25254,-0.0842 0.25254,0 0,0.0842 -0.16836,0 -0.25254,0 0.16836,0 0.38603,-0.11905 0.50508,0 0.0842,0.0842 -0.25254,0.13349 -0.25254,0.25254 0,0.11905 0.13349,0.25254 0.25254,0.25254 0.0842,0 -0.0595,-0.19302 0,-0.25254 0.0595,-0.0595 0.25254,-0.0842 0.25254,0 0,0.35776 -1.17851,-0.71552 0.25254,0 0.15058,0.0753 -0.11905,0.38603 0,0.50508 0.0595,0.0595 0.19301,-0.0595 0.25253,0 0.30759,0.30758 0.1183,0.56422 0.50508,0.75761 0.0753,0.0377 0.25254,-0.0842 0.25254,0 0,0.18823 -0.38564,0.37198 -0.25254,0.50508 0.1331,0.1331 0.33672,-0.33672 0.50508,-0.25254 0.15058,0.0753 -0.11905,0.38603 0,0.50508 0.0842,0.0842 0.16836,-0.33672 0.25253,-0.25254 0.11905,0.11904 -0.11904,0.38603 0,0.50507 0.0842,0.0842 0.25254,-0.13349 0.25254,-0.25253 0,-0.0842 -0.25254,-0.0842 -0.25254,0 0,0.18823 0.11944,0.37197 0.25254,0.50507 0.0595,0.0595 -0.0595,-0.19301 0,-0.25254 0.0595,-0.0595 0.25254,-0.0842 0.25254,0 0,0.18823 -0.25254,0.31685 -0.25254,0.50508 0,0.11905 0.14606,-0.1993 0.25254,-0.25254 0.0753,-0.0376 0.25254,-0.0842 0.25254,0 0,0.11905 -0.25254,0.13349 -0.25254,0.25254 0,0.11905 0.13349,0.25254 0.25254,0.25254 0.0842,0 -0.0595,-0.19302 0,-0.25254 0.0595,-0.0595 0.21489,-0.0753 0.25254,0 0.0753,0.15058 0,0.33672 0,0.50508 0,0.0842 -0.0595,-0.19302 0,-0.25254 0.0595,-0.0595 0.19301,-0.0595 0.25254,0 0.13309,0.1331 0.25253,0.31684 0.25253,0.50507 0,0.52551 -0.59224,-0.84478 0,-0.25253 0.1331,0.1331 0.11944,0.37197 0.25254,0.50507 0.0595,0.0595 -0.0842,-0.25254 0,-0.25254 0.11905,0 0.14606,0.1993 0.25254,0.25254 0.0753,0.0377 0.25254,-0.0842 0.25254,0 0,0.18823 -0.25254,0.31685 -0.25254,0.50508 0,0.11905 0.14606,-0.30578 0.25254,-0.25254 0.16836,0.0842 0.11944,0.37198 0.25254,0.50508 0.0595,0.0595 -0.0595,-0.31207 0,-0.25254 0.91552,0.91552 0,0.44593 0,0.25254 0,-0.0842 0.19301,-0.0595 0.25253,0 0.0595,0.0595 -0.0595,0.19301 0,0.25253 0.0595,0.0595 0.25254,-0.0842 0.25254,0 0,0.0842 -0.25254,-0.0842 -0.25254,0 0,0.11905 0.1993,0.14606 0.25254,0.25254 0.0376,0.0753 -0.0842,0.25254 0,0.25254 0.83757,0 0,-0.4732 0,-0.25254 0,0.11905 0.1993,0.14606 0.25254,0.25254 0.0377,0.0753 -0.0595,0.19302 0,0.25254 0.0595,0.0595 0.25254,-0.0842 0.25254,0 0,0.11905 -0.13349,0.25254 -0.25254,0.25254 -0.0842,0 -0.0595,-0.19302 0,-0.25254 0.0595,-0.0595 0.19301,-0.0595 0.25254,0 0.11905,0.11905 -0.11905,0.38603 0,0.50508 0.0595,0.0595 0.25254,-0.0842 0.25254,0 0,0.11904 -0.13349,0.25253 -0.25254,0.25253 -0.16836,0 0.0842,-0.58925 0.25254,-0.25253 0.0753,0.15058 0,0.33671 0,0.50507 0,0.0842 -0.0595,-0.31206 0,-0.25254 0.1331,0.1331 0.25253,0.31685 0.25253,0.50508 0,0.11905 -0.25253,-0.13349 -0.25253,-0.25254 0,-0.0842 0.21489,-0.0753 0.25253,0 0.0753,0.15059 0,0.33672 0,0.50508 0,0.0842 -0.0595,-0.19302 0,-0.25254 0.0595,-0.0595 0.2149,-0.0753 0.25254,0 0.0753,0.15058 0,0.33672 0,0.50508 0,0.0842 -0.0595,-0.19302 0,-0.25254 0.0595,-0.0595 0.25254,-0.0842 0.25254,0 0,0.11905 -0.25254,0.13349 -0.25254,0.25254 0,0.11904 0.13349,0.25253 0.25254,0.25253 0.0842,0 -0.0595,-0.19301 0,-0.25253 0.15093,-0.15093 0.50508,0.15391 0.50508,0.25253 0,0.0842 -0.33672,0 -0.25254,0 0.16836,0 0.33672,0 0.50508,0 0.0842,0 -0.25254,-0.0842 -0.25254,0 0,0.11905 0.13349,0.25254 0.25254,0.25254 0.11904,0 0.25253,-0.13349 0.25253,-0.25254 0,-0.0842 -0.33671,0 -0.25253,0 0.16835,0 0.38602,-0.11904 0.50507,0 0.0842,0.0842 -0.25254,0.13349 -0.25254,0.25254 0,0.11905 0.13349,0.25254 0.25254,0.25254 0.0842,0 -0.0595,-0.19301 0,-0.25254 0.0595,-0.0595 0.19302,-0.0595 0.25254,0 0.0595,0.0595 -0.0595,0.19302 0,0.25254 0.0595,0.0595 0.25254,-0.0842 0.25254,0 0,0.11905 -0.37159,0.25254 -0.25254,0.25254 0.18823,0 0.37198,-0.11944 0.50508,-0.25254 0.0595,-0.0595 -0.33672,0 -0.25254,0 0.16836,0 0.33672,0 0.50507,0 0.0842,0 -0.25253,0.0842 -0.25253,0 0,-0.0842 0.16835,0 0.25253,0 0.0842,0 0.16836,0 0.25254,0 0.0842,0 0.25254,-0.0842 0.25254,0 0,0.0842 -0.25254,0.0842 -0.25254,0 0,-0.0842 0.16836,0 0.25254,0 0.0842,0 0.16836,0 0.25254,0 0.0842,0 0.25254,-0.0842 0.25254,0 0,0.0842 -0.25254,0.0842 -0.25254,0 0,-0.0842 0.17724,0.0377 0.25254,0 0.10648,-0.0532 0.25254,-0.13349 0.25254,-0.25254 0,-0.0842 -0.25254,0.0842 -0.25254,0 0,-0.11905 0.13349,-0.25254 0.25254,-0.25254 0.11904,0 0.33671,0.16836 0.25253,0.25254 -0.0842,0.0842 -0.25253,-0.13349 -0.25253,-0.25254 0,-0.0842 0.17724,0.0376 0.25253,0 0.10648,-0.0532 0.25254,-0.13349 0.25254,-0.25253 0,-0.0842 -0.25254,0.0842 -0.25254,0 0,-0.16836 0.50508,0.16836 0.50508,0 0,-0.11905 -0.13349,-0.25254 -0.25254,-0.25254 -0.0842,0 -0.0595,0.19301 0,0.25254 0.0595,0.0595 0.19302,0.0595 0.25254,0 0.0595,-0.0595 -0.0595,-0.19302 0,-0.25254 0.0595,-0.0595 0.19301,0.0595 0.25254,0 0.0595,-0.0595 -0.0595,-0.19302 0,-0.25254 0.0595,-0.0595 0.25254,-0.0842 0.25254,0 0,0.0842 -0.25254,0.0842 -0.25254,0 0,-0.11905 0.16836,-0.16836 0.25254,-0.25254 0.18967,-0.18968 0.50507,-0.55869 0.50507,-0.25254 0,0.33672 -0.58925,-0.25253 -0.25254,-0.25253 0.11905,0 0.13349,0.25253 0.25254,0.25253 0.11905,0 0.25254,-0.13349 0.25254,-0.25253 0,-0.0842 -0.25254,0.0842 -0.25254,0 0,-0.41879 0.35415,-0.17708 0.50508,-0.25254 0.10648,-0.0532 0.14606,-0.1993 0.25254,-0.25254 0.0753,-0.0377 0.25253,-0.0842 0.25253,0 0,0.0842 -0.33671,0 -0.25253,0 0.16836,0 0.33671,0 0.50507,0 0.0842,0 -0.33671,0 -0.25254,0 0.25254,0 0.50508,0 0.75762,0 0.0842,0 0.19301,0.0595 0.25254,0 0.0595,-0.0595 -0.0753,-0.21489 0,-0.25254 0.20203,-0.10101 0.55558,0.10102 0.75761,0 0.10648,-0.0532 0.16836,-0.33672 0.25254,-0.25254 0.0842,0.0842 -0.25254,0.13349 -0.25254,0.25254 0,0.0842 0.17725,0.0376 0.25254,0 0.94522,-0.47261 -0.46682,-0.0383 0,-0.50508 0.0595,-0.0595 0.19301,0.0595 0.25254,0 0.0595,-0.0595 -0.0842,-0.25253 0,-0.25253 0.11905,0 0.33672,0.16836 0.25254,0.25253 -0.21344,0.21344 -0.32228,-0.50507 -0.25254,-0.50507 0.11905,0 0.13349,0.25254 0.25254,0.25254 0.11904,0 0.25253,-0.13349 0.25253,-0.25254 0,-0.0842 -0.19301,0.0595 -0.25253,0 -0.0595,-0.0595 -0.0842,-0.25254 0,-0.25254 0.11904,0 0.13349,0.25254 0.25253,0.25254 0.0842,0 -0.0595,-0.19302 0,-0.25254 0.59225,-0.59225 0,0.89709 0,-0.25254 0,-0.0842 0.19302,0.0595 0.25254,0 0.0595,-0.0595 -0.0595,-0.19301 0,-0.25254 0.0595,-0.0595 0.25254,-0.0842 0.25254,0 0,0.0842 -0.19301,0.0595 -0.25254,0 -0.0595,-0.0595 -0.0595,-0.19301 0,-0.25253 0.0595,-0.0595 0.17725,0.0376 0.25254,0 1.051,-0.52551 -0.15092,-0.10162 0,-0.25254 0.1331,-0.1331 0.4209,-0.0842 0.50508,-0.25254 0.0532,-0.10648 -0.16836,-0.16836 -0.25254,-0.25254 0.16836,-0.0842 0.37198,-0.11944 0.50507,-0.25254 0.0595,-0.0595 -0.25253,0.0842 -0.25253,0 0,-0.11904 0.1993,-0.14606 0.25253,-0.25253 0.0457,-0.0913 0,-1.08704 0,-1.2627 0,-1.23732 0,-0.98111 0,-2.27284 0,-0.0842 0,0.33672 0,0.25254 0,-1.14963 0.11905,-0.25254 -0.25253,-0.25254 -0.0842,0 0.0376,-0.17724 0,-0.25254 -0.0532,-0.10648 -0.14606,-0.1993 -0.25254,-0.25253 -0.0753,-0.0377 -0.25254,0.0842 -0.25254,0 0,-0.0842 0.21489,0.0753 0.25254,0 0.0753,-0.15059 0,-0.33672 0,-0.50508 0,-0.0842 0.0595,0.19301 0,0.25254 -0.15093,0.15092 -0.50508,-0.15392 -0.50508,-0.25254 0,-0.0842 0.19302,0.0595 0.25254,0 0.0595,-0.0595 0.0595,-0.19302 0,-0.25254 -0.0595,-0.0595 -0.19301,0.0595 -0.25254,0 -0.0595,-0.0595 0.0266,-0.17268 0,-0.25254 -0.0595,-0.17857 -0.25254,-0.31684 -0.25254,-0.50507 0,-0.11905 0.16836,0.33671 0.25254,0.25253 0.11905,-0.11904 0,-0.33671 0,-0.50507 0,-0.0842 0,0.33672 0,0.25254 0,-0.16836 0,-0.33672 0,-0.50508 0,-0.0842 0.0595,0.31206 0,0.25254 -0.1331,-0.1331 -0.11944,-0.37198 -0.25254,-0.50508 -0.0595,-0.0595 0.0842,0.25254 0,0.25254 -0.11904,0 -0.25253,-0.13349 -0.25253,-0.25254 0,-0.0842 0.19301,0.0595 0.25253,0 0.0595,-0.0595 0,-0.16836 0,-0.25254 0,-0.0842 0,-0.16835 0,-0.25253 0,-0.16836 0,-0.33672 0,-0.50508 0,-0.0842 0,0.33672 0,0.25254 0,-0.16836 0.11905,-0.38603 0,-0.50508 -0.0842,-0.0842 -0.14605,0.1993 -0.25253,0.25254 -0.0753,0.0377 -0.25254,0.0842 -0.25254,0 0,-0.18823 0.11944,-0.37198 0.25254,-0.50508 0.0595,-0.0595 0,0.33672 0,0.25254 0,-0.16836 0,-0.33672 0,-0.50507 0,-0.0842 0.0595,0.31206 0,0.25253 -0.1331,-0.1331 -0.11944,-0.37197 -0.25254,-0.50507 -0.0595,-0.0595 0.0842,0.25254 0,0.25254 -0.11905,0 -0.25254,-0.1335 -0.25254,-0.25254 0,-0.0842 0.21489,0.0753 0.25254,0 0.0753,-0.15059 0,-0.33672 0,-0.50508 0,-0.33672 0.0842,0.92597 -0.25254,0.25254 -0.0753,-0.15059 0,-0.33672 0,-0.50508 0,-0.0842 0.0595,0.19302 0,0.25254 -0.0595,0.0595 -0.25254,0.0842 -0.25254,0 0,-0.18823 0.11944,-0.37198 0.25254,-0.50508 0.0595,-0.0595 0,0.33672 0,0.25254 0,-0.16836 0,-0.33672 0,-0.50507 0,-0.0842 0.0595,0.31206 0,0.25253 -0.1331,-0.13309 -0.11944,-0.37197 -0.25254,-0.50507 -0.0595,-0.0595 0.0595,0.19301 0,0.25254 -0.0595,0.0595 -0.25254,0.0842 -0.25254,0 0,-1.56596 0.38232,-0.25254 0.25254,-0.25254 -0.0842,0 0,-0.16836 0,-0.25254 0,-0.0842 0,-0.16836 0,-0.25254 0,-0.0842 -0.0842,-0.25254 0,-0.25254 0.0842,0 0.0595,0.31207 0,0.25254 -0.1331,-0.1331 -0.11944,-0.37198 -0.25254,-0.50507 -0.0595,-0.0595 0,0.33671 0,0.25253 0,-1.65552 0,0.89792 0,-0.75761 0,-0.0842 0.0595,0.19301 0,0.25254 -0.0595,0.0595 -0.25253,0.0842 -0.25253,0 0,-0.0842 0.21489,0.0753 0.25253,0 0.0753,-0.15059 0,-0.33672 0,-0.50508 0,-0.0842 0,0.33672 0,0.25254 0,-0.16836 0,-0.33672 0,-0.50508 0,-0.0842 0.0595,0.19302 0,0.25254 -0.0595,0.0595 -0.19301,0.0595 -0.25253,0 -0.11905,-0.11905 0.16835,-0.50508 0,-0.50508 -0.11905,0 -0.25254,0.1335 -0.25254,0.25254 0,0.0842 0.19301,0.0595 0.25254,0 0.0595,-0.0595 0,-0.16836 0,-0.25254 0,-0.0842 0.0842,-0.25253 0,-0.25253 -0.11905,0 -0.1335,0.25253 -0.25254,0.25253 -0.11905,0 -0.25254,-0.13349 -0.25254,-0.25253 0,-0.11905 0.13349,-0.25254 0.25254,-0.25254 0.0842,0 0,0.33672 0,0.25254 0,-0.16836 0.11904,-0.38603 0,-0.50508 -0.0842,-0.0842 -0.14606,0.30578 -0.25254,0.25254 -1.42455,-0.71228 0.32194,-0.57448 0,-0.25254 -0.0842,0.0842 -0.1993,-0.14606 -0.25254,-0.25254 -0.0376,-0.0753 0.0842,-0.25254 0,-0.25254 -0.11905,0 -0.25254,0.37159 -0.25254,0.25254 0,-1.56596 0.38232,-0.25254 0.25254,-0.25254 -0.0842,0 0.0377,-0.17724 0,-0.25253 -0.38321,-0.76642 -0.20223,-0.0503 -0.25254,0 -0.0595,0.0595 -0.25254,0.0842 -0.25254,0 0,-0.0842 0.19302,0.0595 0.25254,0 0.0595,-0.0595 0,-0.16836 0,-0.25254 0,-0.0842 0.0842,-0.25254 0,-0.25254 -0.11904,0 -0.13349,0.25254 -0.25254,0.25254 -0.16835,0 0.16836,-0.50508 0,-0.50508 -0.11904,0 -0.25253,0.37159 -0.25253,0.25254 0,-1.56596 0.38231,-0.25254 0.25253,-0.25254 -0.0842,0 0.0595,-0.19301 0,-0.25254 -0.31099,-0.31099 -0.50507,0.7707 -0.50507,-0.50507 0,-0.67344 0.67343,1.34687 0,0 -0.0753,-0.15059 0.16836,-0.50508 0,-0.50508 -0.11905,0 -0.16836,0.33672 -0.25254,0.25254 -0.0842,-0.0842 0.1993,-0.14606 0.25254,-0.25254 0.0376,-0.0753 0.0842,-0.25254 0,-0.25254 -0.11905,0 -0.13349,0.25254 -0.25254,0.25254 -0.16836,0 0.16836,-0.50508 0,-0.50508 -0.68153,0 -0.11033,0.4732 0,0.25254 0.0753,-0.15058 0,-0.33671 0,-0.50507 0,-0.0842 0.0842,0.25253 0,0.25253 -0.11905,0 -0.1993,-0.14605 -0.25254,-0.25253 -0.0376,-0.0753 0.0595,-0.19302 0,-0.25254 -0.0595,-0.0595 -0.25254,0.0842 -0.25254,0 0,-0.0842 0.19302,0.0595 0.25254,0 0.0595,-0.0595 -0.0842,-0.25254 0,-0.25254 0.0842,0 0.0595,0.31206 0,0.25254 -0.1331,-0.1331 -0.11944,-0.37198 -0.25254,-0.50508 -0.0595,-0.0595 0.0595,0.19302 0,0.25254 -0.0595,0.0595 -0.25253,0.0842 -0.25253,0 0,-0.18823 0.11943,-0.37198 0.25253,-0.50508 0.0595,-0.0595 0.0595,0.31207 0,0.25254 -0.1331,-0.1331 -0.11943,-0.37197 -0.25253,-0.50507 -0.0595,-0.0595 0,0.33671 0,0.25253 0,-0.16835 0,-0.33671 0,-0.50507 0,-0.0842 0.0842,-0.25254 0,-0.25254 -0.11905,0 -0.16836,0.33672 -0.25254,0.25254 -0.0842,-0.0842 0.1993,-0.14606 0.25254,-0.25254 0.0376,-0.0753 0.0842,-0.25254 0,-0.25254 -0.11905,0 -0.16836,0.33672 -0.25254,0.25254 -0.16836,-1.43105 0.0842,-0.25254 0,-0.25254 -0.0842,0 0,-0.16836 0,-0.25254 0,-0.0842 0.0842,-0.25253 0,-0.25253 -0.11905,0 -0.25254,0.37158 -0.25254,0.25253 0,-0.18823 0.11944,-0.37197 0.25254,-0.50507 0.0595,-0.0595 0.0595,0.19301 0,0.25254 -0.0595,0.0595 -0.19302,0.0595 -0.25254,0 -0.0516,-0.0516 0.0501,-0.65749 0,-0.75762 -0.0532,-0.10648 -0.33672,-0.16836 -0.25254,-0.25254 0.0842,-0.0842 0.13349,0.25254 0.25254,0.25254 0.0842,0 0.0376,-0.17725 0,-0.25254 -0.0532,-0.10648 -0.13349,-0.25254 -0.25254,-0.25254 -0.0842,0 0,0.33672 0,0.25254 0,-0.16836 0,-0.33671 0,-0.50507 0,-0.0842 0.0842,0.25253 0,0.25253 -0.0842,0 0,-0.16835 0,-0.25253 0,-0.0842 -0.0842,-0.25254 0,-0.25254 0.0842,0 0,0.33672 0,0.25254 0,-0.16836 0,-0.33672 0,-0.50508 0,-0.0842 0.0842,0.25254 0,0.25254 -0.11905,0 -0.25254,-0.13349 -0.25254,-0.25254 0,-0.11905 0.25254,-0.13349 0.25254,-0.25254 0,-0.11905 -0.1993,-0.14606 -0.25254,-0.25254 -0.0376,-0.0753 0.0377,-0.17724 0,-0.25253 -0.0532,-0.10648 -0.25253,-0.13349 -0.25253,-0.25254 0,-0.0842 0.25253,0.0842 0.25253,0 0,-0.11905 -0.13349,-0.25254 -0.25253,-0.25254 -0.0842,0 0.0842,0.25254 0,0.25254 -0.16836,0 0.0753,-0.35449 0,-0.50508 -0.0532,-0.10648 -0.33672,-0.16836 -0.25254,-0.25254 0.0842,-0.0842 0.13349,0.25254 0.25254,0.25254 0.0842,0 0,-0.16836 0,-0.25254 0,-0.0842 0.0842,-0.25254 0,-0.25254 -0.11905,0 -0.1335,0.25254 -0.25254,0.25254 -0.0842,0 0,-0.16836 0,-0.25254 0,-0.0842 0,-0.16835 0,-0.25253 0,-0.0842 0.0842,-0.25254 0,-0.25254 -0.37159,0 -0.25254,0.89709 -0.25254,-0.25254 0,-0.0842 0,0.33672 0,0.25254 0,-0.16836 0.0753,-0.35449 0,-0.50508 -0.0376,-0.0753 -0.25254,0.0842 -0.25254,0 0,-0.0842 0.19301,0.0595 0.25254,0 0.0595,-0.0595 0.0595,-0.19301 0,-0.25254 -0.0595,-0.0595 -0.19302,0.0595 -0.25254,0 -0.0595,-0.0595 0.0595,-0.19301 0,-0.25253 -0.0595,-0.0595 -0.25254,0.0842 -0.25254,0 0,-0.83757 0.4732,0 0.25254,0 -0.41878,0 -0.17708,-0.35416 -0.25254,-0.50508 -0.0532,-0.10648 -0.25254,-0.13349 -0.25254,-0.25254 0,-0.0842 0.25254,-0.0842 0.25254,0 0,0.0842 -0.19301,0.0595 -0.25254,0 -0.0595,-0.0595 0.0377,-0.17724 0,-0.25254 -0.0532,-0.10648 -0.25253,-0.13349 -0.25253,-0.25253 0,-0.0842 0.25253,-0.0842 0.25253,0 0,0.0842 -0.19301,0.0595 -0.25253,0 -0.0595,-0.0595 0.0376,-0.17725 0,-0.25254 -0.0532,-0.10648 -0.25254,-0.13349 -0.25254,-0.25254 0,-0.0842 0.25254,-0.0842 0.25254,0 0,0.0842 -0.19302,0.0595 -0.25254,0 -0.15093,-0.15093 0.27296,-0.50508 -0.25254,-0.50508 -0.0842,0 0.0842,0.25254 0,0.25254 -0.16836,0 0.11905,-0.38603 0,-0.50508 -0.0595,-0.0595 -0.19301,0.0595 -0.25254,0 -0.11905,-0.11904 0.11905,-0.38602 0,-0.50507 -0.0595,-0.0595 -0.25254,0.0842 -0.25254,0 0,-0.0842 0.25254,-0.0842 0.25254,0 0,0.0842 -0.19301,0.0595 -0.25254,0 -0.0595,-0.0595 0.0377,-0.17725 0,-0.25254 -0.0532,-0.10648 -0.25253,-0.13349 -0.25253,-0.25254 0,-0.0842 0.25253,-0.0842 0.25253,0 0,0.0842 -0.19301,0.0595 -0.25253,0 -0.0595,-0.0595 0.0595,-0.19301 0,-0.25254 -0.0595,-0.0595 -0.25254,0.0842 -0.25254,0 0,-0.11904 0.25254,-0.13349 0.25254,-0.25253 0,-0.0842 -0.19302,0.0595 -0.25254,0 -0.11905,-0.11905 0.11905,-0.38603 0,-0.50508 -0.0595,-0.0595 -0.19302,0.0595 -0.25254,0 -0.12627,-0.12627 0.12627,-0.63135 0,-0.75761 -0.0595,-0.0595 -0.19302,0.0595 -0.25254,0 -0.11905,-0.11905 0.11905,-0.38603 0,-0.50508 -0.0595,-0.0595 -0.25254,0.0842 -0.25254,0 0,-0.11905 0.25254,-0.13349 0.25254,-0.25254 0,-0.16836 -0.38603,0.11905 -0.50508,0 -0.11904,-0.11905 0.11905,-0.38603 0,-0.50508 -0.0595,-0.0595 -0.19301,0.0595 -0.25253,0 -0.11905,-0.11904 0.11904,-0.38602 0,-0.50507 -0.0595,-0.0595 -0.25254,0.0842 -0.25254,0 0,-0.11905 0.25254,-0.13349 0.25254,-0.25254 0,-0.11905 -0.1993,-0.14606 -0.25254,-0.25254 -0.0377,-0.0753 0.0595,-0.19301 0,-0.25254 -0.0595,-0.0595 -0.25254,0.0842 -0.25254,0 0,-0.0842 0.21489,0.0753 0.25254,0 0.0753,-0.15058 0,-0.33671 0,-0.50507 0,-0.0842 0.0595,0.19301 0,0.25254 -0.0595,0.0595 -0.19302,0.0595 -0.25254,0 -0.0595,-0.0595 0,-0.16836 0,-0.25254 0,-0.16836 0,-0.33672 0,-0.50508 0,-0.14084 0.0101,-1.25256 0,-1.26269 -0.0842,-0.0842 -0.16836,0.33672 -0.25254,0.25254 -0.11905,-0.11905 0,-0.33672 0,-0.50508 0,-0.0842 0,0.33672 0,0.25254 0,-0.16836 0,-0.33672 0,-0.50508 0,-0.0842 0.0842,0.25254 0,0.25254 -0.0842,0 0,-0.16836 0,-0.25254 0,-0.06 0.0283,-0.95355 0,-1.01015 -0.0532,-0.10648 -0.1865,-0.15348 -0.25254,-0.25254 -0.10441,-0.15661 -0.19301,-0.3265 -0.25253,-0.50507 -0.0266,-0.0799 -0.0842,-0.25254 0,-0.25254 0.0842,0 0.0595,0.31206 0,0.25254 -0.1331,-0.1331 -0.11944,-0.37198 -0.25254,-0.50508 -0.0595,-0.0595 -0.21489,0.0753 -0.25254,0 -0.0753,-0.15058 0,-0.33672 0,-0.50508 0,-0.0842 0,0.33672 0,0.25254 0,-0.16836 0,-0.33671 0,-0.50507 0,-0.0697 0.0595,0.93618 -0.25254,0 -0.0532,-0.15972 0.11905,-0.38603 0,-0.50508 -0.0842,-0.0842 -0.16836,0.33672 -0.25254,0.25254 -0.11904,-0.11905 0.11905,-0.38603 0,-0.50508 -0.0842,-0.0842 -0.16836,0.33672 -0.25253,0.25254 -0.11905,-0.11905 0,-0.33672 0,-0.50508 0,-0.0842 0.0595,0.31207 0,0.25254 -0.1331,-0.1331 -0.11944,-0.37197 -0.25254,-0.50507 -0.0595,-0.0595 0,0.33671 0,0.25253 0,-0.16835 0,-0.33671 0,-0.50507 0,-0.0842 0.0595,0.19301 0,0.25254 -0.0595,0.0595 -0.19302,0.0595 -0.25254,0 -0.0595,-0.0595 0,-0.16836 0,-0.25254 0,-0.0842 -0.0842,-0.25254 0,-0.25254 0.0842,0 0,0.33672 0,0.25254 0,-0.16836 0.11905,-0.38603 0,-0.50508 -0.0842,-0.0842 -0.16836,0.33672 -0.25254,0.25254 -0.11905,-0.11905 0,-0.33672 0,-0.50508 0,-0.0842 0,0.33672 0,0.25254 0,-0.16836 0,-0.33672 0,-0.50507 0,-0.33672 0.0842,0.92597 -0.25254,0.25253 -0.71552,-1.43105 0.35777,-0.25253 0,-0.25253 -0.0842,0 0,-0.16836 0,-0.25254 0,-0.0842 -0.0842,-0.25254 0,-0.25254 0.0842,0 0.0842,0.25254 0,0.25254 -0.0842,0 0,-0.16836 0,-0.25254 0,-0.16836 0.11905,-0.38603 0,-0.50508 -0.0842,-0.0842 -0.13349,0.25254 -0.25254,0.25254 -0.11904,0 -0.25253,-0.13349 -0.25253,-0.25254 0,-0.11904 0.13349,-0.25254 0.25253,-0.25254 0.0842,0 0,0.33672 0,0.25254 0,-0.16836 0,-0.33671 0,-0.50507 0,-0.0842 0.0595,0.19301 0,0.25253 -0.0595,0.0595 -0.21489,0.0753 -0.25253,0 -0.0753,-0.15058 0,-0.33671 0,-0.50507 0,-0.0842 0,0.33672 0,0.25254 0,-0.16836 0,-0.33672 0,-0.50508 0,-0.0842 0.0842,0.25254 0,0.25254 -0.36136,0 -0.25254,-0.56609 -0.25254,-0.75762 0,-0.0842 0.0842,0.25254 0,0.25254 -0.11905,0 -0.1993,-0.14606 -0.25254,-0.25254 -0.0377,-0.0753 -0.0842,-0.25253 0,-0.25253 0.0842,0 0,0.33671 0,0.25253 0,-0.16835 0,-0.33671 0,-0.50507 0,-0.0842 0.0842,0.25254 0,0.25254 -0.11905,0 -0.1993,-0.14606 -0.25254,-0.25254 -0.0376,-0.0753 -0.0842,-0.25254 0,-0.25254 0.0842,0 0.0842,0.25254 0,0.25254 -0.0842,0 0,-0.16836 0,-0.25254 0,-0.0842 0.0842,-0.25254 0,-0.25254 -0.11905,0 -0.13349,0.25254 -0.25254,0.25254 -0.33671,0 -0.33671,-0.50508 0,-0.50508 0.0842,0 0.0842,0.25254 0,0.25254 -0.0842,0 0,-0.16836 0,-0.25254 0,-0.0842 -0.0842,-0.25253 0,-0.25253 0.0842,0 -0.0842,1.09433 -0.50507,0.25253 -0.0842,-0.16836 0.11944,-0.37197 0.25254,-0.50507 0.0595,-0.0595 0,0.33671 0,0.25254 0,-0.16836 0.0753,-0.3545 0,-0.50508 -0.15093,-0.30185 -0.50508,0.4864 -0.50508,-0.25254 0,-0.11905 0.13349,-0.25254 0.25254,-0.25254 0.0842,0 0.0595,0.31206 0,0.25254 -0.1331,-0.1331 -0.11944,-0.37198 -0.25254,-0.50508 -0.0595,-0.0595 0,0.33672 0,0.25254 0,-0.16836 0,-0.33671 0,-0.50507 0,-0.71553 0.0842,0.33671 -0.50508,-0.25254 -0.63433,-0.63434 0.88688,0.12926 0.25254,-0.50508 -0.0595,-0.0595 -0.19301,0.0595 -0.25254,0 -0.0595,-0.0595 0.0842,-0.25254 0,-0.25254 -0.11904,0 -0.25253,0.37159 -0.25253,0.25254 0,-0.18823 0.11943,-0.37198 0.25253,-0.50507 0.0595,-0.0595 0.0595,0.31206 0,0.25253 -0.1331,-0.1331 -0.0842,-0.42089 -0.25253,-0.50507 -0.10648,-0.0532 -0.25254,0.37158 -0.25254,0.25254 0,-0.18824 0.11944,-0.37198 0.25254,-0.50508 0.0595,-0.0595 0,0.33672 0,0.25254 0,-0.16836 0,-0.33672 0,-0.50508 0,-0.0842 0.0842,0.25254 0,0.25254 -0.16836,0 0.16835,-0.50508 0,-0.50508 -0.11905,0 -0.1335,0.25254 -0.25254,0.25254 -0.0842,0 0.0753,-0.21489 0,-0.25254 -0.15059,-0.0753 -0.33672,0 -0.50508,0 -0.0842,0 0.33672,0 0.25254,0 -0.16836,0 -0.33672,0 -0.50508,0 -0.0842,0 0.33672,0 0.25254,0 -0.16836,0 -0.33672,0 -0.50508,0 -0.0842,0 0.31207,0.0595 0.25254,0 -0.1331,-0.1331 -0.31684,-0.25254 -0.50507,-0.25254 -0.11905,0 0.33671,0.16836 0.25253,0.25254 -0.11904,0.11905 -0.38602,0.11905 -0.50507,0 -0.0842,-0.0842 0.33672,-0.16836 0.25254,-0.25254 -0.11905,-0.11904 -0.33672,0 -0.50508,0 -0.0842,0 0.33672,0 0.25254,0 -0.16836,0 -0.33672,0 -0.50508,0 -0.0842,0 0.33672,0 0.25254,0 -0.16836,0 -0.33672,0 -0.50508,0 -0.0842,0 0.33672,0 0.25254,0 -1.65553,0 0.89792,0 -0.75761,0 -0.33672,0 0.92597,-0.0842 0.25254,0.25254 -0.15059,0.0753 -0.38603,-0.11904 -0.50508,0 -0.0842,0.0842 0.1993,0.14606 0.25254,0.25254 0.0376,0.0753 0,0.16836 0,0.25254 0,0.0842 0.0842,0.25254 0,0.25254 -0.0842,0 0.0595,-0.19302 0,-0.25254 -0.0595,-0.0595 -0.16836,0 -0.25254,0 -0.0842,0 -0.25254,-0.0842 -0.25254,0 0,0.18823 0.11944,0.37198 0.25254,0.50508 0.0595,0.0595 0,-0.33672 0,-0.25254 0,0.16836 0,0.33671 0,0.50507 0,0.0842 0,-0.33671 0,-0.25253 0,0.16835 0,0.33671 0,0.50507 0,0.0842 0.0595,-0.31206 0,-0.25254 -0.1331,0.1331 -0.11944,0.37198 -0.25254,0.50508 -0.0595,0.0595 0.0842,-0.25254 0,-0.25254 -0.11905,0 -0.25254,0.13349 -0.25254,0.25254 0,0.11905 0.13349,0.25254 0.25254,0.25254 0.0842,0 0,-0.33672 0,-0.25254 0,1.65553 0,-0.89791 0,0.75761 0,0.0842 0.0595,-0.31206 0,-0.25253 -0.92807,0.92807 0.0327,0.53781 -0.25254,0.25253 -0.0595,-0.0595 -0.25254,0.0842 -0.25254,0 0,-0.0842 0.2149,-0.0753 0.25254,0 0.0753,0.15059 0,0.33672 0,0.50508 0,0.0842 0,-0.33672 0,-0.25254 0,0.16836 0,0.33672 0,0.50508 0,0.0842 0,-0.33672 0,-0.25254 0,1.65553 0,-0.89791 0,0.75762 0,0.0842 0.0595,-0.31207 0,-0.25254 -0.1331,0.1331 -0.11944,0.37197 -0.25254,0.50507 -0.0595,0.0595 0.0595,-0.31206 0,-0.25253 -0.13309,0.13309 -0.25253,0.31684 -0.25253,0.50507 0,0.11905 0.16836,-0.33672 0.25253,-0.25254 0.11905,0.11905 0,0.33672 0,0.50508 0,0.0842 0,-0.33672 0,-0.25254 0,1.65553 0,-0.89791 0,0.75762 0,0.0842 0,-0.33672 0,-0.25254 0,1.81887 0,2.32577 0,4.29315 0,0.0842 0,-0.33672 0,-0.25254 0,0.16836 0,0.33672 0,0.50507 0,0.0842 0,-0.33671 0,-0.25253 0,1.65552 0,-0.89792 0,0.75761 0,0.0842 -0.0842,-0.25254 0,-0.25254 0.16836,0 -0.11904,0.38603 0,0.50508 0.4209,0.4209 0.25254,-0.92597 0.25254,0.50507 0,0.0842 -0.0842,-0.25253 0,-0.25253 0.11905,0 0.25254,0.13349 0.25254,0.25253 0,0.18824 -0.25254,0.31685 -0.25254,0.50508 0,0.0842 0.19302,-0.0595 0.25254,0 0.1331,0.1331 0.25254,0.31685 0.25254,0.50508 0,0.0842 -0.21489,-0.0753 -0.25254,0 -0.0753,0.15058 0,0.33671 0,0.50507 0,0.0842 0,-0.33671 0,-0.25253 0,0.16835 0,0.33671 0,0.50507 0,0.0842 0,-0.33672 0,-0.25254 0,0.16836 0,0.33672 0,0.50508 0,0.0842 0,-0.33672 0,-0.25254 0,1.65553 0,-0.89791 0,0.75762 0,0.0842 0,-0.33672 0,-0.25254 0,0.16836 0,0.33672 0,0.50507 0,0.0842 0.0595,-0.31206 0,-0.25253 -0.1331,0.1331 -0.11944,0.37197 -0.25254,0.50507 -0.0595,0.0595 0.0595,-0.19301 0,-0.25254 -0.0595,-0.0595 -0.25254,0.0842 -0.25254,0 0,-0.0842 0.2149,-0.0753 0.25254,0 0.0753,0.15059 0,0.33672 0,0.50508 0,0.0842 0.0595,-0.19301 0,-0.25254 -0.15092,-0.15092 -0.50507,0.15392 -0.50507,0.25254 0,0.11905 0.13349,0.25254 0.25253,0.25254 0.0842,0 0,-0.33672 0,-0.25254 0,0.16836 0,0.33672 0,0.50508 0,0.0842 0.0595,-0.19302 0,-0.25254 -0.15092,-0.15093 -0.50507,0.15391 -0.50507,0.25254 0,0.0842 0.19301,-0.0595 0.25254,0 0.0595,0.0595 0.0595,0.19301 0,0.25254 -0.0595,0.0595 -0.2149,-0.0753 -0.25254,0 -0.0753,0.15058 0.11905,0.38602 0,0.50507 -0.0842,0.0842 -0.25254,-0.13349 -0.25254,-0.25254 0,-0.0842 0.19301,-0.0595 0.25254,0 0.0595,0.0595 0.0595,0.19302 0,0.25254 -0.0595,0.0595 -0.16836,0 -0.25254,0 -0.0842,0 -0.25254,0.0842 -0.25254,0 0,-0.0842 0.19302,-0.0595 0.25254,0 0.0595,0.0595 0.0595,0.19302 0,0.25254 -0.15092,0.15092 -0.50508,-0.27296 -0.50508,0.25254 0,0.0842 0.25254,-0.0842 0.25254,0 0,0.0842 -0.16836,0 -0.25254,0 -0.0842,0 -0.25253,0.0842 -0.25253,0 0,-0.0986 0.4732,-0.28442 0.25253,-0.50508 -0.0595,-0.0595 -0.19301,0.0595 -0.25253,0 -0.0595,-0.0595 -0.0842,-0.25254 0,-0.25254 0.22066,0 -0.25254,0.83757 -0.25254,0 0,-0.0842 0.19301,0.0595 0.25254,0 0.0595,-0.0595 0,-0.16836 0,-0.25253 0,-0.0842 0.0595,-0.19302 0,-0.25254 -0.1331,-0.1331 -0.4209,-0.0842 -0.50508,-0.25254 -0.0532,-0.10648 0.25254,-0.13349 0.25254,-0.25254 0,-0.16836 -0.50508,0.16836 -0.50508,0 0,-0.11905 0.25254,-0.13349 0.25254,-0.25254 0,-0.11905 -0.14606,-0.1993 -0.25254,-0.25254 -0.0753,-0.0376 -0.25254,0.0842 -0.25254,0 0,-0.0842 0.25254,0.0842 0.25254,0 0,-0.11904 -0.13349,-0.25253 -0.25254,-0.25253 -0.0842,0 0.0842,0.25253 0,0.25253 -0.11904,0 -0.25253,-0.13349 -0.25253,-0.25253 0,-0.0842 0.19301,0.0595 0.25253,0 0.0595,-0.0595 0.0595,-0.19302 0,-0.25254 -0.11904,-0.11905 -0.50507,0.16836 -0.50507,0 0,-0.0755 0.83756,0.16624 0,-0.25254 -0.0753,-0.0377 -0.25254,0.0842 -0.25254,0 0,-0.11905 0.25254,-0.13349 0.25254,-0.25254 0,-0.16836 -0.50508,0.16836 -0.50508,0 0,-0.11905 0.25254,-0.13349 0.25254,-0.25254 0,-0.16836 -0.50508,0.16836 -0.50508,0 0,-0.0842 0.25254,-0.0842 0.25254,0 0,0.0842 -0.19301,0.0595 -0.25254,0 -0.33671,-0.33671 0.4209,-0.25253 -0.25254,-0.25253 -0.15092,0 -0.50507,0.0595 -0.50507,-0.25254 0,-0.0842 0.33672,0 0.25254,0 -0.16836,0 -0.33672,0 -0.50508,0 -0.0842,0 0.25254,-0.0842 0.25254,0 0,0.0842 -0.16836,0 -0.25254,0 -0.0842,0 -0.25254,0.0842 -0.25254,0 0,-0.0842 0.25254,-0.0842 0.25254,0 0,0.0842 -0.19301,-0.0595 -0.25254,0 -0.0595,0.0595 0,0.16836 0,0.25254 0,0.60484 -0.046,0.18204 0.57769,1.13762 z"
       id="path7481"
       inkscape:connector-curvature="0" />
  </g>
</svg>
