<?xml version="1.0" encoding="UTF-8" standalone="no"?>
<!-- Created with Inkscape (http://www.inkscape.org/) -->

<svg
   xmlns:dc="http://purl.org/dc/elements/1.1/"
   xmlns:cc="http://creativecommons.org/ns#"
   xmlns:rdf="http://www.w3.org/1999/02/22-rdf-syntax-ns#"
   xmlns:svg="http://www.w3.org/2000/svg"
   xmlns="http://www.w3.org/2000/svg"
   xmlns:sodipodi="http://sodipodi.sourceforge.net/DTD/sodipodi-0.dtd"
   xmlns:inkscape="http://www.inkscape.org/namespaces/inkscape"
   width="200"
   height="369.03"
   id="svg2"
   version="1.1"
   inkscape:version="0.92.2 5c3e80d, 2017-08-06"
   sodipodi:docname="muscle-18.svg">
  <defs
     id="defs4" />
  <sodipodi:namedview
     id="base"
     pagecolor="#ffffff"
     bordercolor="#666666"
     borderopacity="1.0"
     inkscape:pageopacity="0"
     inkscape:pageshadow="2"
     inkscape:zoom="0.98994949"
     inkscape:cx="-102.77701"
     inkscape:cy="283.69895"
     inkscape:document-units="px"
     inkscape:current-layer="layer1"
     showgrid="false"
     fit-margin-top="0"
     fit-margin-left="0"
     fit-margin-right="0"
     fit-margin-bottom="0"
     inkscape:window-width="1440"
     inkscape:window-height="790"
     inkscape:window-x="0"
     inkscape:window-y="1"
     inkscape:window-maximized="1" />
  <metadata
     id="metadata7">
    <rdf:RDF>
      <cc:Work
         rdf:about="">
        <dc:format>image/svg+xml</dc:format>
        <dc:type
           rdf:resource="http://purl.org/dc/dcmitype/StillImage" />
        <dc:title></dc:title>
      </cc:Work>
    </rdf:RDF>
  </metadata>
  <g
     inkscape:label="Ebene 1"
     inkscape:groupmode="layer"
     id="layer1"
     transform="translate(-54.28571,-335.71492)">
    <path
       style="fill:#f57900;stroke:none;stroke-width:1px;stroke-linecap:butt;stroke-linejoin:miter;stroke-opacity:1;fill-opacity:1;opacity:0.539"
       d="m 209.10714,436.7092 c -0.29762,-0.0595 -0.59524,-0.11904 -0.89286,-0.17857 0,-0.0595 0.0495,-0.14555 0,-0.17857 -0.15662,-0.10441 -0.40261,-0.0455 -0.53571,-0.17857 -0.0595,-0.0595 0.23809,-0.11905 0.17857,-0.17857 -0.1331,-0.1331 -0.36736,-0.0944 -0.53572,-0.17857 -0.0753,-0.0376 -0.10327,-0.14093 -0.17857,-0.17857 -0.0532,-0.0266 -0.13648,0.0421 -0.17857,0 -0.0421,-0.0421 0.0421,-0.13649 0,-0.17858 -0.20519,-0.20519 -0.31581,-0.17857 -0.53571,-0.17857 -0.0595,0 -0.17857,0.0595 -0.17857,0 0,-0.0733 0.92872,0.19053 -0.17858,-0.17857 -0.32985,-0.10995 -0.0847,0.27248 -0.53571,-0.17857 -0.0421,-0.0421 0.0421,-0.13648 0,-0.17857 -0.36947,-0.36947 0.0144,0.5646 -0.35714,-0.17857 -0.0266,-0.0532 0.0532,-0.15195 0,-0.17857 -0.10648,-0.0532 -0.24421,0.0376 -0.35715,0 -0.0798,-0.0266 -0.10327,-0.14093 -0.17857,-0.17858 -0.0532,-0.0266 -0.12533,0.0266 -0.17857,0 -0.0753,-0.0376 -0.10328,-0.14092 -0.17857,-0.17857 -0.0532,-0.0266 -0.12533,0.0266 -0.17857,0 -0.0753,-0.0376 -0.10328,-0.14092 -0.17857,-0.17857 -0.0532,-0.0266 -0.12533,0.0266 -0.17857,0 -0.0753,-0.0376 -0.10328,-0.14092 -0.17858,-0.17857 -0.43981,-0.21991 0.16121,0.51834 -0.53571,-0.17857 -0.0421,-0.0421 0.0421,-0.13648 0,-0.17857 -0.0421,-0.0421 -0.13648,0.0421 -0.17857,0 -0.0421,-0.0421 0.0532,-0.15195 0,-0.17858 -0.10648,-0.0532 -0.24421,0.0377 -0.35714,0 -0.15324,-0.0511 -0.3298,-0.45367 -0.35715,-0.53571 -0.0188,-0.0565 0.0421,-0.13648 0,-0.17857 -0.0941,-0.0941 -0.24639,-0.10474 -0.35714,-0.17857 -0.0595,-0.0595 -0.11905,-0.11905 -0.17857,-0.17857 0.0595,0 0.22066,0.0421 0.17857,0 -0.0941,-0.0941 -0.26303,-0.0845 -0.35714,-0.17858 -0.0421,-0.0421 0.22066,0.0421 0.17857,0 -0.0941,-0.0941 -0.26303,-0.0845 -0.35714,-0.17857 -0.0421,-0.0421 0.17857,-0.0595 0.17857,0 0,0.0595 -0.15195,0.0532 -0.17857,0 -0.0532,-0.10648 0.0842,-0.27296 0,-0.35714 -0.0595,-0.0595 -0.17858,0.0944 -0.17858,0.17857 0,0.0595 0.2381,0 0.17858,0 -0.28291,0 -0.6422,0.10648 -0.17858,-0.35714 0.0421,-0.0421 0.0595,0.17857 0,0.17857 -0.13309,0 -0.26302,-0.0845 -0.35714,-0.17857 -0.0421,-0.0421 0.2381,0 0.17857,0 -0.11904,0 -0.3039,0.10648 -0.35714,0 -0.35714,-0.71429 0.89286,-0.17857 -0.17857,-0.17857 -0.0842,0 0.23809,-0.11905 0.17857,-0.17857 -0.0842,-0.0842 -0.25809,0.066 -0.35714,0 -0.11075,-0.0738 -0.0595,-0.29762 -0.17857,-0.35715 -0.40646,0.40646 -0.0472,0.13138 -0.17858,0 -0.0842,-0.0842 -0.35714,0.11905 -0.35714,0 0,-0.1331 0.27269,-0.26302 0.17857,-0.35714 -0.0941,-0.0941 -0.22404,0.17857 -0.35714,0.17857 -0.0842,0 0.2381,-0.11905 0.17857,-0.17857 -0.0842,-0.0842 -0.25809,0.066 -0.35714,0 -0.11075,-0.0738 -0.0845,-0.26303 -0.17857,-0.35714 -0.0421,-0.0421 -0.12533,0.0266 -0.17857,0 -0.0753,-0.0376 -0.10328,-0.14093 -0.17858,-0.17857 -0.0532,-0.0266 -0.13648,0.0421 -0.17857,0 -0.0842,-0.0842 0.10648,-0.30391 0,-0.35715 -0.10648,-0.0532 -0.3039,0.10648 -0.35714,0 -0.0595,-0.11904 0.2381,-0.23809 0.17857,-0.35714 -0.18439,-0.36878 -0.53571,0.32613 -0.53571,0 0,-0.83756 0.63433,0.63434 -0.17857,-0.17857 -0.26275,-0.26275 1.00592,-0.17857 -0.17858,-0.17857 -0.0595,0 0.17858,0.0595 0.17858,0 0,-0.1331 -0.0845,-0.26303 -0.17858,-0.35714 -0.0421,-0.0421 0.0421,0.22066 0,0.17857 -0.0941,-0.0941 -0.17857,-0.22405 -0.17857,-0.35715 0,-0.0595 0.2381,0 0.17857,0 -0.23809,0 -0.47619,0 -0.71428,0 -0.0595,0 -0.13648,0.0421 -0.17857,0 -0.21991,-0.2199 0.54496,-0.35714 -0.35715,-0.35714 -0.29039,0 -0.0451,0.3346 -0.35714,0.17857 -0.0992,-0.0496 -0.29956,-0.35714 -0.35714,-0.35714 -0.0842,0 -0.11905,0.11905 -0.17857,0.17857 -0.0595,-0.0595 -0.0987,-0.15195 -0.17857,-0.17857 -0.11294,-0.0377 -0.24421,0.0376 -0.35715,0 -0.0799,-0.0266 -0.10328,-0.14093 -0.17857,-0.17857 -0.0532,-0.0266 -0.11905,0 -0.17857,0 -0.11905,-0.0595 -0.2464,-0.10474 -0.35714,-0.17857 -0.07,-0.0467 -0.0987,-0.15195 -0.17857,-0.17857 -8.1e-4,-2.7e-4 -0.53555,1.7e-4 -0.53572,0 -0.0941,-0.0941 -0.0595,-0.29762 -0.17857,-0.35715 -0.0753,-0.0376 -0.17857,0.26275 -0.17857,0.17857 0,-0.13309 0.27269,-0.26302 0.17857,-0.35714 -0.0941,-0.0941 -0.23087,0.22066 -0.35714,0.17857 -0.12627,-0.0421 -0.0678,-0.28331 -0.17857,-0.35714 -0.0991,-0.066 -0.24421,0.0376 -0.35715,0 -0.0799,-0.0266 -0.10328,-0.14093 -0.17857,-0.17857 -0.0532,-0.0266 -0.12533,0.0266 -0.17857,0 -0.0753,-0.0376 -0.10328,-0.14093 -0.17857,-0.17857 -0.0532,-0.0266 -0.15195,0.0532 -0.17857,0 -0.0532,-0.10648 0,-0.2381 0,-0.35715 0,-0.0595 0.0532,0.2052 0,0.17858 -0.15059,-0.0753 -0.19743,-0.30391 -0.35715,-0.35715 -0.0798,-0.0266 -0.10327,0.14093 -0.17857,0.17857 -0.0532,0.0266 -0.17857,0.0595 -0.17857,0 0,-0.13309 0.27269,-0.26302 0.17857,-0.35714 -0.0941,-0.0941 -0.23087,0.22066 -0.35714,0.17857 -0.12627,-0.0421 -0.0845,-0.26302 -0.17857,-0.35714 -0.0421,-0.0421 0.0595,0.17857 0,0.17857 -0.0842,0 -0.10328,-0.14092 -0.17857,-0.17857 -0.0532,-0.0266 -0.15195,0.0532 -0.17857,0 -0.0532,-0.10648 0.0842,-0.27296 0,-0.35714 -0.0595,-0.0595 -0.11905,0.23809 -0.17858,0.17857 -0.0842,-0.0842 0.0842,-0.27296 0,-0.35714 -0.0595,-0.0595 -0.11904,0.23809 -0.17857,0.17857 -0.0842,-0.0842 0,-0.2381 0,-0.35715 0,-0.0595 0.0421,0.13649 0,0.17858 -0.0421,0.0421 -0.17857,0.0595 -0.17857,0 0,-0.1331 0.17857,-0.22405 0.17857,-0.35715 0,-0.0842 -0.10328,0.21622 -0.17857,0.17857 -0.11905,-0.0595 -0.17857,-0.22404 -0.17857,-0.35714 0,-0.0842 0.17857,0.0944 0.17857,0.17857 0,0.0595 -0.13648,0.0421 -0.17857,0 -0.0941,-0.0941 -0.0845,-0.26303 -0.17857,-0.35714 -0.0421,-0.0421 0.0421,0.22066 0,0.17857 -0.0941,-0.0941 -0.17857,-0.22404 -0.17857,-0.35714 0,-0.0842 0.17857,0.0944 0.17857,0.17857 0,0.0595 -0.13648,0.0421 -0.17857,0 -0.0941,-0.0941 -0.0845,-0.26303 -0.17857,-0.35714 -0.0421,-0.0421 0.0421,0.22066 0,0.17857 -0.0941,-0.0941 -0.0845,-0.26303 -0.17858,-0.35714 -0.0421,-0.0421 0,0.23809 0,0.17857 0,-0.11905 0.0842,-0.27297 0,-0.35715 -0.0595,-0.0595 -0.0944,0.17858 -0.17857,0.17858 -0.0595,0 0,-0.11905 0,-0.17858 0,-0.0595 -0.0595,-0.17857 0,-0.17857 0.0595,0 0.0421,0.13648 0,0.17857 -0.0421,0.0421 -0.13648,0.0421 -0.17857,0 -0.0421,-0.0421 0,-0.11904 0,-0.17857 0,-0.0595 -0.0595,-0.17857 0,-0.17857 0.0595,0 0.0421,0.13648 0,0.17857 -0.0421,0.0421 -0.13648,0.0421 -0.17857,0 -0.10672,-0.10672 0.19301,-0.35714 -0.17857,-0.35714 -0.0595,0 0,0.2381 0,0.17857 0,-0.11905 0,-0.23809 0,-0.35714 0,-0.0595 0.0421,0.13648 0,0.17857 -0.0421,0.0421 -0.13648,0.0421 -0.17857,0 -0.0842,-0.0842 0.11905,-0.35714 0,-0.35714 -0.0842,0 -0.0944,0.17857 -0.17857,0.17857 -0.0595,0 0.0266,-0.12533 0,-0.17857 -0.0377,-0.0753 -0.0944,-0.17857 -0.17858,-0.17857 -0.0595,0 0.0421,0.13648 0,0.17857 -0.0421,0.0421 -0.15195,0.0532 -0.17857,0 -0.0532,-0.10648 0.0842,-0.27297 0,-0.35715 -0.0595,-0.0595 -0.0944,0.17858 -0.17857,0.17858 -0.0595,0 0.0266,-0.12534 0,-0.17858 -0.0376,-0.0753 -0.0944,-0.17857 -0.17857,-0.17857 -0.0595,0 0.0421,0.22066 0,0.17857 -0.0941,-0.0941 -0.13648,-0.23087 -0.17857,-0.35714 -0.0188,-0.0565 0.0595,-0.17857 0,-0.17857 -0.0842,0 -0.10328,0.21622 -0.17857,0.17857 -0.11905,-0.0595 -0.10474,-0.2464 -0.17857,-0.35714 -0.0467,-0.07 -0.11905,-0.11905 -0.17858,-0.17857 -0.0595,-0.0595 -0.11904,-0.11905 -0.17857,-0.17857 -0.0595,-0.0595 -0.0987,-0.15196 -0.17857,-0.17858 -0.11294,-0.0376 -0.27296,0.0842 -0.35714,0 -0.0842,-0.0842 0,-0.23809 0,-0.35714 0,-0.0595 0.0595,-0.17857 0,-0.17857 -0.0842,0 -0.0944,0.17857 -0.17857,0.17857 -0.11905,0 0.0842,-0.27296 0,-0.35714 -0.0421,-0.0421 -0.12533,0.0266 -0.17857,0 -0.0753,-0.0376 -0.0944,-0.17857 -0.17858,-0.17857 -0.0842,0 -0.10327,0.21621 -0.17857,0.17857 -0.98345,-0.49173 0.16948,-0.18767 -0.17857,-0.53572 -0.0941,-0.0941 -0.22404,-0.17857 -0.35714,-0.17857 -0.0595,0 0.0421,0.22066 0,0.17857 -10e-4,-0.001 -0.2204,-0.53571 -0.35714,-0.53571 -0.0595,0 0.0421,0.22066 0,0.17857 -0.0941,-0.0941 -0.0595,-0.29762 -0.17858,-0.35714 -0.0753,-0.0376 -0.11904,0.23809 -0.17857,0.17857 -0.51106,-0.51106 0.44556,-0.22365 -0.17857,-0.53571 -0.10648,-0.0532 -0.27296,0.0842 -0.35714,0 -0.0941,-0.0941 -0.0595,-0.29762 -0.17857,-0.35715 -0.0753,-0.0376 -0.10328,0.21622 -0.17857,0.17857 -0.003,-0.001 -0.21959,-0.53571 -0.35715,-0.53571 -0.0842,0 -0.11904,0.2381 -0.17857,0.17857 -0.0842,-0.0842 0.0532,-0.25066 0,-0.35714 -0.0532,-0.10648 -0.3039,0.10648 -0.35714,0 0,-1.1845 0.0842,0.0842 -0.17857,-0.17857 -0.0842,-0.0842 0.0842,-0.27297 0,-0.35715 -0.0595,-0.0595 -0.0944,0.17858 -0.17857,0.17858 -0.0595,0 0,-0.11905 0,-0.17858 0,-0.0595 -0.0595,-0.17857 0,-0.17857 0.0595,0 0.0421,0.22066 0,0.17857 -0.0941,-0.0941 -0.0845,-0.26302 -0.17858,-0.35714 -0.0421,-0.0421 0.0532,0.20519 0,0.17857 -0.15058,-0.0753 -0.23809,-0.23809 -0.35714,-0.35714 -0.0595,-0.0595 0.11905,0.2381 0.17857,0.17857 0.0842,-0.0842 0.0842,-0.27296 0,-0.35714 -0.0595,-0.0595 -0.11904,0.23809 -0.17857,0.17857 -0.0842,-0.0842 0.066,-0.25809 0,-0.35714 -0.0738,-0.11075 -0.29762,-0.0595 -0.35714,-0.17857 -0.0377,-0.0753 0.0944,-0.17858 0.17857,-0.17858 0.0595,0 0.0421,0.22067 0,0.17858 -0.0941,-0.0941 -0.0845,-0.26303 -0.17857,-0.35715 -0.0421,-0.0421 0,0.2381 0,0.17857 0,-0.11904 0,-0.23809 0,-0.35714 0,-0.0595 0.0595,0.17857 0,0.17857 -0.0595,0 0.0421,-0.13648 0,-0.17857 -0.0941,-0.0941 -0.29762,-0.0595 -0.35714,-0.17857 -0.0376,-0.0753 0.0944,-0.17857 0.17857,-0.17857 0.0595,0 0,0.23809 0,0.17857 0,-0.11905 0.0842,-0.27296 0,-0.35714 -0.0595,-0.0595 -0.10328,0.21621 -0.17857,0.17857 -0.11905,-0.0595 -0.17858,-0.22404 -0.17858,-0.35714 0,-0.0842 0.0944,0.17857 0.17858,0.17857 0.11904,0 -0.11905,-0.35715 0,-0.35715 0.0595,0 0.0595,0.17858 0,0.17858 -0.0842,0 -0.14093,-0.10328 -0.17858,-0.17858 -0.0266,-0.0532 0.0595,-0.17857 0,-0.17857 -0.0842,0 -0.11904,0.2381 -0.17857,0.17857 -0.0595,-0.0595 0.14093,-0.10327 0.17857,-0.17857 0.0266,-0.0532 0,-0.11904 0,-0.17857 0,-0.0595 0.0595,-0.17857 0,-0.17857 -0.0842,0 -0.0944,0.17857 -0.17857,0.17857 -0.0595,0 0,-0.11905 0,-0.17857 0,-0.0595 -0.0595,-0.17857 0,-0.17857 0.0595,0 0,0.23809 0,0.17857 0,-1.15079 0,0.31746 0,-0.35714 0,-0.0595 0,-0.11905 0,-0.17857 0,-0.0595 -0.0595,-0.17858 0,-0.17858 0.0595,0 0.0595,0.17858 0,0.17858 -0.0595,0 0,-0.11905 0,-0.17858 0,-0.0595 0,-0.11904 0,-0.17857 0,-0.0595 -0.0595,-0.17857 0,-0.17857 0.0595,0 0,0.2381 0,0.17857 0,-0.11904 0,-0.23809 0,-0.35714 0,-0.0595 -0.0188,-0.1221 0,-0.17857 0.0421,-0.12627 0.13648,-0.23088 0.17857,-0.35714 0.0188,-0.0565 -0.0266,-0.12534 0,-0.17858 0.0376,-0.0753 0.14093,-0.10327 0.17858,-0.17857 0.0266,-0.0532 -0.0421,-0.13648 0,-0.17857 0.0421,-0.0421 0.17857,0.0595 0.17857,0 0,-0.0842 -0.2381,-0.11905 -0.17857,-0.17857 0.0595,-0.0595 0.0944,0.17857 0.17857,0.17857 0.0595,0 -0.0421,-0.13648 0,-0.17857 0.0421,-0.0421 0.17857,0.0595 0.17857,0 0,-0.0842 -0.0944,-0.17857 -0.17857,-0.17857 -0.0595,0 0.0595,0.17857 0,0.17857 -0.0595,0 -0.0421,-0.13648 0,-0.17857 0.10672,-0.10672 0.35714,0.19301 0.35714,-0.17857 0,-0.0595 -0.17857,0.0595 -0.17857,0 0,-0.29613 0.25042,-0.12521 0.35714,-0.17857 0.0753,-0.0377 0.17857,-0.0944 0.17857,-0.17858 0,-0.0595 -0.23809,0 -0.17857,0 0.11905,0 0.25809,0.066 0.35714,0 0.002,-0.001 0.21999,-0.53571 0.35715,-0.53571 0.0842,0 0.23809,0.11905 0.17857,0.17857 -0.0595,0.0595 -0.17857,-0.0944 -0.17857,-0.17857 0,-0.1331 0.35714,-0.31167 0.35714,-0.17857 0,0.0595 -0.23809,0 -0.17857,0 0.11905,0 0.27296,0.0842 0.35714,0 0.0595,-0.0595 -0.0944,-0.17857 -0.17857,-0.17857 -0.0595,0 -0.0421,0.13648 0,0.17857 0.0421,0.0421 0.12533,0.0266 0.17857,0 0.59225,-0.29612 0,-0.12521 0,-0.17857 0,-0.11905 0.35714,0.11904 0.35714,0 0,-0.0842 -0.23809,-0.11905 -0.17857,-0.17857 0.0595,-0.0595 0.0944,0.17857 0.17857,0.17857 0.0842,0 0.17858,-0.0944 0.17858,-0.17857 0,-0.0595 -0.2381,0 -0.17858,0 0.11905,0 0.2381,0 0.35715,0 0.0595,0 -0.17857,0.0595 -0.17857,0 0,-0.1331 0.35714,-0.31167 0.35714,-0.17858 0,0.0595 -0.2381,0 -0.17857,0 0.11905,0 0.23809,0 0.35714,0 0.0595,0 -0.22066,0.0421 -0.17857,0 0.0941,-0.0941 0.26303,-0.0845 0.35714,-0.17857 0.0421,-0.0421 -0.23809,0 -0.17857,0 0.11905,0 0.2381,0 0.35714,0 0.0595,0 -0.17857,0.0595 -0.17857,0 0,-0.0842 0.0944,-0.17857 0.17857,-0.17857 0.0595,0 -0.0595,0.17857 0,0.17857 0.0842,0 0.17857,-0.0944 0.17857,-0.17857 0,-0.0595 -0.17857,0.0595 -0.17857,0 0,-0.0595 0.11905,0 0.17857,0 0.0595,0 0.17858,-0.0595 0.17858,0 0,0.0595 -0.2381,0 -0.17858,0 0.29762,0 0.59524,0 0.89286,0 0.0595,0 -0.23809,0 -0.17857,0 0.11905,0 0.2442,0.0376 0.35714,0 0.0799,-0.0266 0.11905,-0.23809 0.17857,-0.17857 0.0595,0.0595 -0.23809,0.11905 -0.17857,0.17857 0.0842,0.0842 0.2381,0 0.35715,0 0.0595,0 0.11904,0 0.17857,0 0.0595,0 0.17857,0.0595 0.17857,0 0,-0.0842 -0.2381,-0.11905 -0.17857,-0.17857 0.0842,-0.0842 0.23809,0 0.35714,0 0.0595,0 -0.23809,0 -0.17857,0 0.11905,0 0.23809,0 0.35714,0 0.0595,0 0.11905,0 0.17857,0 0.0595,0 0.17857,-0.0595 0.17857,0 0,0.0595 -0.17857,0.0595 -0.17857,0 0,-0.0595 0.11905,0 0.17857,0 0.59524,0 -0.41666,0 0.17858,0 0.0595,0 0.11904,0 0.17857,0 0.0595,0 0.17857,-0.0595 0.17857,0 0,0.0595 -0.17857,0.0595 -0.17857,0 0,-0.0595 0.11905,0 0.17857,0 0.0595,0 0.17857,-0.0595 0.17857,0 0,0.0595 -0.23809,0 -0.17857,0 1.15079,0 -0.31746,0 0.35714,0 0.66051,0 0.56036,0 1.42857,0 0.0595,0 0.11905,0 0.17857,0 0.0595,0 0.12534,0.0266 0.17858,0 0.0753,-0.0377 0.10328,-0.14093 0.17857,-0.17857 0.0532,-0.0266 0.17857,-0.0595 0.17857,0 0,0.0595 -0.2381,0 -0.17857,0 0.17857,0 0.35714,0 0.53571,0 0.0595,0 0.17857,-0.0595 0.17857,0 0,0.0595 -0.17857,0.0595 -0.17857,0 0,-0.0595 0.11905,0 0.17857,0 0.0595,0 0.11905,0 0.17857,0 0.0595,0 0.17858,-0.0595 0.17858,0 0,0.0595 -0.17858,0.0595 -0.17858,0 0,-0.0595 0.11905,0 0.17858,0 0.0595,0 0.11904,0 0.17857,0 0.0595,0 0.17857,-0.0595 0.17857,0 0,0.0595 -0.2381,0 -0.17857,0 0.0583,0 0.8545,-0.0383 0.89285,0 0.0595,0.0595 -0.17857,0.0944 -0.17857,0.17857 0,0.0595 0.11905,0 0.17857,0 0.0595,0 0.11905,0 0.17858,0 0.0595,0 0.17857,-0.0595 0.17857,0 0,0.0842 -0.17857,0.0944 -0.17857,0.17857 0,0.11905 0.35714,-0.11905 0.35714,0 0,0.0595 -0.17857,0.0595 -0.17857,0 0,-0.0595 0.11905,0 0.17857,0 0.11905,0 0.23809,0 0.35714,0 0.47619,0 0.95238,0 1.42857,0 0.0595,0 -0.23809,0 -0.17857,0 0.11905,0 0.2381,0 0.35714,0 0.0595,0 -0.23809,0 -0.17857,0 1.17064,0 -0.63492,0 0.53572,0 0.0595,0 -0.2381,0 -0.17857,0 0.11904,0 0.27296,-0.0842 0.35714,0 0.0595,0.0595 -0.2381,0.11905 -0.17857,0.17857 0.0426,0.0426 0.5989,0 0.71428,0 0.0595,0 0.17857,-0.0595 0.17857,0 0,0.0842 -0.23809,0.11905 -0.17857,0.17857 0.0842,0.0842 0.2381,0 0.35715,0 0.0595,0 -0.2381,0 -0.17858,0 1.17064,0 -0.63492,0 0.53572,0 0.0595,0 -0.17857,0.0595 -0.17857,0 0,-0.0595 0.11905,0 0.17857,0 0.0595,0 0.17857,-0.0595 0.17857,0 0,0.0595 -0.22066,-0.0421 -0.17857,0 0.0941,0.0941 0.22802,0.14629 0.35714,0.17858 0.11549,0.0289 0.27297,-0.0842 0.35714,0 0.0595,0.0595 -0.26275,0.17857 -0.17857,0.17857 0.1331,0 0.26303,-0.0845 0.35715,-0.17857 0.0421,-0.0421 -0.2381,0 -0.17858,0 0.11905,0 0.2381,0 0.35715,0 0.0595,0 -0.17857,0.0595 -0.17857,0 0,-0.0595 0.11904,0 0.17857,0 0.0595,0 0.17857,-0.0595 0.17857,0 0,0.0595 -0.17857,0.0595 -0.17857,0 0,-0.0595 0.11905,0 0.17857,0 0.0595,0 0.17857,-0.0595 0.17857,0 0,0.0595 -0.23809,0 -0.17857,0 0.11905,0 0.23809,0 0.35714,0 0.0595,0 -0.22066,-0.0421 -0.17857,0 0.0941,0.0941 0.26303,0.0845 0.35714,0.17857 0.0421,0.0421 -0.23809,0 -0.17857,0 0.11905,0 0.2381,0 0.35714,0 0.0595,0 -0.17857,0.0595 -0.17857,0 0,-0.0595 0.11905,0 0.17857,0 0.0595,0 0.17858,-0.0595 0.17858,0 0,0.0595 -0.17858,0.0595 -0.17858,0 0,-0.0595 0.11905,0 0.17858,0 0.0595,0 0.17857,-0.0595 0.17857,0 0,0.0842 -0.2381,0.11904 -0.17857,0.17857 0.0842,0.0842 0.23809,0 0.35714,0 0.0595,0 -0.2381,0 -0.17857,0 1.01036,0 -0.52816,-0.17479 0.53571,0.35714 0.0532,0.0266 -0.0595,-0.17857 0,-0.17857 0.1331,0 0.23088,0.13648 0.35714,0.17857 0.11294,0.0376 0.25067,-0.0532 0.35715,0 0.59224,0.59225 -0.16836,-0.0842 0.35714,0.17857 0.0753,0.0377 0.10328,0.14093 0.17857,0.17857 0.0532,0.0266 0.12533,-0.0266 0.17857,0 0.13641,0.0682 0.4148,0.49541 0.53572,0.53572 0.11294,0.0377 0.2442,-0.0376 0.35714,0 0.15972,0.0532 0.20656,0.28185 0.35714,0.35714 0.0532,0.0266 0.12211,-0.0188 0.17857,0 0.12627,0.0421 0.23088,0.13648 0.35715,0.17857 0.23283,0.0776 0.48641,0.0874 0.71428,0.17857 0.0782,0.0313 0.0969,0.15816 0.17857,0.17858 0.17324,0.0433 0.36631,-0.0565 0.53572,0 0.0565,0.0188 -0.0421,0.13648 0,0.17857 0.0421,0.0421 0.17857,-0.0595 0.17857,0 0,0.0842 -0.23809,0.11904 -0.17857,0.17857 0.0842,0.0842 0.27296,-0.0842 0.35714,0 0.0595,0.0595 -0.23809,0.11905 -0.17857,0.17857 0.0842,0.0842 0.25066,-0.0532 0.35714,0 0.0532,0.0266 -0.0266,0.12533 0,0.17857 0.37159,0.74317 -0.0123,-0.1909 0.35715,0.17857 0.0842,0.0842 -0.10648,0.30391 0,0.35715 1.09608,0.0842 0.13648,-0.0421 0.17857,0 0.0941,0.0941 0.26302,0.0845 0.35714,0.17857 0.0421,0.0421 -0.13648,-0.0421 -0.17857,0 -0.0421,0.0421 -0.0421,0.13648 0,0.17857 0.0421,0.0421 0.13648,-0.0421 0.17857,0 0.0421,0.0421 -0.0421,0.13648 0,0.17857 0.0941,0.0941 0.26303,0.0845 0.35714,0.17857 0.0421,0.0421 -0.17857,-0.0595 -0.17857,0 0,0.0842 0.14093,0.10328 0.17857,0.17857 0.0266,0.0532 -0.0421,0.13648 0,0.17857 0.0941,0.0941 0.26303,0.0845 0.35715,0.17858 0.0421,0.0421 -0.17858,-0.0595 -0.17858,0 0,0.0842 0.14093,0.10327 0.17858,0.17857 0.0266,0.0532 -0.0421,0.13648 0,0.17857 0.0941,0.0941 0.29762,0.0595 0.35714,0.17857 0.0377,0.0753 -0.21622,0.10328 -0.17857,0.17857 0.0595,0.11905 0.29762,0.0595 0.35714,0.17857 0.0377,0.0753 -0.23809,0.11905 -0.17857,0.17857 0.0842,0.0842 0.27296,-0.0842 0.35714,0 0.0595,0.0595 -0.21622,0.10328 -0.17857,0.17858 0.0595,0.11904 0.26303,0.0845 0.35714,0.17857 0.0421,0.0421 -0.13648,-0.0421 -0.17857,0 -0.0421,0.0421 -0.0532,0.15195 0,0.17857 0.10648,0.0532 0.27297,-0.0842 0.35714,0 0.0595,0.0595 -0.17857,0.0944 -0.17857,0.17857 0,0.0595 0.13648,-0.0421 0.17857,0 0.0421,0.0421 -0.0421,0.13648 0,0.17857 0.0421,0.0421 0.17858,-0.0595 0.17858,0 0,0.2381 -0.41667,-0.29762 -0.17858,0.17857 0.0377,0.0753 0.10328,0.14093 0.17858,0.17857 0.0532,0.0266 0.17857,-0.0595 0.17857,0 0,0.0842 -0.17857,0.0944 -0.17857,0.17858 0,0.0842 0.10328,0.14092 0.17857,0.17857 0.0532,0.0266 0.17857,-0.0595 0.17857,0 0,0.0595 -0.13648,-0.0421 -0.17857,0 -0.0421,0.0421 0,0.11904 0,0.17857 0,0.0595 -0.0595,0.17857 0,0.17857 0.0842,0 0.0944,-0.17857 0.17857,-0.17857 0.0842,0 0.17857,0.0944 0.17857,0.17857 0,0.0595 -0.13648,-0.0421 -0.17857,0 -0.0421,0.0421 0,0.11905 0,0.17857 0,0.11905 0,0.2381 0,0.35714 0,0.0595 -0.0421,0.13649 0,0.17858 0.0941,0.0941 0.29762,0.0595 0.35714,0.17857 0.36014,0.72027 -0.58925,-0.25889 -0.17857,0.35714 0.0934,0.14008 0.3039,0.19742 0.35714,0.35714 0.0266,0.0799 -0.21621,0.10328 -0.17857,0.17857 0.0595,0.11905 0.29762,0.0595 0.35714,0.17858 0.0377,0.0753 -0.21621,0.10327 -0.17857,0.17857 0.0595,0.11904 0.31506,0.0523 0.35715,0.17857 0.0421,0.12627 -0.22067,0.23087 -0.17858,0.35714 0.0421,0.12627 0.29762,0.0595 0.35715,0.17857 0.0376,0.0753 -0.21622,0.10328 -0.17857,0.17857 0.0595,0.11905 0.29762,0.0595 0.35714,0.17858 0.0697,0.13947 -0.38391,0.1518 -0.17857,0.35714 0.0941,0.0941 0.29762,0.0595 0.35714,0.17857 0.0377,0.0753 -0.11905,0.11905 -0.17857,0.17857 0.11905,0.0595 0.26303,0.0845 0.35714,0.17857 0.0421,0.0421 -0.13648,-0.0421 -0.17857,0 -0.0421,0.0421 -0.0421,0.13648 0,0.17857 0.0941,0.0941 0.29762,0.0595 0.35714,0.17858 0.0697,0.13947 -0.38391,0.1518 -0.17857,0.35714 0.10672,0.10672 0.35714,-0.19302 0.35714,0.17857 0,0.0842 -0.21621,0.10328 -0.17857,0.17857 0.0595,0.11905 0.29762,0.0595 0.35715,0.17857 0.0376,0.0753 -0.21622,0.10328 -0.17858,0.17857 0.0595,0.11905 0.29762,0.0595 0.35715,0.17858 0.0697,0.13947 -0.38392,0.1518 -0.17857,0.35714 0.0941,0.0941 0.29762,0.0595 0.35714,0.17857 0.0377,0.0753 -0.14093,0.10328 -0.17857,0.17857 -0.0266,0.0532 -0.0595,0.17857 0,0.17857 0.1331,0 0.26302,-0.27268 0.35714,-0.17857 0.0941,0.0941 -0.13648,0.23088 -0.17857,0.35714 -0.0188,0.0565 -0.0595,0.17858 0,0.17858 0.0842,0 0.11905,-0.2381 0.17857,-0.17858 0.0842,0.0842 -0.0532,0.25067 0,0.35715 0.0266,0.0532 0.17857,-0.0595 0.17857,0 0,0.0842 -0.0944,0.17857 -0.17857,0.17857 -0.0595,0 -0.0595,-0.17857 0,-0.17857 0.0595,0 0,0.11904 0,0.17857 0,0.0595 0.0595,0.17857 0,0.17857 -0.0595,0 -0.0595,-0.17857 0,-0.17857 0.0842,0 0.10328,0.14092 0.17857,0.17857 0.0532,0.0266 0.17857,-0.0595 0.17857,0 0,0.0842 -0.17857,0.0944 -0.17857,0.17857 0,0.0842 0.15816,0.0969 0.17857,0.17857 0.0433,0.17324 0,0.35715 0,0.53572 0,0.41666 0,0.83333 0,1.25 0,0.11904 -0.0532,0.25066 0,0.35714 0.0266,0.0532 0.17857,-0.0595 0.17857,0 0,0.14733 -0.38591,0.50695 -0.17857,0.71429 0.0842,0.0842 0.30391,-0.10648 0.35715,0 0.0595,0.11904 -0.13649,0.23087 -0.17858,0.35714 -0.11739,0.35218 0.20926,0.0614 0.35715,0.35714 0.0697,0.13947 -0.38392,0.1518 -0.17857,0.35714 0.0941,0.0941 0.26302,0.0845 0.35714,0.17858 0.0421,0.0421 -0.13648,-0.0421 -0.17857,0 -0.0421,0.0421 0,0.11904 0,0.17857 0,0.11904 -0.066,0.25809 0,0.35714 0.0738,0.11075 0.29762,0.0595 0.35714,0.17857 0.0697,0.13947 -0.38391,0.1518 -0.17857,0.35714 0.0941,0.0941 0.26303,0.0845 0.35714,0.17858 0.0421,0.0421 -0.13648,-0.0421 -0.17857,0 -0.0421,0.0421 -0.0266,0.12533 0,0.17857 0.0377,0.0753 0.10328,0.14092 0.17857,0.17857 0.0532,0.0266 0.17857,-0.0595 0.17857,0 0,0.0842 -0.0944,0.17857 -0.17857,0.17857 -0.0595,0 0,-0.2381 0,-0.17857 0,0.11905 0,0.23809 0,0.35714 0,0.0595 0.0595,0.17857 0,0.17857 -0.0595,0 -0.0421,-0.22066 0,-0.17857 0.0941,0.0941 0.0595,0.29762 0.17857,0.35714 0.0753,0.0376 0.17857,-0.26275 0.17857,-0.17857 0,0.1331 -0.0845,0.26303 -0.17857,0.35715 -0.0421,0.0421 0,-0.2381 0,-0.17858 0,0.11905 0,0.2381 0,0.35715 0,0.0595 0,0.11904 0,0.17857 0,0.0595 -0.0595,0.17857 0,0.17857 0.83757,0 -0.63433,-0.63434 0.17857,0.17857 0.0595,0.0595 0.17858,-0.26275 0.17858,-0.17857 0,0.1331 -0.13649,0.23087 -0.17858,0.35714 -0.0114,0.0343 0.009,0.53572 0,0.53572 -0.0595,0 0,-0.2381 0,-0.17857 0,0.11904 0,0.23809 0,0.35714 0,0.0595 -0.0595,-0.17857 0,-0.17857 0.0595,0 0,0.11904 0,0.17857 0,0.0595 0.0595,0.17857 0,0.17857 -0.0595,0 0,-0.2381 0,-0.17857 0,0.11905 0,0.23809 0,0.35714 0,0.0595 0,-0.23809 0,-0.17857 0,0.17857 0,0.35714 0,0.53571 0,0.0595 0.0595,0.17858 0,0.17858 -0.0595,0 0,-0.2381 0,-0.17858 0,0.11905 0,0.2381 0,0.35715 0,0.0595 0.0595,0.17857 0,0.17857 -0.0595,0 0,-0.2381 0,-0.17857 0,0.11904 0,0.23809 0,0.35714 0,0.0595 0.0595,0.17857 0,0.17857 -0.0842,0 -0.11904,-0.23809 -0.17857,-0.17857 -0.0842,0.0842 0.0842,0.27296 0,0.35714 -0.0595,0.0595 -0.23809,-0.11904 -0.17857,-0.17857 0.0941,-0.0941 0.27269,0.26303 0.17857,0.35714 -0.0421,0.0421 -0.13648,-0.0421 -0.17857,0 -0.0842,0.0842 0.0842,0.27297 0,0.35715 -0.0421,0.0421 -0.17857,-0.0595 -0.17857,0 0,0.1331 0.17857,0.22404 0.17857,0.35714 0,0.11905 -0.35714,-0.11905 -0.35714,0 0,0.1331 0.0845,0.26303 0.17857,0.35714 0.0421,0.0421 0.0421,-0.22066 0,-0.17857 -0.0941,0.0941 -0.13648,0.23087 -0.17857,0.35714 -0.0188,0.0565 0.0595,0.17858 0,0.17858 -0.0595,0 0.0421,-0.22067 0,-0.17858 -0.0941,0.0941 -0.17857,0.22405 -0.17857,0.35715 0,0.0842 0.0944,-0.17857 0.17857,-0.17857 0.1331,0 -0.0455,0.35714 -0.17857,0.35714 -0.0595,0 -0.0595,-0.17857 0,-0.17857 0.0595,0 0,0.11904 0,0.17857 0,0.0595 0.0595,0.17857 0,0.17857 -0.0595,0 -0.0595,-0.17857 0,-0.17857 0.0595,0 0,0.11905 0,0.17857 0,0.0595 0.0595,0.17857 0,0.17857 -0.0842,0 -0.17857,-0.0944 -0.17857,-0.17857 0,-0.0595 0.13648,-0.0421 0.17857,0 0.0421,0.0421 0.0421,0.13648 0,0.17857 -0.006,0.006 -0.49241,0 -0.53572,0 -0.0595,0 -0.17857,0.0595 -0.17857,0 0,-0.0595 0.22066,0.0421 0.17857,0 -0.0941,-0.0941 -0.23087,-0.13648 -0.35714,-0.17857 -0.13972,-0.0466 -0.35714,0.0747 -0.35714,0 0,-0.24542 0.38902,-0.58802 0.17857,-0.71429 -0.35714,0.0595 -0.71429,0.11905 -1.07143,0.17858 0.0595,0 0.13648,0.0421 0.17857,0 0.0421,-0.0421 0.0421,-0.13649 0,-0.17858 -0.0421,-0.0421 -0.13648,0.0421 -0.17857,0 -0.0421,-0.0421 -0.0595,-0.17857 0,-0.17857 0.0595,0 0,0.2381 0,0.17857 0,-0.11904 0,-0.23809 0,-0.35714"
       id="path8128"
       inkscape:connector-curvature="0" />
    <path
       style="fill:#f57900;stroke:none;stroke-width:1px;stroke-linecap:butt;stroke-linejoin:miter;stroke-opacity:1;fill-opacity:1;opacity:0.533"
       d="m 99.45286,437.93336 c 0.06333,0.18719 0.126662,0.37437 0.189993,0.56156 0.05952,0 0.178571,-0.0595 0.178571,0 0,0.0595 -0.220661,0.0421 -0.178571,0 0.09412,-0.0941 0.399797,-0.0525 0.357143,-0.17857 -0.07135,-0.21088 -0.746253,-0.28343 -0.547136,-0.38299 0.276406,-0.1382 0.60682,0.12063 0.90428,0.20442 0.0573,0.0161 -0.17857,0.0595 -0.17857,0 0,-0.0842 0.10328,-0.14093 0.17857,-0.17858 0.0532,-0.0266 0.17857,0.0595 0.17857,0 0,-0.0842 -0.23809,-0.11904 -0.17857,-0.17857 0.0595,-0.0595 0.0944,0.17857 0.17857,0.17857 0.0595,0 -0.0266,-0.12533 0,-0.17857 0.0376,-0.0753 0.11905,-0.23809 0.17857,-0.17857 0.0595,0.0595 -0.26275,0.17857 -0.17857,0.17857 0.1331,0 0.29762,-0.0595 0.35714,-0.17857 0.0376,-0.0753 -0.21621,-0.10328 -0.17857,-0.17857 0.0595,-0.11905 0.22405,-0.17857 0.35714,-0.17857 0.0842,0 -0.11904,0.23809 -0.17857,0.17857 -0.0595,-0.0595 0.11905,-0.11905 0.17857,-0.17857 0.0595,-0.0595 0.14093,-0.10328 0.17858,-0.17857 0.0266,-0.0532 -0.0595,-0.17857 0,-0.17857 0.0842,0 0.11904,0.23809 0.17857,0.17857 0.0842,-0.0842 -0.0376,-0.24421 0,-0.35715 0.11845,-0.35534 0.16666,-0.0833 0.35714,-0.17857 0.0753,-0.0376 0.11905,-0.11905 0.17857,-0.17857 0.0595,-0.0595 0.13188,-0.10853 0.17857,-0.17857 0.0738,-0.11075 0.0845,-0.26303 0.17857,-0.35714 0.875,-0.4375 0.14937,0.0584 0.35715,-0.35715 0.10236,-0.20471 0.37259,-0.24839 0.53571,-0.35714 0.14008,-0.0934 0.20656,-0.28185 0.35714,-0.35714 0.10672,-0.0534 0.35715,0.11755 0.35715,-0.17857 0,-0.0595 -0.22066,0.0421 -0.17857,0 0.0941,-0.0941 0.26302,-0.0845 0.35714,-0.17857 0.0421,-0.0421 -0.17857,0.0595 -0.17857,0 0,-0.11905 0.27296,0.0842 0.35714,0 0.2381,-0.2381 -0.29762,-0.17858 0.17857,-0.17858 0.57481,0 -0.22066,0.0421 0,-0.17857 0.0842,-0.0842 0.2381,0 0.35714,0 0.0595,0 -0.17857,0.0595 -0.17857,0 0,-0.0842 0.10328,-0.14092 0.17857,-0.17857 0.10648,-0.0532 0.35715,0.11905 0.35715,0 0,-0.0842 -0.17857,-0.0944 -0.17857,-0.17857 0,-0.0595 0.11904,0 0.17857,0 0.41878,0 -0.0842,0.0421 0.35714,-0.17857 0.0532,-0.0266 0.13648,0.0421 0.17857,0 0.0421,-0.0421 -0.0421,-0.13648 0,-0.17857 0.0421,-0.0421 0.12533,0.0266 0.17857,0 0.0753,-0.0376 0.10328,-0.14093 0.17857,-0.17857 0.0532,-0.0266 0.17858,-0.0595 0.17858,0 0,0.0164 -0.59225,0.0188 0,-0.17858 0.11293,-0.0376 0.25066,0.0532 0.35714,0 0.0532,-0.0266 -0.0421,-0.13648 0,-0.17857 0.0842,-0.0842 0.25066,0.0532 0.35714,0 0.0753,-0.0376 0.14093,-0.10328 0.17857,-0.17857 0.0266,-0.0532 -0.0532,-0.15195 0,-0.17857 0.10648,-0.0532 0.2381,0 0.35715,0 0.0595,0 0.17857,0.0595 0.17857,0 0,-0.0842 -0.2381,-0.11905 -0.17857,-0.17857 0.0842,-0.0842 0.25066,0.0532 0.35714,0 0.0532,-0.0266 0,-0.11905 0,-0.17857 0.11905,0 0.23809,0 0.35714,0 0.0595,0 -0.20519,0.0532 -0.17857,0 0.0753,-0.15059 0.2381,-0.2381 0.35714,-0.35715 0.0595,-0.0595 -0.11904,0.11905 -0.17857,0.17858 0.11905,-0.0595 0.26303,-0.0845 0.35714,-0.17858 0.0421,-0.0421 -0.22066,0.0421 -0.17857,0 0.0941,-0.0941 0.23088,-0.13648 0.35715,-0.17857 0.0565,-0.0188 0.17857,0.0595 0.17857,0 0,-0.71428 -0.53572,-0.17857 0.17857,-0.17857 0.0842,0 0.10328,-0.14092 0.17857,-0.17857 0.0532,-0.0266 0.17857,-0.0595 0.17857,0 0,0.0595 -0.77381,-0.0595 -0.17857,-0.35714 0.11905,-0.0595 0.22404,0.17857 0.35714,0.17857 0.0842,0 -0.17857,-0.0944 -0.17857,-0.17857 0,-0.11905 0.27297,0.0842 0.35714,0 0.0421,-0.0421 -0.0421,-0.13649 0,-0.17857 0.64994,-0.64994 0.12548,0.18984 0.53572,-0.35715 0.0364,-0.0485 0.70586,-1.06511 0.71428,-1.07143 0.0952,-0.0714 0.27297,0.0842 0.35715,0 0.0842,-0.0842 0,-0.23809 0,-0.35714 0.11905,-0.11905 0.21706,-0.26375 0.35714,-0.35714 0.0495,-0.033 0.13648,0.0421 0.17857,0 0.0421,-0.0421 -0.0421,-0.13648 0,-0.17857 0.0941,-0.0941 0.26303,-0.0845 0.35714,-0.17857 0.0421,-0.0421 -0.11904,0 -0.17857,0 0.11905,-0.0595 0.23088,-0.13649 0.35715,-0.17858 0.10672,-0.0356 0.35714,0.0924 0.35714,-0.17857 0,-0.0595 -0.22066,0.0421 -0.17857,0 0.0941,-0.0941 0.23087,-0.13648 0.35714,-0.17857 0.0565,-0.0188 0.17857,0.0595 0.17857,0 0,-0.0842 -0.23809,-0.11905 -0.17857,-0.17857 0.0842,-0.0842 0.2381,0 0.35714,0 0.0595,0 -0.20519,0.0532 -0.17857,0 0.0753,-0.15059 0.2381,-0.2381 0.35714,-0.35714 0.0595,-0.0595 -0.23809,0.11904 -0.17857,0.17857 0.0842,0.0842 0.30391,0.10648 0.35715,0 0.0595,-0.11905 -0.27269,-0.26303 -0.17858,-0.35714 1.1073,0.017 0.17858,0.26275 0.17858,0.17857 0,-0.11905 0.35714,0.11904 0.35714,0 0,-0.0842 -0.14093,-0.10328 -0.17857,-0.17857 -0.0266,-0.0532 -0.0595,-0.17858 0,-0.17858 1.0047,0 0.22445,0.27034 0.17857,0.17858 -0.0532,-0.10648 -0.10648,-0.30391 0,-0.35715 0.11905,-0.0595 0.23087,0.13648 0.35714,0.17857 0.40344,0.13448 0,-0.24746 0,-0.35714 0,-0.0842 0.0944,0.17857 0.17857,0.17857 0.0842,0 0.10328,-0.14092 0.17857,-0.17857 0.0532,-0.0266 0.17858,-0.0595 0.17858,0 0,0.0595 -0.2381,0 -0.17858,0 0.11905,0 0.30391,0.10648 0.35715,0 0.0595,-0.11905 -0.27269,-0.26303 -0.17857,-0.35714 0.0941,-0.0941 0.26302,0.0845 0.35714,0.17857 0.0421,0.0421 -0.17857,0.0595 -0.17857,0 0,-0.0842 0.11905,-0.11905 0.17857,-0.17857 0.0595,-0.0595 0.0944,-0.17857 0.17857,-0.17857 0.0595,0 0.0595,0.17857 0,0.17857 -0.0595,0 -0.0532,-0.15195 0,-0.17857 0.10648,-0.0532 0.27296,0.0842 0.35714,0 0.0842,-0.0842 0,-0.2381 0,-0.35715 0,-0.0595 -0.0532,0.2052 0,0.17858 1.01191,-0.50596 0.17857,-0.43155 0.17857,-0.17858 0,0.0595 0.11905,0 0.17858,0 0.0595,0 0.13648,0.0421 0.17857,0 0.86359,-0.86359 -0.13675,-0.17857 0,-0.17857 0.1331,0 0.29762,-0.0595 0.35714,-0.17857 0.0376,-0.0753 -0.0944,-0.17857 -0.17857,-0.17857 -0.0595,0 -0.0532,0.15195 0,0.17857 0.10648,0.0532 0.23809,0 0.35714,0 0.0595,0 -0.20519,0.0532 -0.17857,0 0.0753,-0.15058 0.2381,-0.23809 0.35714,-0.35714 0.0595,-0.0595 -0.17857,0.0944 -0.17857,0.17857 0,0.11905 0.35714,-0.11905 0.35714,0 0,0.0595 -0.15195,0.0532 -0.17857,0 -0.0532,-0.10648 -0.0842,-0.27296 0,-0.35714 0.0595,-0.0595 0.10328,0.14092 0.17857,0.17857 0.21991,0.10995 0.35715,-0.19262 0.35715,-0.35714 0,-0.0842 -0.17857,0.0944 -0.17857,0.17857 0,0.0595 0.15195,0.0532 0.17857,0 0.0532,-0.10648 0,-0.2381 0,-0.35715 0,-0.0595 -0.0532,0.2052 0,0.17858 0.15058,-0.0753 0.20656,-0.28185 0.35714,-0.35715 0.0532,-0.0266 0.0595,0.17857 0,0.17857 -0.0595,0 0,-0.11904 0,-0.17857 0,-0.0595 -0.0595,-0.17857 0,-0.17857 0.1331,0 0.26303,0.27269 0.35714,0.17857 0.0941,-0.0941 -0.27268,-0.26302 -0.17857,-0.35714 0.0941,-0.0941 0.26303,0.0845 0.35714,0.17857 0.0421,0.0421 -0.22066,0.0421 -0.17857,0 0.0941,-0.0941 0.29762,-0.0595 0.35715,-0.17857 0.0376,-0.0753 -0.17858,-0.0944 -0.17858,-0.17857 0,-0.0595 0.12534,0.0266 0.17858,0 0.0753,-0.0376 0.11904,-0.11905 0.17857,-0.17857 0.0595,-0.0595 0.11905,-0.11905 0.17857,-0.17857 0.11905,-0.0595 0.26303,-0.0845 0.35714,-0.17858 0.0941,-0.0941 0.10474,-0.24639 0.17857,-0.35714 0.0934,-0.14008 0.28185,-0.20656 0.35715,-0.35714 0.0266,-0.0532 0,-0.11905 0,-0.17857 0.11904,0 0.25809,0.066 0.35714,0 0.11074,-0.0738 0.17857,-0.22405 0.17857,-0.35715 0,-0.0595 -0.23809,0 -0.17857,0 0.69758,0 0.0721,0.10648 0.53571,-0.35714 0.0421,-0.0421 0,0.2381 0,0.17857 0,-0.11904 -0.0842,-0.27296 0,-0.35714 0.13948,-0.13948 0.4864,0.0986 0.53572,0 0,-0.9987 -0.0842,-0.0472 0.17857,-0.17857 0.11905,-0.0595 0.0678,-0.28331 0.17857,-0.35714 0.16699,-0.11133 0.49327,0.0849 0.53571,0 0.0532,-0.10648 -0.0842,-0.27297 0,-0.35715 0.26276,-0.26275 0.17858,1.00593 0.17858,-0.17857 0,-0.0595 -0.0532,0.20519 0,0.17857 0.15058,-0.0753 0.23809,-0.23809 0.35714,-0.35714 0.0595,-0.0595 -0.2381,0.11905 -0.17857,0.17857 0.0842,0.0842 0.27296,0.0842 0.35714,0 0.0595,-0.0595 -0.14092,-0.10328 -0.17857,-0.17857 -0.0266,-0.0532 -0.0595,-0.17857 0,-0.17857 0.1331,0 0.26303,0.0845 0.35714,0.17857 0.0421,0.0421 -0.13648,0.0421 -0.17857,0 -0.0421,-0.0421 -0.0421,-0.13648 0,-0.17857 0.0941,-0.0941 0.22404,-0.17857 0.35714,-0.17857 0.0842,0 -0.23809,0.23809 -0.17857,0.17857 0.11905,-0.11905 0.2381,-0.2381 0.35714,-0.35714 0.0595,-0.0595 -0.23809,0.23809 -0.17857,0.17857 1.17064,-1.17064 -0.63492,0.63492 0.53572,-0.53572 0.0595,-0.0595 -0.11905,0.2381 -0.17857,0.17857 -0.0842,-0.0842 -0.10648,-0.3039 0,-0.35714 0.11904,-0.0595 0.26302,0.0845 0.35714,0.17857 0.0421,0.0421 -0.20519,0.0532 -0.17857,0 0.0753,-0.15058 0.23809,-0.23809 0.35714,-0.35714 0.0595,-0.0595 -0.23809,0.23809 -0.17857,0.17857 0.11905,-0.11905 0.23809,-0.23809 0.35714,-0.35714 0.0595,-0.0595 -0.23809,0.11905 -0.17857,0.17857 0.0842,0.0842 0.3039,0.10648 0.35714,0 0.0595,-0.11905 -0.27268,-0.26303 -0.17857,-0.35714 0.0941,-0.0941 0.26303,0.27268 0.35714,0.17857 0.0941,-0.0941 -0.27268,-0.26303 -0.17857,-0.35714 0.0941,-0.0941 0.2381,0.23809 0.35715,0.17857 0.10647,-0.0532 0,-0.2381 0,-0.35715 0,-0.0595 0,0.2381 0,0.17858 0,-0.11905 -0.10648,-0.30391 0,-0.35715 0.11904,-0.0595 0.26302,0.0845 0.35714,0.17857 0.0421,0.0421 -0.13648,0.0421 -0.17857,0 -0.10672,-0.10672 0.10883,-0.35714 0.17857,-0.35714 0.0842,0 0.23809,0.11905 0.17857,0.17857 -0.0595,0.0595 -0.21622,-0.10328 -0.17857,-0.17857 0.50365,-1.00731 0.40621,0.22765 0.17857,0 -0.0595,-0.0595 0.11905,-0.11905 0.17857,-0.17857 0.0595,-0.0595 0.0944,-0.17857 0.17857,-0.17857 0.0595,0 0,0.11905 0,0.17857 0.11905,-0.11905 0.19743,-0.3039 0.35715,-0.35714 0.0799,-0.0266 0.11904,0.23809 0.17857,0.17857 0.0842,-0.0842 0,-0.2381 0,-0.35714 0,-0.0595 -0.0595,-0.17858 0,-0.17858 0.1331,0 0.22404,0.17858 0.35714,0.17858 0.0842,0 -0.21622,-0.10328 -0.17857,-0.17858 0.0595,-0.11904 0.22404,-0.17857 0.35714,-0.17857 0.0755,0 -0.38796,0.41878 -0.17857,0 0.0376,-0.0753 0.0944,-0.17857 0.17857,-0.17857 0.2381,0 -0.29762,0.41667 0.17857,0.17857 0.0753,-0.0376 0.17857,-0.0944 0.17857,-0.17857 0,-0.0842 -0.26275,-0.17857 -0.17857,-0.17857 0.1331,0 0.22405,0.17857 0.35715,0.17857 0.0842,0 -0.21622,-0.10328 -0.17858,-0.17857 0.0595,-0.11905 0.29762,-0.0595 0.35715,-0.17857 0.0377,-0.0753 -0.26275,-0.17857 -0.17857,-0.17857 0.13309,0 0.26302,0.0845 0.35714,0.17857 0.0421,0.0421 -0.15195,0.0532 -0.17857,0 -0.0532,-0.10648 0,-0.2381 0,-0.35714 0,-0.0595 -0.0595,0.17857 0,0.17857 0.1331,0 0.29762,-0.0595 0.35714,-0.17857 0.0377,-0.0753 -0.0944,-0.17858 -0.17857,-0.17858 -0.0595,0 -0.0532,0.2052 0,0.17858 0.15058,-0.0753 0.23809,-0.2381 0.35714,-0.35715 0.0595,-0.0595 -0.11905,0.2381 -0.17857,0.17857 -0.0842,-0.0842 -0.10648,-0.3039 0,-0.35714 0.11905,-0.0595 0.26303,0.27269 0.35714,0.17857 0.0941,-0.0941 -0.0845,-0.26302 -0.17857,-0.35714 -0.0421,-0.0421 -0.0421,0.22066 0,0.17857 0.0941,-0.0941 0.10474,-0.2464 0.17857,-0.35714 0.0467,-0.07 0.17857,-0.0944 0.17857,-0.17857 0,-0.0842 -0.23809,-0.11905 -0.17857,-0.17857 0.0595,-0.0595 0.10328,0.21621 0.17857,0.17857 0.11905,-0.0595 0.17858,-0.22405 0.17858,-0.35715 0,-0.0842 -0.11905,0.2381 -0.17858,0.17858 -0.0842,-0.0842 0,-0.2381 0,-0.35715 0,-0.0595 0,0.2381 0,0.17857 0,-0.11904 0,-0.23809 0,-0.35714 0,-0.0595 0.0595,0.17857 0,0.17857 -0.0595,0 0,-0.11904 0,-0.17857 0,-0.0595 -0.0266,-0.12533 0,-0.17857 0.0377,-0.0753 0.0944,-0.17857 0.17858,-0.17857 0.0842,0 0.23809,0.11905 0.17857,0.17857 -0.15988,0.15987 -0.23338,-0.53571 -0.17857,-0.53571 0.0595,0 -0.0595,0.17857 0,0.17857 0.0842,0 0.11904,-0.11905 0.17857,-0.17857 0.0595,-0.0595 0.17857,-0.0944 0.17857,-0.17858 0,-0.0595 -0.13648,0.0421 -0.17857,0 -0.0421,-0.0421 0,-0.11904 0,-0.17857 0,-0.0595 -0.0595,-0.17857 0,-0.17857 0.0595,0 0.0595,0.17857 0,0.17857 -0.0595,0 -0.0421,-0.13648 0,-0.17857 0.0421,-0.0421 0.13648,0.0421 0.17857,0 0.0421,-0.0421 -0.0266,-0.12533 0,-0.17857 0.0377,-0.0753 0.17857,-0.0944 0.17857,-0.17857 0,-0.0595 -0.13648,0.0421 -0.17857,0 -0.0421,-0.0421 -0.0595,-0.17857 0,-0.17857 0.0595,0 0.0595,0.17857 0,0.17857 -0.0595,0 0,-0.11905 0,-0.17857 0,-0.0595 0,-0.11905 0,-0.17857 0,-0.0595 -0.0595,-0.17858 0,-0.17858 0.0595,0 0.0595,0.17858 0,0.17858 -0.0595,0 0,-0.11905 0,-0.17858 0,-0.0595 0,-0.11904 0,-0.17857 0,-0.0595 -0.0595,-0.17857 0,-0.17857 0.0595,0 0.0595,0.17857 0,0.17857 -0.0595,0 0,-0.11905 0,-0.17857 0,-0.0595 0,-0.11905 0,-0.17857 0,-0.0595 0,-0.11905 0,-0.17857 0,-0.0595 -0.0595,-0.17857 0,-0.17857 0.0595,0 0,0.23809 0,0.17857 0,-0.11905 0.0377,-0.24421 0,-0.35715 -0.0532,-0.15971 -0.35714,-0.18878 -0.35714,-0.35714 0,-0.0595 0.17857,0.0595 0.17857,0 0,-0.0842 -0.0944,-0.17857 -0.17857,-0.17857 -0.0595,0 0,0.2381 0,0.17857 0,-0.11905 0.0532,-0.25066 0,-0.35714 -0.0266,-0.0532 -0.17858,0.0595 -0.17858,0 0,-0.0842 0.17858,-0.0944 0.17858,-0.17857 0,-0.0842 -0.10328,-0.14093 -0.17858,-0.17857 -0.0532,-0.0266 -0.17857,0.0595 -0.17857,0 0,-0.0842 0.17857,-0.0944 0.17857,-0.17858 0,-0.0595 -0.13648,0.0421 -0.17857,0 -0.0842,-0.0842 0.11905,-0.35714 0,-0.35714 -0.0842,0 -0.11905,0.2381 -0.17857,0.17857 -0.0595,-0.0595 0.17857,-0.0944 0.17857,-0.17857 0,-0.0842 -0.10328,-0.14092 -0.17857,-0.17857 -0.0532,-0.0266 -0.17857,0.0595 -0.17857,0 0,-0.0842 0.17857,-0.0944 0.17857,-0.17857 0,-0.0595 -0.11905,0 -0.17857,0 -0.0595,0 -0.11905,0 -0.17857,0 -0.0595,0 -0.17857,0.0595 -0.17857,0 0,-0.0842 0.17857,-0.0944 0.17857,-0.17857 0,-0.0595 -0.11905,0 -0.17857,0 -0.12697,0 -0.53572,0.075 -0.53572,-0.17857 0,-0.0595 0.2381,0 0.17857,0 -0.11904,0 -0.23809,0 -0.35714,0 -0.0595,0 0.22066,0.0421 0.17857,0 -0.0941,-0.0941 -0.22404,-0.17858 -0.35714,-0.17858 -0.0595,0 0.0421,0.13649 0,0.17858 -0.0421,0.0421 -0.13648,0.0421 -0.17857,0 -0.0421,-0.0421 0.0421,-0.13649 0,-0.17858 -0.0421,-0.0421 -0.12533,0.0266 -0.17857,0 -0.0753,-0.0376 -0.10328,-0.14092 -0.17857,-0.17857 -0.10648,-0.0532 -0.25067,0.0532 -0.35715,0 -0.74317,-0.37158 0.10672,-0.0718 0,-0.17857 -0.0941,-0.0941 -0.22404,-0.17857 -0.35714,-0.17857 -0.0842,0 0.17857,0.0944 0.17857,0.17857 0,0.125 -0.35714,-0.0536 -0.35714,-0.17857 0,-0.0595 0.17857,-0.0595 0.17857,0 0,0.0595 -0.12533,0.0266 -0.17857,0 -0.0753,-0.0376 -0.10328,-0.14092 -0.17857,-0.17857 -0.0532,-0.0266 -0.17857,0.0595 -0.17857,0 0,-0.0595 0.22066,0.0421 0.17857,0 -0.0111,-0.50281 -0.40262,-0.0455 -0.53572,-0.17857 -0.0421,-0.0421 0.0421,-0.13648 0,-0.17857 -0.0421,-0.0421 -0.17857,0.0595 -0.17857,0 0,-0.25298 0.83334,0.50595 -0.17857,0 -0.0532,-0.0266 0.0421,-0.13649 0,-0.17858 -0.0842,-0.0842 -0.25066,0.0532 -0.35714,0 -0.0753,-0.0376 -0.10328,-0.14092 -0.17857,-0.17857 -0.0543,-0.0272 -0.4553,0 -0.53572,0 -0.0595,0 -0.17857,0.0595 -0.17857,0 0,-0.0595 0.2381,0 0.17857,0 -0.23809,0 -0.47619,0 -0.71428,0 -0.0595,0 -0.11905,0 -0.17858,0 -0.0595,0 -0.17857,0.0595 -0.17857,0 0,-0.0595 0.2381,0 0.17857,0 -0.11904,0 -0.25066,0.0532 -0.35714,0 -0.0532,-0.0266 0.0421,-0.13648 0,-0.17857 -0.0842,-0.0842 -0.25066,0.0532 -0.35714,0 -0.0753,-0.0376 -0.10328,-0.14092 -0.17857,-0.17857 -0.0969,-0.0484 -0.66543,0.0489 -0.71429,0 -0.0421,-0.0421 0.0421,-0.13648 0,-0.17857 -0.006,-0.006 -0.4924,0 -0.53571,0 -0.63187,0 -0.45054,0 -1.25,0 -0.0595,0 0.17857,-0.0595 0.17857,0 0,0.29612 -0.25042,0.12521 -0.35714,0.17857 -0.0753,0.0376 -0.0944,0.17857 -0.17858,0.17857 -0.0842,0 -0.0944,-0.17857 -0.17857,-0.17857 -0.0842,0 -0.0987,0.15195 -0.17857,0.17857 -0.11294,0.0377 -0.23809,0 -0.35714,0 -0.2381,0 0.65476,-0.0595 0.17857,0.17857 -1.0119,0.50596 -0.17857,-0.25297 -0.17857,0 0,0.0595 -0.11905,0 -0.17857,0 -0.0595,0 -0.17857,-0.0595 -0.17857,0 0,0.0842 0.23809,0.11905 0.17857,0.17857 -0.0842,0.0842 -0.27297,-0.0842 -0.35715,0 -0.0595,0.0595 0.17858,0.0944 0.17858,0.17858 0,0.11904 -0.27297,-0.0842 -0.35715,0 -0.0421,0.0421 0.0421,0.13648 0,0.17857 -0.0893,0.0893 -0.44643,-0.0893 -0.53571,0 -0.0595,0.0595 0.0944,0.17857 0.17857,0.17857 0.0595,0 0.0595,-0.17857 0,-0.17857 -0.1331,0 -0.26303,0.0845 -0.35714,0.17857 -0.0421,0.0421 0.17857,-0.0595 0.17857,0 0,0.0595 -0.13648,-0.0421 -0.17857,0 -0.0421,0.0421 0.0421,0.13648 0,0.17857 -9.5e-4,9.5e-4 -0.52975,-0.002 -0.53572,0 -0.12912,0.0323 -0.23087,0.13648 -0.35714,0.17857 -0.0565,0.0188 -0.12533,-0.0266 -0.17857,0 -0.0753,0.0377 -0.10328,0.14093 -0.17857,0.17857 -0.10648,0.0532 -0.27297,-0.0842 -0.35715,0 -0.0421,0.0421 0.0595,0.17857 0,0.17857 -1.10729,0 -0.17857,-0.27033 -0.17857,-0.17857 0,0.0842 -0.10328,0.14093 -0.17857,0.17857 -0.10648,0.0532 -0.35714,-0.11904 -0.35714,0 0,0.0842 0.17857,0.0944 0.17857,0.17858 0,0.0747 -0.21742,-0.0466 -0.35714,0 -0.11905,0.0595 -0.2381,0.11904 -0.35715,0.17857 0,0.0595 0.0532,0.15195 0,0.17857 -0.10647,0.0532 -0.2442,-0.0377 -0.35714,0 -0.0799,0.0266 -0.11905,0.23809 -0.17857,0.17857 -0.0595,-0.0595 0.26275,-0.17857 0.17857,-0.17857 -0.1331,0 -0.26303,0.0845 -0.35714,0.17857 -0.0421,0.0421 0.13648,-0.0421 0.17857,0 0.0421,0.0421 0.0532,0.15195 0,0.17857 -0.10648,0.0532 -0.23809,0 -0.35714,0 -0.0595,0 0.23809,0 0.17857,0 -0.11905,0 -0.2381,0 -0.35714,0 -0.0595,0 0.22066,-0.0421 0.17857,0 -0.0941,0.0941 -0.26303,0.0845 -0.35715,0.17857 -0.0421,0.0421 0.2381,0 0.17858,0 -0.11905,0 -0.27297,-0.0842 -0.35715,0 -0.0595,0.0595 0.2381,0.11905 0.17857,0.17858 -0.0842,0.0842 -0.27296,-0.0842 -0.35714,0 -0.0595,0.0595 0.0944,0.17857 0.17857,0.17857 0.0595,0 0.0595,-0.17857 0,-0.17857 -0.1331,0 -0.26302,0.0845 -0.35714,0.17857 -0.0421,0.0421 0.22066,-0.0421 0.17857,0 -0.0941,0.0941 -0.26303,0.0845 -0.35714,0.17857 -0.0421,0.0421 0.0595,0.17857 0,0.17857 -0.0842,0 -0.0944,-0.17857 -0.17857,-0.17857 -0.0595,0 0.0421,0.13648 0,0.17857 -0.0421,0.0421 -0.13648,-0.0421 -0.17857,0 -0.0421,0.0421 0.0595,0.17857 0,0.17857 -0.21991,0 0.54496,-0.90211 -0.35715,0 -0.0421,0.0421 0.13649,-0.0421 0.17857,0 0.0421,0.0421 0.0421,0.13648 0,0.17857 -0.0842,0.0842 -0.35714,-0.11904 -0.35714,0 0,0.0842 0.17857,0.0944 0.17857,0.17857 0,0.0595 -0.11905,0 -0.17857,0 -0.0595,0 -0.17857,0.0595 -0.17857,0 0,-0.0595 0.22066,-0.0421 0.17857,0 -0.0941,0.0941 -0.26303,0.0845 -0.35714,0.17858 -0.0421,0.0421 0.13648,-0.0421 0.17857,0 0.0421,0.0421 0.0595,0.17857 0,0.17857 -0.1331,0 -0.22404,-0.17857 -0.35714,-0.17857 -0.0842,0 0.21621,0.10327 0.17857,0.17857 -0.0595,0.11904 -0.29762,0.0595 -0.35714,0.17857 -0.0376,0.0753 0.26275,0.17857 0.17857,0.17857 -0.1331,0 -0.26303,-0.27269 -0.35715,-0.17857 -0.0941,0.0941 0.2381,0.23809 0.17858,0.35714 -0.0532,0.10648 -0.27297,-0.0842 -0.35715,0 -0.0595,0.0595 0.26275,0.17857 0.17857,0.17857 -0.1331,0 -0.22404,-0.17857 -0.35714,-0.17857 -0.0842,0 0.17857,0.0944 0.17857,0.17857 0,0.0842 -0.0944,0.17857 -0.17857,0.17857 -0.0595,0 0.0595,-0.17857 0,-0.17857 -0.0842,0 -0.17857,0.0944 -0.17857,0.17857 0,0.0595 0.13648,-0.0421 0.17857,0 0.0421,0.0421 0.0595,0.17858 0,0.17858 -0.0842,0 -0.0944,-0.17858 -0.17857,-0.17858 -0.0595,0 0.0421,0.13649 0,0.17858 -0.0421,0.0421 -0.17857,-0.0595 -0.17857,0 0,0.0842 0.0944,0.17857 0.17857,0.17857 0.0595,0 0.0595,-0.17857 0,-0.17857 -0.1331,0 -0.26303,0.0845 -0.35714,0.17857 -0.0421,0.0421 0.17857,-0.0595 0.17857,0 0,0.13675 -0.53444,0.35586 -0.53572,0.35714 -0.0421,0.0421 0.22067,-0.0421 0.17858,0 -0.0941,0.0941 -0.26303,0.0845 -0.35715,0.17857 -0.0421,0.0421 0.22066,-0.0421 0.17857,0 -0.0941,0.0941 -0.26302,0.0845 -0.35714,0.17857 -0.0421,0.0421 0.22066,-0.0421 0.17857,0 -0.0941,0.0941 -0.26302,0.0845 -0.35714,0.17857 -0.0421,0.0421 0.22066,-0.0421 0.17857,0 -0.0941,0.0941 -0.26303,0.0845 -0.35714,0.17858 -0.0421,0.0421 0.22066,-0.0421 0.17857,0 -0.0941,0.0941 -0.29762,0.0595 -0.35714,0.17857 -0.0376,0.0753 0.21621,0.10328 0.17857,0.17857 -0.20093,0.84702 -0.40945,-0.12627 -0.53572,0 -0.0842,0.0842 0.0376,0.2442 0,0.35714 -0.0266,0.0799 -0.14092,0.10328 -0.17857,0.17857 -0.0266,0.0532 0.0532,0.15195 0,0.17857 -1.09608,0.0842 -0.13648,-0.0421 -0.17857,0 -0.0941,0.0941 -0.29762,0.0595 -0.35714,0.17858 -0.0376,0.0753 0.17857,0.0944 0.17857,0.17857 0,0.0595 -0.12533,-0.0266 -0.17857,0 -0.0753,0.0376 -0.11905,0.23809 -0.17857,0.17857 -0.1858,-0.18579 0.46597,-0.28741 0.17857,0 -0.10672,0.10672 -0.35714,-0.19302 -0.35714,0.17857 0,0.0842 0.21621,0.10328 0.17857,0.17857 -0.0595,0.11905 -0.22405,0.17857 -0.35715,0.17857 -0.0842,0 0.2381,-0.23809 0.17858,-0.17857 -0.11905,0.11905 -0.30391,0.19743 -0.35715,0.35714 -0.0266,0.0799 0.17857,0.0944 0.17857,0.17858 0,0.42607 -0.53571,-0.12814 -0.53571,0.53571 0,0.0595 0.23809,0 0.17857,0 -0.69758,0 -0.17857,-0.10648 -0.17857,0.35714 0,0.37159 -0.25042,0.0719 -0.35714,0.17857 -0.0421,0.0421 0.0266,0.12534 0,0.17858 -0.0376,0.0753 -0.14093,0.10327 -0.17857,0.17857 -0.0266,0.0532 0.0595,0.17857 0,0.17857 -0.0842,0 -0.2381,-0.11905 -0.17858,-0.17857 0.0941,-0.0941 0.2381,0.23809 0.17858,0.35714 -0.4762,0.95238 0.11904,-0.47619 -0.35715,0 -0.0842,0.0842 0.0376,0.2442 0,0.35714 -0.0266,0.0799 -0.11905,0.11905 -0.17857,0.17857 -0.0595,0.0595 -0.11905,0.2381 -0.17857,0.17858 -0.0595,-0.0595 0.17857,-0.26275 0.17857,-0.17858 0,0.1331 -0.0845,0.26303 -0.17857,0.35715 -0.0421,0.0421 -0.17857,-0.0595 -0.17857,0 0,0.0842 0.17857,0.0944 0.17857,0.17857 0,0.0842 -0.0944,0.17857 -0.17857,0.17857 -0.0842,0 -0.0944,-0.17857 -0.17857,-0.17857 -0.11905,0 0.0532,0.25066 0,0.35714 -0.0376,0.0753 -0.14093,0.10328 -0.17857,0.17857 -0.0266,0.0532 0.0595,0.17857 0,0.17857 -0.0842,0 -0.17858,-0.26275 -0.17858,-0.17857 0,0.1331 0.17858,0.22405 0.17858,0.35715 0,0.0842 -0.10328,0.14092 -0.17858,0.17857 -0.0532,0.0266 -0.17857,-0.0595 -0.17857,0 0,0.0842 0.17857,0.0944 0.17857,0.17857 0,0.16836 -0.35714,0.18878 -0.35714,0.35714 0,0.0842 0.21622,0.10328 0.17857,0.17857 -0.0595,0.11905 -0.29762,0.0595 -0.35714,0.17857 -0.0376,0.0753 0.17857,0.0944 0.17857,0.17858 0,0.16835 -0.35714,0.18878 -0.35714,0.35714 0,0.0595 0.17857,-0.0595 0.17857,0 0,0.0842 -0.14093,0.10328 -0.17857,0.17857 -0.0266,0.0532 0.0595,0.17857 0,0.17857 -0.0842,0 -0.17857,-0.26275 -0.17857,-0.17857 0,0.1331 0.0845,0.26303 0.17857,0.35714 0.0421,0.0421 0.0595,-0.17857 0,-0.17857 -0.37159,0 -0.0718,0.25042 -0.17857,0.35714 -0.0421,0.0421 -0.17857,-0.0595 -0.17857,0 0,0.0842 0.14092,0.10328 0.17857,0.17858 0.0266,0.0532 0.0595,0.17857 0,0.17857 -0.0842,0 -0.11905,-0.2381 -0.17857,-0.17857 -0.0842,0.0842 0,0.23809 0,0.35714 0,0.0595 -0.0595,-0.17857 0,-0.17857 0.0595,0 0,0.11904 0,0.17857 0,0.0595 0,0.11905 0,0.17857 0,0.0595 0.0595,0.17857 0,0.17857 -0.0595,0 -0.0595,-0.17857 0,-0.17857 0.0595,0 0.0266,0.12533 0,0.17857 -0.0376,0.0753 -0.17858,0.0944 -0.17858,0.17857 0,0.0595 0.22067,-0.0421 0.17858,0 -0.0941,0.0941 -0.29762,0.0595 -0.35715,0.17857 -0.0376,0.0753 0.2381,0.11905 0.17857,0.17858 -0.13593,0.13593 -0.35714,-0.89996 -0.35714,0.17857 0,0.0842 0.11905,-0.11905 0.17857,-0.17857 -0.11905,0.11904 -0.28185,0.20655 -0.35714,0.35714 -0.0266,0.0532 0.17857,-0.0595 0.17857,0 0,0.0842 -0.14092,0.10328 -0.17857,0.17857 -0.0266,0.0532 0.0595,0.17857 0,0.17857 -0.0842,0 -0.17857,-0.26275 -0.17857,-0.17857 0,0.1331 0.17857,0.22404 0.17857,0.35714 0,0.0842 -0.10328,-0.21621 -0.17857,-0.17857 -0.90211,0.45106 0,0.33896 0,0.35714 0,0.0842 -0.14093,0.10328 -0.17857,0.17858 -0.0532,0.10648 0.11904,0.35714 0,0.35714 -0.0842,0 -0.11905,-0.2381 -0.17857,-0.17857 -0.0893,0.0893 0.0446,0.40178 0,0.53571 -0.0421,0.12627 -0.17858,0.22405 -0.17858,0.35714 0,0.0842 0.17858,0.0944 0.17858,0.17858 0,0.0595 -0.13649,-0.0421 -0.17858,0 -0.0941,0.0941 -0.17857,0.22404 -0.17857,0.35714 0,0.0842 0.0944,0.17857 0.17857,0.17857 0.0595,0 0.0595,-0.17857 0,-0.17857 -0.0842,0 -0.14092,0.10328 -0.17857,0.17857 -0.0266,0.0532 0,0.11905 0,0.17857 0,0.0595 0,0.11905 0,0.17857 0,0.0595 0.0421,0.13648 0,0.17857 -0.0421,0.0421 -0.17857,-0.0595 -0.17857,0 0,0.81291 0.3346,-0.15603 0.17857,0 -0.0941,0.0941 -0.13648,0.23088 -0.17857,0.35715 -0.0188,0.0565 0.0595,0.17857 0,0.17857 -0.0595,0 0.0421,-0.22066 0,-0.17857 -0.0941,0.0941 -0.17857,0.22404 -0.17857,0.35714 0,0.0842 0.17857,0.0944 0.17857,0.17857 0,0.0595 -0.15195,-0.0532 -0.17857,0 -0.0532,0.10648 0.0376,0.24421 0,0.35714 -0.0266,0.0799 -0.14092,0.10328 -0.17857,0.17858 -0.0532,0.10647 0.0532,0.25066 0,0.35714 -0.0376,0.0753 -0.14093,0.10328 -0.17857,0.17857 -0.0527,0.10536 0.0409,0.41289 0,0.53571 -0.0421,0.12627 -0.178574,0.22405 -0.178574,0.35715 0,0.0842 0.178574,0.0944 0.178574,0.17857 0.32336,0.7471 -0.281853,0.20656 -0.357146,0.35714 -0.07143,0.14286 0.07143,0.39286 0,0.53571 -0.03765,0.0753 -0.140925,0.10328 -0.178571,0.17858 -0.01638,0.0328 0.01311,0.53571 0,0.53571 -0.05952,0 0,-0.23809 0,-0.17857 0,0.17857 0,0.35714 0,0.53571 0,0.65477 0,1.30953 0,1.96429 0,0.0595 0.04209,-0.13648 0,-0.17857 -0.04209,-0.0421 -0.178571,-0.0595 -0.178571,0 0,0.1331 0.08446,0.26303 0.178571,0.35714 0.04209,0.0421 0,-0.23809 0,-0.17857 0,1.17063 0,-0.63492 0,0.53571 0,0.0595 0,-0.23809 0,-0.17857 0,0.11905 0.08418,0.27297 0,0.35714 -0.05952,0.0595 -0.119048,-0.23809 -0.178571,-0.17857 -0.08418,0.0842 0,0.2381 0,0.35715 0,0.11904 0,0.23809 0,0.35714 0,0.0595 0,-0.2381 0,-0.17857 0,1.17063 0,-0.63492 0,0.53571 0,0.0595 0,-0.23809 0,-0.17857 0,0.11905 0.03765,0.2442 0,0.35714 -0.220662,0.66199 -0.178572,-0.0493 -0.178572,0 0,0.11905 0,0.2381 0,0.35715 0,0.0595 0,-0.2381 0,-0.17857 0,0.11904 0,0.23809 0,0.35714 0,0.0595 0.05952,0.17857 0,0.17857 -0.05952,0 0,-0.2381 0,-0.17857 0,0.11905 0,0.23809 0,0.35714 0,0.0595 0,-0.23809 0,-0.17857 0,0.11905 0,0.23809 0,0.35714 0,0.0595 0,-0.23809 0,-0.17857 0,0.11905 0,0.2381 0,0.35714 0,0.0595 -0.05952,-0.17857 0,-0.17857 0.05952,0 0,0.11905 0,0.17857 0,0.0595 0.05952,0.17858 0,0.17858 -0.05952,0 0.05952,-0.17858 0,-0.17858 -0.08418,0 -0.178571,0.0944 -0.178571,0.17858 0,0.0842 0.140925,0.10327 0.178571,0.17857 0.02662,0.0532 -0.01127,0.12012 0,0.17857 0.0447,0.23188 0.111433,0.45896 0.16715,0.68844 z"
       id="path8748"
       inkscape:connector-curvature="0" />
  </g>
</svg>
